<?xml version="1.0" encoding="UTF-8" standalone="no"?>
<!-- Created with Inkscape (http://www.inkscape.org/) -->

<svg
   xmlns:dc="http://purl.org/dc/elements/1.1/"
   xmlns:cc="http://creativecommons.org/ns#"
   xmlns:rdf="http://www.w3.org/1999/02/22-rdf-syntax-ns#"
   xmlns:svg="http://www.w3.org/2000/svg"
   xmlns="http://www.w3.org/2000/svg"
   xmlns:sodipodi="http://sodipodi.sourceforge.net/DTD/sodipodi-0.dtd"
   xmlns:inkscape="http://www.inkscape.org/namespaces/inkscape"
   width="744.09448819"
   height="1052.3622047"
   id="svg2"
   version="1.1"
   inkscape:version="0.47+devel r9192"
   sodipodi:docname="fishies.svg">
  <defs
     id="defs4" />
  <sodipodi:namedview
     id="base"
     pagecolor="#ffffff"
     bordercolor="#666666"
     borderopacity="1.0"
     inkscape:pageopacity="0.0"
     inkscape:pageshadow="2"
     inkscape:zoom="1.4142136"
     inkscape:cx="402.06456"
     inkscape:cy="639.53565"
     inkscape:document-units="px"
     inkscape:current-layer="layer1"
     showgrid="false"
     inkscape:window-width="1271"
     inkscape:window-height="913"
     inkscape:window-x="154"
     inkscape:window-y="161"
     inkscape:window-maximized="0" />
  <metadata
     id="metadata7">
    <rdf:RDF>
      <cc:Work
         rdf:about="">
        <dc:format>image/svg+xml</dc:format>
        <dc:type
           rdf:resource="http://purl.org/dc/dcmitype/StillImage" />
        <dc:title />
      </cc:Work>
    </rdf:RDF>
  </metadata>
  <g
     inkscape:label="Layer 1"
     inkscape:groupmode="layer"
     id="layer1">
    <path
       style="fill:#000000"
       d="m 394.79775,772.21844 c -1.34684,-4.82497 -0.55193,-8.89074 -2.49996,-13.47733 -1.43489,-3.37842 -2.23842,-6.98838 -3.12602,-10.54659 0.62387,-1.81644 3.17606,-2.11044 4.5625,-1 8.78547,2.62481 15.99865,9.33668 20.15625,17.40625 1.1376,0.47225 1.47158,2.42851 1.40625,-2.09375 -0.74962,-8.08503 -4.75894,-15.47975 -9.8125,-21.6875 -0.55807,-1.01424 -1.56472,-1.75398 -1.9375,-2.875 2.32819,-0.89119 4.54254,-2.15649 7.03125,-2.5625 5.44993,9.36468 8.35698,20.05942 9.28125,30.8125 0.20395,1.21032 0.83374,0.92434 1.18905,-1.6383 1.24333,-8.96761 0.7048,-16.91624 -0.8453,-25.7992 -0.70597,-0.58377 -0.27934,-2.16101 0.75,-1.9375 2.57736,2.86779 3.22581,4.29092 5.32395,7.4734 2.80725,3.90074 1.91755,2.78566 1.53125,0.3292 -1.26872,-8.0677 -5.35061,-15.178 -5.7927,-23.4276 -2.06726,-7.89012 -7.34993,-14.31103 -11.9079,-20.88546 -5.45317,-7.48791 -12.43691,-14.23218 -21.16709,-17.68485 -3.43201,-1.43791 -6.95735,-2.63635 -10.45626,-3.89844 -0.57845,-2.14808 1.22961,-3.93226 2.75,-5.15625 7.50178,-8.65527 17.26872,-15.62265 28.3961,-18.66934 9.20571,-2.30058 18.75955,-3.91674 28.2675,-2.99422 2.97552,0.25411 5.89604,1.14296 8.36765,2.85106 4.10658,2.74574 7.45745,6.43002 11.01139,9.82389 9.02675,9.19829 17.18777,19.32148 23.69376,30.46541 3.54684,6.98957 3.95183,15.0096 3.8261,22.70131 -0.0172,5.42616 -1.93924,10.89873 -5.65113,14.89985 -3.07174,4.04806 -5.6066,9.09288 -4.81472,14.31301 0.70506,3.66578 3.79805,7.2301 7.74178,7.21885 4.16736,-0.36829 6.34065,-4.72058 6.6917,-8.76137 1.5475,-17.81278 -0.0831,-27.66915 -1.65939,-41.40955 -1.14332,-8.53587 -5.8277,-16.04215 -10.90709,-22.79624 -7.59769,-10.30153 -16.47482,-19.65891 -26.31141,-27.84298 -6.4006,-4.90726 -14.42909,-7.53877 -22.47057,-7.70324 -4.71912,-0.32751 -9.45462,-0.23867 -14.18167,-0.22144 -12.06385,1.67753 -23.97194,5.34026 -34.4375,11.65625 -4.88605,3.03942 -9.11838,6.97697 -13.28163,10.9144 -3.2342,2.90589 -7.00179,5.53309 -11.41151,6.13495 -6.12065,1.26032 -12.38429,2.04823 -18.2509,4.30568 -12.78715,4.21196 -24.60975,10.87465 -35.7962,18.27692 -8.95943,6.27688 -16.48331,14.79017 -21.00109,24.79631 -4.5732,10.55338 -6.94005,21.90522 -8.71172,33.22263 -0.32114,3.35522 -0.4361,6.72961 -0.35945,10.09911 -0.90881,2.13016 -3.61395,1.81597 -5.31674,2.90004 -5.64111,2.98613 -11.326,5.50489 -16.88459,8.62049 -1.37905,0.95366 -2.83701,1.7833 -4.26433,2.66171 -4.7662,2.93322 -4.16087,2.69516 -2.6875,4.46875 1.01741,2.85439 5.05537,3.57069 7.04248,5.53482 3.1324,3.27003 7.30602,8.63338 9.7515,12.31396 3.17235,5.99693 7.09053,10.51271 8.76524,17.02413 0.52284,2.25462 0.52317,3.22951 2.76759,-0.41323 3.00258,-2.51575 5.7756,-4.42881 8.91045,-6.41541 2.86594,-1.81619 5.72729,-3.36833 7.4159,-6.19526 1.23297,-1.14557 3.06605,-0.53013 4.18471,0.44547 3.05593,2.05913 5.9063,4.41854 9.07673,6.31411 6.37173,4.04293 13.54806,6.95607 21.07837,7.82388 11.20755,1.83456 22.63993,2.31944 33.96023,1.43175 11.7318,-1.53357 22.93177,-5.51897 34.25569,-8.76922 12.38709,-3.75557 24.67147,-8.52712 35.23449,-16.15124 8.75151,-6.43819 15.94161,-15.46251 18.84995,-26.04577 0.7724,-2.64455 -0.94587,-5.01154 -1.98392,-7.29898 -0.99061,-2.22198 -0.89502,-4.73076 -1.36079,-7.08735 -1.28197,-9.83909 -1.7998,-18.82658 -7.01809,-28.3127 -5.44761,-8.04714 -2.46589,-2.2584 -1.22468,1.07883 1.25563,4.973 1.44497,8.53251 2.17611,13.61678 1.29629,8.85624 1.43683,18.08116 -1.15223,26.72472 -0.49673,1.57734 -1.16291,3.09235 -1.82657,4.60472 -1.20453,0.4824 -1.97963,-1.15321 -1.5625,-2.125 0.39375,-6.58324 -0.002,-13.17916 -0.4375,-19.75 -1.15698,-0.25566 -0.53582,2.40657 -0.88645,4.23546 -1.83413,9.56677 -2.27189,17.44014 -5.36355,26.73329 -0.52923,1.00489 -1.51775,1.85842 -2.6875,1.9375 -1.90243,-4.55191 -1.84769,-9.98672 -5.25,-13.84375 -1.02365,-1.28416 -2.38318,-2.21457 -3.65625,-3.25 -3.11352,-2.53231 -0.53762,0.60704 0.3521,2.86015 2.27801,5.76871 3.89469,12.21129 1.55415,17.9836 -0.63978,0.99493 -2.41176,0.15044 -2.09375,-0.96875 -0.75339,-8.68189 -1.89815,-17.6521 -6.30693,-25.33849 -1.03192,-1.77836 -2.26158,-3.4334 -3.50557,-5.06776 -1.23279,-0.20814 -1.69685,1.50121 -1.15625,2.375 1.80307,9.96197 3.97061,20.035 3.1875,30.21875 -0.35249,1.32116 -2.16126,0.6109 -2.15625,-0.75 0.0202,-5.48196 0.26573,-6.44119 -1.19921,-11.68926 m 17.19921,-128.31074 c -0.71663,1.80579 -2.98696,1.58695 -4.48931,2.29644 -8.26206,2.11913 -16.78259,4.66003 -23.40076,10.28978 -5.08322,4.18924 -9.07403,9.48254 -13.07868,14.66378 -1.06321,3.52438 2.20399,7.2864 5.77229,7.22678 9.43545,1.90685 17.74957,7.76552 23.66186,15.2422 5.67374,6.93203 10.98739,14.39583 13.99023,22.91034 1.3973,3.02751 -0.10088,6.75697 -2.84575,8.46161 -1.59644,1.05067 -3.55883,1.24129 -5.2829,2.02743 -4.85484,1.73784 -9.68879,3.7172 -13.88023,6.77476 -10.80353,6.83318 -19.94413,15.88501 -28.71002,25.10131 -7.17878,7.48113 -14.01858,15.34604 -19.70548,24.03682 -0.21808,1.76195 1.79246,2.60244 3.25,2.71875 6.24366,1.89742 11.97623,5.81391 18.6826,5.91505 13.78319,0.72462 27.69661,-0.66922 41.02241,-4.28436 8.71894,-2.76492 15.9706,-8.60434 22.88874,-14.38069 1.02058,-0.54945 2.16857,0.74576 1.44721,1.67871 -0.7817,1.46915 -1.98045,2.66981 -2.92984,4.03069 -6.37424,8.01357 -15.03718,13.99461 -24.44596,17.91276 -13.88369,6.29591 -28.68604,10.15356 -43.30656,14.30611 -7.93721,2.18384 -16.20045,3.62521 -24.45364,2.8838 -7.23074,-0.47808 -14.47379,-1.10255 -21.61038,-2.3824 -10.5217,-2.10557 -20.40674,-7.45381 -27.74061,-15.3132 -1.28624,-1.16811 -2.30497,-2.67923 -3.71022,-3.67897 -1.05987,-0.3347 -1.98355,0.74872 -2.06006,1.73516 -1.42354,4.12362 -4.8166,7.14305 -8.39666,9.4331 -2.55535,1.77909 -6.29493,3.49642 -8.18777,5.77821 -0.73974,0.89174 -1.53657,-0.12945 -1.71347,-1.06723 -0.0676,-0.35853 -1.17909,-0.29203 1.65685,-5.63295 1.14375,-1.8493 13.57722,-10.66986 14.62314,-12.57488 -1.14863,-1.32556 -3.06775,-0.2207 -3.875,0.9375 -3.08063,3.35382 -11.95741,6.8263 -15.18905,10.0362 -0.33298,0.93579 0.0793,2.19054 -0.875,2.84375 -1.064,-0.45314 -2.72615,-2.17455 -2.012,-3.53201 -0.10164,-1.72317 3.95787,-8.25416 5.41137,-9.12262 2.53737,-2.50269 5.10844,1.34155 6.96821,-1.71821 -0.20636,-1.2169 -3.53194,-3.5737 -4.05941,-2.72401 -3.78671,2.88603 -4.77719,3.53522 -9.22556,5.57148 -1.44773,0.72331 -3.41724,1.65416 -4.875,0.46875 -1.04317,-1.61076 0.41979,-3.60953 1.90757,-4.31144 2.838,-1.73332 6.38794,-2.16599 8.81942,-4.56813 1.29888,-1.03128 0.55794,0.47704 0.99392,-1.17891 -0.31328,-1.06349 -1.71035,-2.19545 -2.28841,-1.53892 -4.40811,1.94905 -7.30401,6.9614 -12.26863,6.36777 -1.31195,-0.1289 -3.40101,-2.38491 -2.13674,-2.40245 1.07767,-0.21126 5.0934,-4.12237 6.11103,-4.54098 3.58261,-0.82892 4.66198,-1.14449 7.80398,-3.03239 1.15507,-0.36504 3.14357,-3.24084 1.91689,-2.98495 -1.07372,0.006 -2.10684,-0.7692 -3.12502,-0.3601 -5.34674,1.49745 -11.26332,7.46468 -16.16034,7.83675 -4.25844,0.32355 7.84022,-5.8963 11.08454,-8.47159 0.64283,-0.49276 2.54409,-1.01433 1.82134,-2.01991 -0.66543,-0.71406 -1.80896,-0.34335 -2.26157,0.39261 -4.29198,2.56143 -8.56209,5.187 -13.12423,7.25014 -0.88794,-0.58215 -0.47914,-2.35628 0.65625,-2.28125 7.89523,-5.18978 17.25746,-8.10614 25.98867,-11.81184 1.19929,-0.32844 2.51711,-0.35856 3.57074,-1.08915 0.62921,-3.47052 -1.91388,-6.63688 -1.28125,-10.12031 -0.0845,-7.9607 2.51459,-15.58369 4.33459,-23.24204 2.83183,-10.03309 7.28804,-19.88142 14.6358,-27.43414 8.68279,-9.26238 19.7102,-15.95347 31.13315,-21.29312 8.78118,-4.0862 18.02304,-7.13725 27.45582,-9.30826 4.55164,-1.20749 9.75126,-1.13953 13.51609,-4.34708 3.449,-3.13643 6.58775,-6.65421 10.48826,-9.26321 9.54159,-6.85456 20.64175,-11.33851 32.10314,-13.76271 2.94433,-0.6146 5.91056,-1.13682 8.89565,-1.51038 z m -61.0625,46.5625 c -6.73824,0.52454 -12.63581,5.32664 -15.38185,11.37139 -4.84059,7.25252 -7.32611,16.24438 -6.05565,24.94111 2.10369,6.93475 8.565,11.92235 15.52145,13.35539 10.04613,2.46885 21.44033,-0.16237 28.8575,-7.52466 6.22886,-6.11879 8.32537,-15.88282 5.4397,-24.08274 -3.3909,-10.03562 -13.27046,-17.65422 -23.9124,-17.99799 -1.4902,-0.0105 -2.97616,-0.16791 -4.46875,-0.0625 z m 7.96875,5.28125 c 7.62297,0.64321 14.38454,6.19332 17.18281,13.20468 1.76938,4.60847 0.29106,10.03531 -3.13092,13.48629 -4.74615,6.08943 -11.45437,11.07913 -19.2274,12.25884 -8.57039,1.13342 -17.43536,-4.98604 -19.35375,-13.42872 -2.24244,-8.93586 2.30447,-19.22813 10.71676,-23.17734 4.23451,-2.18304 9.13863,-2.47513 13.8125,-2.34375 z m 52.1875,15.9375 c -1.10745,-0.18787 -1.26655,1.97545 -0.0625,1.78125 0.92585,0.30769 2.01951,-1.17627 1.0625,-1.78125 -0.33426,-0.0344 -0.66564,-0.0329 -1,0 z m -5.40625,1.53125 c -1.40091,-0.0351 -0.95345,2.58831 0.34375,2.09375 1.19967,-0.16919 0.94519,-2.43485 -0.34375,-2.09375 z m 77.28921,10.55454 c 1.84368,3.46783 1.41549,7.31271 1.34585,11.0117 -0.0452,2.402 -1.8621,11.23054 -4.12434,11.70689 -5.81459,1.22434 -7.83968,-1.92607 -7.54993,-4.99188 -0.29172,-6.07817 1.74421,-12.08005 7.41083,-16.61747 0.1381,-0.11058 2.69087,-1.19137 2.91759,-1.10924 z m -53.35171,5.28921 c 3.02772,9.82435 4.3857,20.13714 4.34375,30.40625 -0.32939,3.03157 -1.77013,5.88288 -3.8125,8.125 -0.0656,1.25971 -2.4761,0.56202 -1.6875,-0.5 2.84659,-6.80187 2.36427,-14.31808 2.54773,-21.52596 -0.47227,-6.12751 -1.19338,-12.23255 -2.04773,-18.31779 0.21875,0.60417 0.4375,1.20833 0.65625,1.8125 z m -11.875,-0.46875 c 1.61222,1.23764 3.38696,5.95883 4.36696,7.63026 -1.6602,-1.31158 -4.23117,-5.79585 -4.71071,-7.84901 0.11458,0.0729 0.22917,0.14583 0.34375,0.21875 z m -4.96875,0.0312 c 3.16222,5.58178 3.21645,12.15581 4.09375,18.34375 -0.48234,0.95162 -1.06724,-0.8342 -1.34375,-1.25 -2.27558,-4.53516 -3.46574,-9.49702 -4.875,-14.34375 -0.12444,-1.24664 0.56518,-2.80295 1.96875,-2.875 l 0.14275,0.1142 z m -14.9375,6.625 c 4.74437,3.49846 7.78361,8.71186 10.40625,13.875 0.0676,1.11294 -1.72859,1.33256 -2.125,0.375 -4.70382,-3.93947 -9.75483,-7.76301 -15.71875,-9.53125 -0.75669,-0.78298 -0.12012,-2.23495 0.9375,-2.3125 1.75402,-1.37233 3.86125,-2.26461 6.0625,-2.59375 0.14583,0.0625 0.29167,0.125 0.4375,0.1875 z m -15.9375,9.5938 c 1.4808,0.21808 6.05204,8.88008 4.37089,7.41253 -0.97933,-0.8549 -5.30157,-5.72587 -4.65214,-7.41253 l 0.125,-0.0312 z m -2.5,3.8125 c 3.73291,1.22991 5.70471,4.97672 7.1875,8.34375 1.8317,3.66337 2.84058,6.21988 4.35678,10.02419 1.31997,5.37194 -0.40235,13.07544 -3.60678,18.13206 -0.3491,1.28982 -2.69811,0.89674 -2.5,-0.46875 -1.07668,-5.13342 -7.1806,-15.46576 -6.80847,-13.53032 0.26368,1.37141 -0.0185,0.84099 -0.0393,2.21534 -0.0736,4.8537 -1.04474,9.77413 -0.80843,14.62748 -1.39467,1.42881 -3.54749,1.05671 -5.34375,1 -1.06648,-3.06413 0.75536,-6.03852 1.96875,-8.75 0.89828,-1.95724 2.23881,-3.76792 2.6875,-5.875 0.4966,-2.33206 0.60606,-2.44855 -2.25,-0.0625 -4.04206,3.37688 -8.8539,9.28405 -11.6021,13.82921 -0.35241,1.07236 2.28114,1.00852 2.2698,-0.17358 0.53783,-3.03398 3.62356,-6.76087 6.11355,-8.28063 6.02012,-8.31599 1.15455,2.08202 0.3125,2.78125 -1.06618,2.15291 -1.90665,4.72312 -4.15625,5.9375 -2.90797,0.50542 -5.69029,-0.79613 -8.5,-1.3125 -0.95119,-0.96222 0.0902,-2.41425 1.125,-2.78125 1.69489,-1.34888 3.47351,-2.65461 4.78125,-4.40625 -0.24644,-1.28722 -0.50747,-0.18081 -3.10365,0.0897 -3.57526,0.37255 -6.68473,1.68899 -10.33385,1.31652 -1.24907,-1.81796 0.2328,-3.90125 1.03125,-5.65625 2.31694,-5.09263 6.07592,-4.31028 9.125,-2.53125 1.32321,-0.31713 1.3595,2.29946 0.0312,2 -1.46234,0.0286 -9.17737,-2.15331 -9.08694,-0.37253 3.35427,2.17997 12.2812,1.27372 15.99319,2.18503 1.11756,-0.48666 0.16258,-0.81254 -1.40718,-1.66027 -3.13455,-1.43675 -5.42954,-3.57949 -8.49907,-5.15223 0.0396,-2.83485 2.77863,-4.37959 4.24076,-6.48523 0.66782,-0.86496 1.52631,-2.38034 2.83352,-1.72401 1.14708,0.4667 1.94549,1.45188 2.86322,2.24049 3.46522,2.97768 -6.93954,-0.18214 -7.96782,1.2104 -0.80113,1.08491 7.70162,1.60569 8.68188,1.7271 0.94188,-0.005 1.9378,0.0479 2.78594,-0.4375 -0.75794,-1.64921 -1.66453,-2.90915 -2.84009,-3.98794 -0.8046,-0.65718 -1.59519,-1.35711 -2.12866,-2.26206 1.14666,-3.05881 5.63624,-3.69071 7.84375,-1.4375 4.37795,2.8066 8.4164,6.13832 12.0625,9.84375 1.5928,1.24685 1.92006,1.58323 1.75,0.28125 -1.05567,-6.77254 -4.5793,-12.93735 -9.0625,-18.03125 -1.17111,-0.13405 -1.429,-2.52706 0,-2.40625 z m -2.90625,2.96875 c 3.94555,1.67994 6.09328,5.64918 8.0625,9.21875 1.15083,0.74998 -0.4609,2.70618 -1.40625,1.71875 -3.52927,-1.94687 -6.86687,-4.21385 -10.34375,-6.25 -0.96656,-2.29877 1.38543,-4.80529 3.6875,-4.6875 z m 21.71875,8.03125 c 4.59477,6.53336 6.91193,14.88627 5.375,22.8125 -0.53136,1.09204 -0.66665,2.55973 -1.84375,3.1875 -1.46266,-0.12083 -1.85447,-1.94628 -1.5,-3.125 -0.60242,-7.58673 -1.26591,-15.17059 -2.25,-22.71875 0.0322,-0.079 0.11914,-0.18158 0.21875,-0.15625 z m 24.6875,7.75 c 0.96331,2.57161 -0.16622,5.25763 -0.84375,7.75 -0.56095,0.90002 -2.35486,-0.19661 -1.59375,-1.0625 0.82345,-2.35686 0.97587,-4.93881 2.1875,-7.15625 0.0833,0.15625 0.16667,0.3125 0.25,0.46875 z m -11.03125,5.875 c 1.21473,2.44744 0.75845,5.27385 0.25,7.84375 -0.94932,0.56323 -1.82737,-0.89166 -1.34375,-1.6875 -0.0458,-2.2048 -0.56096,-4.69573 0.8125,-6.625 0.0937,0.15625 0.1875,0.3125 0.28125,0.46875 z m -32,3.5625 c 2.81293,2.89758 4.08225,7.34366 2.75,11.21875 -1.50032,1.31149 -4.13903,-0.54758 -3.5,-2.40625 -0.2402,-2.91749 -0.63654,-6.01152 0.5625,-8.78125 l 0.0937,-0.0312 z m 9.21875,9.21875 c 0.47929,-2.07569 2.89496,-10.9306 3.59715,-14.33168 3.61246,8.41967 1.20253,14.29637 -3.59715,14.33168 z m -30.6875,-4.34375 c 9.5197,-3.39511 0.91002,1.87909 -0.4375,1.96875 -5.09379,0.33893 -0.58743,-2.0961 0.4375,-1.96875 z"
       id="path2926"
       inkscape:connector-curvature="0"
       sodipodi:nodetypes="csssscsscsssscsscssssscsssssssscsccssscssssscssscccsssssssssssccssaasssssssssssssscscsssssscccscscscssccsssssssssscsssccscsccsscssssssscssssssssssscssscssscssscscssssccscscssssssssssssssssssssssssssssssssssssccccsssssssssccsssssssssscsccscsssccsccssscscscsccssscssscsssssscsccsccccccc"
       inkscape:export-filename="C:\cygwin\home\karlin\git\pisces_dentata\assets\female_angler.png"
       inkscape:export-xdpi="90"
       inkscape:export-ydpi="90" />
    <path
       style="fill:#000000"
       d="m 50.315303,1041.3044 c -5.21453,-16.8808 -9.37344,-36.1863 -24.842057,-46.91426 -5.07048,-3.9453 -23.0144701,-12.709 -13.95491,-17.9359 10.05223,-0.3556 24.689767,3.2269 31.837687,-0.6236 1.04526,-10.576 1.64726,-21.1038 5.52145,-31.163 4.77225,-16.9644 15.90344,-32.1922 31.74289,-40.3193 14.62267,-9.32297 31.060447,-16.24521 48.461337,-17.7751 13.51572,-4.50794 20.1907,-19.58917 34.40943,-23.25355 16.15745,-6.56144 34.87676,-8.31732 51.6181,-3.09604 16.59894,7.31629 27.66504,22.65597 38.32153,36.67278 7.31222,10.25871 10.72135,23.05781 8.81555,35.56111 0.006,10.9675 5.80919,24.6766 -3.94049,33.1454 -16.11281,0.885 -8.8376,-22.474 0.23728,-28.3468 1.30452,-12.828 1.78471,-27.3194 -7.58957,-37.4838 -9.93602,-13.54956 -20.31487,-28.58435 -36.0546,-35.63525 -14.09499,-2.40519 -28.9958,1.13287 -41.88421,6.83893 -6.87361,4.10097 -21.97792,14.0739 -18.98698,19.90166 11.80726,3.91111 24.04763,10.01306 30.14469,21.42186 11.03031,10.4614 14.391,26.0495 12.24039,40.6472 0.35296,7.6885 -1.17438,24.6567 3.49612,26.2317 6.13123,-10.3508 5.33715,-23.7006 4.32651,-35.1499 -0.67046,-14.9278 7.54728,5.619 7.05284,10.4265 -0.99895,13.8699 10.48595,28.8088 -0.17599,40.7451 -16.29291,22.25476 -44.41472,29.30766 -69.79914,35.51516 -17.81913,6.1106 -37.04235,3.8397 -55.085127,0.088 -10.86606,0.8555 -18.95907,-18.5058 -27.73197,-9.8427 -3.32095,3.1048 -0.64518,29.784 -8.18076,20.3436 z m 4.26473,-15.6611 c 0.64104,-6.694 6.46233,-22.8575 12.3789,-9.8396 14.97074,14.7788 37.444347,15.4702 57.197037,15.4969 21.7935,-4.2501 43.24578,-10.68 63.67258,-19.3544 7.67026,-4.4147 16.19838,-10.9379 18.02542,-19.88156 -6.16061,-5.7533 -12.41265,-12.9897 -13.74886,-22.2036 -3.69763,-12.7989 3.53037,-25.9845 -1.45464,-38.574 -4.30583,-12.2095 -12.51864,-23.2829 -22.64582,-31.1608 -7.92125,-3.33761 -26.61504,-6.13563 -14.92123,-17.54831 7.48501,-11.87553 21.03121,-16.72658 34.0171,-19.72134 5.37546,-4.05397 -13.13939,0.18147 -16.90276,1.93373 -12.24721,4.21369 -23.51898,11.37488 -32.29487,20.92615 -13.26868,6.32254 -29.00688,5.2841 -41.573997,13.60377 -19.55042,8.9673 -38.69771,23.6069 -44.06173,45.5191 -5.25697,11.7445 -3.64466,25.082 -5.5509,36.5887 -10.0036,1.6453 -20.808197,-4.5042 -31.145157,-0.626 -3.57065,6.5666 18.72538,3.1343 15.34714,5.0936 -13.13067,4.3362 13.989307,-2.4628 9.795237,8.3923 -6.145107,6.12156 -0.34712,7.64176 5.38726,3.7577 2.06575,0.9076 -10.05272,9.44926 0.5177,10.67306 13.21154,-1.2619 -0.53203,22.6762 6.9936,21.3768 0.38789,-1.4696 0.6397,-2.9693 0.96799,-4.4522 z M 188.83929,929.00504 c 5.34026,-0.6254 -3.16153,3.692 0,0 z m 69.88943,32.8965 c 3.96472,-5.1491 2.59407,-26.3274 -4.66337,-12.9469 -3.43083,3.9233 -3.83874,18.376 4.66337,12.9469 z"
       id="path2928"
       inkscape:connector-curvature="0" />
    <path
       style="fill:#000000"
       d="m 209.80567,531.0727 c -15.19156,0.19627 -30.08888,3.62569 -43.35576,11.04181 -10.47948,4.59853 -19.04155,12.38674 -30.14424,15.73944 -12.99011,6.2768 -24.72768,15.08731 -36.03125,23.96875 -3.157696,3.05763 -5.275276,7.33373 -10.343746,7.5625 -9.70421,3.039 -19.149445,7.19322 -28.125005,11.75 -1.86313,3.01535 -3.0159,10.04674 1.875,10.375 2.53676,-0.55732 2.96017,-0.78978 1.65625,1.59375 0.21682,5.11094 7.90528,0.1553 8.03125,4.96875 1.17064,1.80297 3.33764,2.27758 3.125,4.71875 2.993485,5.7898 10.475825,3.8943 15.093755,1.59375 7.97104,-2.3669 14.899676,-7.82391 22.999996,-9.4375 3.65173,1.06241 6.2345,5.72497 10.8125,4.1875 12.11721,-2.3784 24.3065,-5.28221 35.83652,-9.86847 9.80499,-2.43709 20.13531,-5.17537 30.22598,-3.88153 3.73211,2.28704 7.97509,3.95973 12.15625,5.0625 18.01779,9.601 40.22883,4.95984 56.4375,-5.96875 5.07828,-3.54371 14.61568,-7.48783 12.21875,-15.34375 -1.33521,-4.04444 -6.7818,-4.544 -9.71875,-4.09375 3.27112,-2.88014 7.37549,-7.39166 4.1875,-11.875 -4.32477,-9.43801 -7.98055,-19.5794 -14.25,-27.875 -11.79823,-10.24413 -27.0618,-15.16355 -42.6875,-14.21875 z m 0.1875,5.6875 c 12.71605,-0.49425 26.22864,1.49127 35.73304,10.70737 8.26524,6.98038 11.13517,18.25973 16.64196,27.32388 2.7732,6.29716 -10.48356,7.93019 -7.1875,14.28125 2.91856,3.2084 8.88645,0.12872 11.5625,2 -1.38441,5.39348 -8.69663,6.2576 -12.84375,8.96875 -12.88702,7.17144 -29.12006,13.19781 -43.1395,5.85985 -11.37483,-6.18358 -24.50587,-10.2506 -37.45425,-6.92235 -14.01704,2.54809 -27.13798,8.66601 -40.59375,12.59375 -4.44428,0.99178 -9.60355,1.6245 -13.03125,-2 -8.93526,-4.14963 -17.98538,2.8095 -25.656246,6.59375 -2.40467,1.35218 -4.22662,2.30654 -2.9375,-1.0625 0.17158,-8.44863 -9.56947,-12.29029 -16.656255,-13.09375 8.187645,-4.09435 17.104915,-6.35205 25.218755,-10.3125 4.884216,-3.55092 7.333636,-9.75501 13.312956,-12.09851 11.22781,-7.4528 21.71184,-16.2883 34.68704,-20.55774 9.82379,-5.34978 18.99295,-12.08949 29.75,-16 10.2917,-4.75667 21.24356,-6.76 32.59375,-6.28125 z m 34.5625,32.0625 c -6.08117,0.67568 -6.9222,9.46597 -1.71875,12.0625 4.80562,3.12481 9.97363,-2.96068 7.75,-7.75 -0.59779,-2.62795 -3.32674,-4.63945 -6.03125,-4.3125 z"
       id="path2930"
       inkscape:connector-curvature="0"
       inkscape:export-filename="C:\cygwin\home\karlin\git\pisces_dentata\assets\male_angler.png"
       inkscape:export-xdpi="94.045204"
       inkscape:export-ydpi="94.045204" />
    <path
       style="fill:#000000"
       d="m 318.24486,956.4198 c -0.13517,-0.0449 -1.70827,-0.72116 -3.49577,-1.50287 -1.78751,-0.78171 -3.60715,-3.82362 -3.60715,-4.14074 0,-0.31713 1.95968,1.73651 3.60969,2.09886 l 2.74746,0.78518 c 0,0 0.95062,0.0605 0.89629,-1.34881 -0.0219,-0.56688 -1.4395,-3.05993 -1.4395,-3.05993 0,0 -0.46974,0.95333 -0.79383,1.5165 -0.98796,1.71678 -2.42057,3.20462 -2.42057,2.69727 0,-0.50734 1.30933,-3.11566 1.98366,-3.78999 l 1.22605,-1.22605 1.72624,2.27605 1.72624,2.27605 1.64533,-1.63334 1.64533,-1.63333 -1.16085,-2.16907 c -0.63847,-1.19299 -1.0199,-2.89316 -0.84762,-3.77814 0.17228,-0.88499 1.86106,-2.12991 3.75286,-2.76649 1.8918,-0.63658 3.57745,-1.57642 3.7459,-2.08852 0.16844,-0.51211 -1.7169,-1.76319 -4.18964,-2.78017 -2.47274,-1.01698 -4.48158,-2.14198 -4.46409,-2.5 0.0175,-0.35802 0.6925,-1.52445 1.5,-2.59207 0.80751,-1.06762 1.4682,-2.53012 1.4682,-3.25 0,-0.86611 -1.3898,-1.30887 -4.10841,-1.30887 l -4.10841,0 0.62746,-2.5 -0.25642,-2.75254 -1.38517,0.26784 c -1.24799,0.008 -2.849,0.38326 -3.55781,0.83297 l -1.28876,0.81766 1.014,2.66703 1.01401,2.66703 -3.10025,0 -3.10025,0 0.60734,3.25 0.60734,3.25 -1.48234,-1.94113 c -0.81529,-1.06762 -1.47983,-3.09262 -1.47676,-4.5 0.003,-1.40738 0.46021,-4.19565 1.01588,-6.19615 0.60625,-2.18264 2.77285,-5.26194 5.41752,-7.69971 l 4.40722,-4.06243 5.82691,-1.70222 5.8269,-1.70222 13.93411,0.1969 13.93411,0.1969 11.56589,3.0137 c 6.36124,1.65753 15.84089,4.31429 21.06589,5.90392 5.225,1.58962 12.33285,3.42577 15.79523,4.08033 l 6.29521,1.19012 18.70478,-0.5676 c 10.28762,-0.31217 20.50477,-1.07985 22.70477,-1.70594 2.2,-0.6261 8.96997,-3.32333 15.04438,-5.99385 6.07442,-2.67052 17.09942,-6.73486 24.5,-9.03187 l 13.45562,-4.17637 15.5,0.619 c 8.525,0.34046 18.875,1.3499 23,2.24322 4.125,0.89331 11.1,3.13935 15.5,4.9912 4.4,1.85185 11.15,4.93568 15,6.85297 3.85,1.91728 9.28798,5.62465 12.08441,8.2386 2.79642,2.61394 5.93612,6.10263 6.97711,7.75263 1.04099,1.65 3.5905,6.32785 5.66559,10.39521 2.07509,4.06737 3.77121,8.11737 3.76915,9 -0.002,0.88264 -0.93876,0.0298 -2.08158,-1.89521 -1.14281,-1.925 -4.79373,-6.12912 -8.11315,-9.3425 -3.97561,-3.84861 -8.78326,-7.17138 -14.08736,-9.73638 -4.42862,-2.14163 -9.66352,-4.16707 -11.63311,-4.50097 -1.96958,-0.3339 -6.28106,-1.43463 -9.58106,-2.44608 -3.3,-1.01145 -10.38374,-3.21864 -15.74165,-4.90487 -5.35791,-1.68623 -11.88291,-3.14133 -14.5,-3.23355 -2.61709,-0.0922 -7.45835,0.17488 -10.75835,0.59354 -3.3,0.41867 -7.4972,1.38491 -9.3271,2.1472 -1.82991,0.7623 -5.33997,2.74445 -7.80013,4.4048 -2.46017,1.66034 -4.60595,3.01881 -4.76841,3.01881 -0.16245,0 -5.69271,3.05181 -12.28947,6.78181 -6.59675,3.73 -14.87877,7.97648 -18.40449,9.43663 -3.52572,1.46015 -9.3354,3.79178 -12.9104,5.18141 -3.575,1.38963 -11.225,3.44179 -17,4.56035 -5.775,1.11856 -13.07575,2.03511 -16.22388,2.03677 -3.14813,0.002 -9.22313,-0.87466 -13.49999,-1.9474 -4.27687,-1.07274 -10.92612,-2.74447 -14.77612,-3.71496 l -7,-1.76452 -15.5,0.16115 -15.5,0.16115 -7.5,1.95976 c -4.125,1.07786 -10.9894,3.57708 -15.25423,5.5538 -4.26482,1.97673 -7.86482,3.55734 -8,3.51248 z m 95.34135,-6.99198 c 1.42292,0.0404 6.82292,-0.6016 12,-1.42677 5.17708,-0.82518 11.21287,-1.87849 13.41287,-2.34068 2.2,-0.4622 7.375,-2.05802 11.5,-3.54628 4.125,-1.48826 11.55,-4.67924 16.5,-7.09109 4.95,-2.41184 15.05172,-8.03396 22.44828,-12.49359 7.39655,-4.45964 15.27155,-8.51416 17.5,-9.01004 2.22844,-0.49588 7.42672,-1.19641 11.55172,-1.55673 l 7.5,-0.65513 6,1.54488 c 3.3,0.84969 12.975,3.57757 21.5,6.06197 8.525,2.48439 17.075,5.03703 19,5.67252 1.925,0.63549 4.85,2.1613 6.5,3.39068 1.65,1.22938 4.97085,3.23908 7.37967,4.466 l 8.06709,7.7619 -5.82152,-8.5282 c -1.14087,-1.67131 -4.2696,-4.75402 -6.87967,-6.9014 -2.61006,-2.14738 -6.09557,-4.82509 -7.74557,-5.95047 -1.65,-1.12537 -7.275,-3.83951 -12.5,-6.03142 -5.225,-2.19191 -10.4,-4.32471 -11.5,-4.73955 -1.1,-0.41485 -5.51601,-1.60899 -9.81335,-2.65366 l -7.81334,-1.89939 -15.49876,0 -15.49876,0 -5.18789,1.61188 c -2.85335,0.88653 -8.5629,2.73156 -12.6879,4.10005 -4.125,1.3685 -11.775,4.29283 -17,6.49851 -5.225,2.20567 -9.95,4.35731 -10.5,4.7814 -0.55,0.4241 -5.05,1.36983 -10,2.10162 -4.95,0.7318 -16.425,1.32699 -25.5,1.32265 l -16.5,-0.008 -9.49999,-2.67653 c -5.225,-1.47208 -13.55,-3.81513 -18.5,-5.20677 -4.95,-1.39164 -11.925,-3.15592 -15.5,-3.92063 -3.575,-0.76471 -8.975,-1.67858 -12,-2.03083 -3.025,-0.35226 -10.57225,-0.19213 -16.77167,0.35583 -6.95476,0.61472 -12.89107,1.72092 -15.5,2.88832 -2.32558,1.04062 -5.12834,2.91234 -6.22834,4.15939 l -2,2.26735 4.30731,-0.71976 c 2.63997,-0.44114 5.38251,-0.27439 7.08489,0.43075 1.52765,0.63278 4.36816,3.26419 6.31223,5.84758 1.94407,2.58339 3.97999,5.59708 4.52427,6.69708 0.54429,1.1 1.26295,3.44354 1.59703,5.20787 0.3625,1.91437 0.0106,4.63617 -0.87257,6.75 -0.81399,1.94817 -1.13645,3.53869 -0.71657,3.53449 0.41988,-0.004 3.63644,-0.88127 7.14791,-1.94905 l 6.3845,-1.94141 18.1155,-0.61126 18.11551,-0.61126 15.5,3.48676 c 8.52499,1.91772 16.6642,3.51986 18.08712,3.56031 z m -4.58713,-9.60028 c -3.85,0.30066 -7.89999,0.32164 -8.99999,0.0466 -1.1,-0.27502 -4.83809,-1.41661 -8.30687,-2.53687 -3.46878,-1.12026 -7.47199,-3.11663 -8.89603,-4.43638 l -2.58915,-2.39954 1.58932,0 c 0.87413,0 2.28984,-1.00013 3.14603,-2.22251 l 1.5567,-2.2225 0,1.65107 c 0,0.9081 -0.70844,2.35952 -1.5743,3.22538 l -1.5743,1.5743 1.61154,0.61841 c 0.88635,0.34013 2.41772,-0.11116 3.40305,-1.00287 0.98532,-0.8917 2.33609,-1.62128 3.00171,-1.62128 0.68352,0 0.29661,0.9792 -0.88906,2.25 l -2.09926,2.25 3.56809,0.85118 3.56809,0.85118 1.90614,-2.35118 c 1.04838,-1.29315 2.25523,-2.00333 2.68189,-1.57818 0.42666,0.42515 -0.21713,1.46844 -1.43065,2.31842 -1.21352,0.84998 -1.98324,1.90651 -1.71048,2.34784 0.27276,0.44133 1.93555,1.09034 3.6951,1.44225 1.75955,0.35191 8.07195,0.11134 14.02758,-0.53461 l 10.82841,-1.17444 -1.66732,-1.84236 c -0.91702,-1.0133 -1.42137,-2.0883 -1.12078,-2.38889 0.30059,-0.3006 1.4501,0.60216 2.55446,2.00613 1.10435,1.40396 2.69385,2.55266 3.53221,2.55266 0.83836,0 2.27627,-0.28856 3.19536,-0.64125 l 1.67107,-0.64125 -2.83928,-2.26911 c -1.56161,-1.24802 -2.6114,-2.49983 -2.33289,-2.78182 0.27852,-0.28198 2.07564,0.76806 3.99361,2.33343 1.91797,1.56537 3.15331,3.18002 2.7452,3.58813 -0.4081,0.4081 -4.90522,1.06812 -9.9936,1.46669 -5.08838,0.39858 -12.4016,0.97069 -16.2516,1.27135 z m -1.66395,-0.78835 c -0.26278,1.02092 -0.78252,0.82544 -0.84632,0.18293 -0.0638,-0.64252 -0.28096,-3.38148 -0.63691,-4.38896 l -0.64718,-1.83179 1.24096,1.14378 c 0.68253,0.62908 1.15223,3.87312 0.88945,4.89404 z m 8.53889,-0.44301 c -0.23588,0.23588 -0.81605,0.69092 -1.19106,-3.59059 -0.13206,-1.50779 -0.73097,-2.50423 -0.22983,-2.50423 0.50115,0 1.20759,0.93391 1.56987,2.07536 0.36228,1.14145 0.0869,3.78358 -0.14898,4.01946 z m -84.31591,-18.09482 c -0.51754,0 -1.18996,-0.40285 -1.49426,-0.89522 -0.3043,-0.49236 0.11914,-1.15324 0.94098,-1.46861 0.90766,-0.3483 1.49426,0.003 1.49426,0.89521 0,0.80774 -0.42344,1.46862 -0.94098,1.46862 z m -4.92212,26.07927 c 1.0247,-1.26546 1.8631,-2.92599 1.8631,-3.69005 0,-0.76407 -0.25458,-1.38922 -0.56574,-1.38922 -0.31116,0 -1.54866,0.51095 -2.75,1.13545 -1.20134,0.6245 -2.33322,1.26096 -2.51528,1.41436 -0.18206,0.15339 0.21704,1.30296 0.8869,2.55459 l 1.21791,2.2757 z m 1.6131,-10.11931 c 0.1375,0.022 0.25,-0.58511 0.25,-1.34918 0,-0.76407 -0.8384,-2.42459 -1.8631,-3.69005 l -1.86311,-2.30083 -1.15102,2.15071 -1.15103,2.15071 2.76413,1.4993 c 1.52027,0.82462 2.87663,1.51732 3.01413,1.53934 z m -18.85597,-8.95996 c 0.55,0 0.23105,-0.94689 -0.15174,-2.12373 l -0.77291,-2.37627 -0.96937,1.5 c -0.53316,0.825 -0.97627,1.8375 -0.98469,2.25 -0.008,0.4125 1.69738,0.49746 2.24738,0.49746 z m 10.10597,-2 c 1.09885,0.0503 2,-0.15526 2,-0.34501 0,-0.18976 -0.9,-1.1595 -2,-2.15499 l -2.75761,-1.93625 0.12626,2.28126 -0.12626,2.02872 z"
       id="path2959"
       inkscape:connector-curvature="0"
       sodipodi:nodetypes="cssccscssscccccssscscsssccccscccccccscsscccccssscsssscssssssscssssssssssssssscsscccsscccssssssscssssscsssssscccsssssscssssssscsssssccscccsccccsscsscsscsssscccsssssscscssscscsssccssscsscssscssssssssscscscsscccsccscscccssscccs"
       inkscape:export-filename="C:\cygwin\home\karlin\git\pisces_dentata\assets\eel.png"
       inkscape:export-xdpi="90"
       inkscape:export-ydpi="90" />
    <path
       style="fill:#000000"
       d="m 429.74985,539.75917 c 6.83081,-2.72425 9.23323,-5.18499 11.04026,-5.85232 3.47457,-1.28315 11.65536,-7.38072 12.28661,-9.15785 0.42518,-1.19701 1.0943,-1.78592 2.02916,-1.78592 0.76713,0 2.25591,-0.50868 3.30838,-1.13039 1.67616,-0.99013 1.98953,-1.01027 2.52561,-0.16235 0.33661,0.53241 0.65039,2.42924 0.6973,4.21516 3.24365,22.09991 12.05751,7.97461 15.16367,4.67588 0.60613,-0.60613 -2.80336,-5.8232 -3.40949,-6.42933 -1.14636,-1.14636 -0.94835,-2.98661 0.35718,-3.31959 0.62508,-0.15943 3.62056,-0.33393 6.65663,-0.3878 4.90102,-0.0869 7.3033,-0.46981 16.23568,-2.58762 3.85436,-0.91384 7.95874,-2.75938 11.68969,-5.25627 6.37047,-4.26338 7.47005,-5.37487 9.36718,-1.70356 2.78452,5.38855 11.52613,6.2669 12.94782,4.55388 1.16275,-0.94281 2.50276,-2.0342 3.10609,-3.31637 3.07954,-5.53191 10.15553,-5.7565 8.71383,-10.23384 -4.08939,-1.46715 -12.34576,0.34202 -16.72901,0.30053 -2.66232,0 -2.80097,-1.25008 -0.62038,-5.59351 2.58233,-5.14367 5.94442,-15.17903 5.94442,-17.74328 0,-1.14194 0.35494,-2.71458 0.78876,-3.49476 0.76722,-1.37976 1.10912,-3.50387 1.1345,-7.04832 0.007,-0.95328 0.46759,-2.18841 1.02391,-2.74473 0.76887,-0.76887 0.84827,-1.31649 0.33102,-2.28299 -1.06877,-1.99701 -0.81739,-3.32811 1.10318,-5.84157 0.98102,-1.28386 1.69943,-2.59006 1.59647,-2.90265 -0.10295,-0.3126 0.25291,-1.05466 0.79081,-1.64903 0.5379,-0.59437 2.03097,-3.11492 3.31794,-5.60121 1.28697,-2.48628 2.85295,-5.04509 3.47996,-5.68622 1.25947,-1.28783 5.99237,-1.86314 8.35161,-1.0152 2.52297,0.90679 13.47864,1.65332 8.83439,-3.79861 -0.89604,-1.05187 0.28599,-4.14732 0.60471,-4.88221 4.35999,-10.05303 -4.62252,-1.11119 -8.62229,-1.74347 -3.01934,-0.47729 -3.55011,-0.3735 -5.20308,1.01738 -1.20654,1.01524 -2.92165,1.64485 -4.97798,1.8274 -5.68297,0.50452 -7.42072,0.92605 -9.83884,2.38665 -5.21547,3.15025 -6.95814,5.17182 -9.57545,11.10796 -1.51471,3.4354 -2.49573,3.1189 -2.01293,-0.64942 0.37406,-2.91965 0.34526,-2.99788 -0.53814,-1.46122 -1.29177,2.24702 -1.20202,3.63856 0.32653,5.06261 l 1.30591,1.21665 -1.30591,1.50573 c -0.79111,0.91216 -1.30592,2.43364 -1.30592,3.85957 0,1.29461 -0.42183,2.95609 -0.93741,3.69217 -0.51557,0.73609 -1.8639,4.81945 -2.9963,9.07413 -1.13239,4.25468 -2.50929,8.61251 -3.05977,9.68407 -2.23268,4.34609 -6.95818,10.06612 -8.31593,10.06612 -0.42198,0 -1.11361,0.41736 -1.53697,0.92748 -0.95872,1.15519 -11.61381,5.06483 -12.42949,4.56072 -0.99129,-0.61265 -0.675,-2.11333 0.63946,-3.03401 1.47736,-1.03479 1.69849,-2.07319 1.04124,-4.88954 -0.59019,-2.52904 -1.05501,-2.63806 -2.05501,-0.48201 -0.61385,1.32348 -0.58014,1.6185 0.18495,1.6185 0.52244,0 -0.0781,0.89011 -1.35996,2.01555 -2.67751,2.3509 -2.83464,2.9857 -0.83438,3.37097 1.45963,0.28114 1.45957,0.28153 -0.0608,0.36988 -1.00378,0.0583 -1.63366,-0.33851 -1.84991,-1.16547 -0.19389,-0.74143 -0.69766,-1.11204 -1.23258,-0.90677 -1.27312,0.48855 -1.92817,-1.65474 -0.97312,-3.18399 0.98082,-1.57054 0.54821,-2.19867 -0.57891,-0.84058 -1.21205,1.46045 -2.16635,1.20268 -1.74509,-0.47137 0.33417,-1.32796 0.2196,-1.29152 -1.25641,0.39964 -0.89327,1.02348 -1.82588,1.6591 -2.07248,1.41251 -0.2466,-0.2466 0.0215,-0.71128 0.59568,-1.03263 1.13983,-0.63788 4.1252,-7.01856 3.55201,-7.59175 -0.67174,-0.67174 -2.19533,1.1795 -3.53642,4.29695 -1.61987,3.76549 -3.0541,5.17502 -4.15027,4.07885 -0.56945,-0.56943 -0.55718,-0.75179 0.0506,-0.75179 0.87991,0 3.35394,-5.25337 3.35394,-7.12179 0,-1.42967 -2.00962,-2.05807 -3.37914,-1.05665 -0.55197,0.40361 -1.20574,2.20367 -1.45281,4.00013 -0.24708,1.79646 -0.72177,3.69068 -1.05487,4.20937 -0.55961,0.87141 -0.28897,-2.14267 0.39452,-4.39389 0.13209,-0.43504 -0.0184,-0.9508 -0.33448,-1.14613 -0.31605,-0.19533 -0.70185,0.30673 -0.85733,1.1157 -0.24905,1.29572 -0.29324,1.26204 -0.37115,-0.28281 -0.0486,-0.96451 0.32378,-1.98736 0.8276,-2.273 0.76959,-0.43632 0.72203,-0.88271 -0.29749,-2.79233 -1.35417,-2.53642 -1.46693,-2.18547 -1.28453,3.99795 0.13075,4.4326 -0.4477,6.2725 -2.77552,8.82823 -1.93219,2.12137 -7.23115,1.96849 -15.34781,-0.44278 -7.64052,-2.26982 -15.13875,-2.76306 -17.617,-1.15886 -0.87185,0.56435 -2.82721,1.4094 -4.34524,1.87788 -1.51804,0.46848 -2.76007,1.04904 -2.76007,1.29012 0,0.24109 -1.09591,1.10605 -2.43535,1.92216 -3.94239,2.40203 -9.90376,7.90925 -9.90376,9.14927 0,1.33001 3.69939,3.81344 9.7414,6.53949 2.32171,1.04751 5.44728,2.45804 6.94572,3.13451 1.49843,0.67646 3.10577,1.23441 3.57185,1.23988 0.46607,0.005 1.28577,0.31686 1.82155,0.69197 0.76258,0.5339 0.6568,0.59276 -0.48707,0.27101 -1.21675,-0.34226 -1.46121,-0.15625 -1.46121,1.11181 0,3.98655 -4.20415,5.87671 -6.22185,2.7973 -1.00906,-1.54001 -0.97761,-1.70584 0.70204,-3.702 1.6297,-1.93679 1.67028,-2.1214 0.55433,-2.52191 -0.88358,-0.31713 -1.34214,-0.0412 -1.72278,1.03682 -0.28528,0.80793 -1.10279,1.62171 -1.81668,1.8084 -1.25583,0.32841 -1.26273,0.42024 -0.21249,2.82754 1.8803,4.30992 1.80808,4.87902 -1.05742,8.33295 -1.48167,1.78592 -3.09884,3.34079 -3.59371,3.45527 -0.49487,0.11448 -2.46657,-1.27367 -4.38155,-3.08477 -1.91497,-1.81111 -3.66284,-3.29292 -3.88415,-3.29292 -0.36848,0 1.15331,2.90255 6.39092,12.18958 1.21121,2.14766 2.50028,3.57122 3.461,3.82211 1.64169,0.42871 2.90961,-0.76485 2.37123,-2.23216 -0.16802,-0.45791 0.35848,-1.08501 1.17001,-1.39356 0.81152,-0.30853 1.88047,-1.04895 2.37545,-1.64536 0.77231,-0.93058 0.74549,-1.34587 -0.18905,-2.92792 -1.4431,-2.44298 -1.37733,-3.07951 0.17323,-1.67628 0.69423,0.62827 1.35177,1.89306 1.46121,2.81064 0.29525,2.4755 1.43709,2.43807 4.29149,-0.14071 1.40755,-1.27164 3.12479,-2.31207 3.81608,-2.31207 0.69129,0 2.63558,-1.28389 4.32064,-2.8531 1.86748,-1.73908 3.94512,-3.01844 5.32102,-3.27656 1.2415,-0.23291 2.25728,-0.66272 2.25728,-0.95515 0,-0.71008 -3.97486,-3.36706 -8.76727,-5.86045 -2.14311,-1.11502 -3.16595,-1.84047 -2.27299,-1.61212 4.09434,1.047 12.20703,6.70063 11.42674,7.96317 -0.39772,0.64353 -2.68832,2.28742 -8.73589,6.26949 -0.54246,0.35719 -1.69616,1.46275 -2.56379,2.45681 -0.86762,0.99407 -2.96401,2.66524 -4.26177,3.31686 -1.29776,0.65162 -3.37703,1.63163 -5.01746,2.57467 -1.64044,0.94304 -4.31152,1.89677 -5.93573,2.1194 l -2.95311,0.40476 -3.84033,-6.46085 c -5.37422,-9.04141 -5.35102,-11.00632 -6.21064,-13.23148 2.37612,1.43926 2.52495,1.46636 5.22461,4.13785 2.06081,2.03931 4.06975,3.70784 4.46431,3.70784 0.94146,0 5.41461,-4.96463 5.41419,-6.00907 -1.8e-4,-0.44545 -0.5905,-2.36266 -1.31181,-4.26046 -1.41263,-3.71669 -1.26985,-4.66729 0.70104,-4.66729 1.53973,0 1.66493,-1.18443 0.18523,-1.75225 -0.69774,-0.26775 -1.51549,0.13845 -2.32898,1.15688 -2.7237,3.40986 -3.86078,4.20781 -5.7131,4.85723 0.0388,-0.97414 0.1433,-1.09668 0.7095,-4.51525 0.43892,-2.65009 1.25934,-3.19122 0.60966,-3.97404 -1.40262,-1.69005 -2.95804,-1.05798 -5.20914,2.11679 -1.20302,1.69663 -1.70943,2.71643 -4.34095,3.56959 0.10552,-2.93603 0.69349,-2.82573 1.59971,-5.11198 0.37227,-0.93918 0.80142,-1.90769 0.78877,-2.35417 -0.0127,-0.44648 -0.44067,-0.0812 -0.95113,0.81178 -0.58976,1.03168 -0.93651,1.25632 -0.95112,0.6162 -0.0672,-2.94265 8.55213,-13.04252 13.79984,-16.17018 1.77613,-1.05858 2.3575,-1.78119 2.09598,-2.60518 -0.45734,-1.44094 0.56369,-2.27246 4.06752,-3.31259 3.00702,-0.89265 5.01948,-3.16277 10.45456,-11.79304 3.5433,-5.62637 6.60343,-7.91148 11.9442,-8.91921 3.67886,-0.69416 4.42954,-0.63726 7.63628,0.57879 6.16002,2.33598 8.63472,4.08138 10.39854,7.33405 2.04542,3.77201 2.28353,4.0092 3.34307,3.33038 0.47024,-0.30127 2.17008,-0.90212 3.77741,-1.33522 8.161,-2.199 11.77938,-0.094 15.31078,8.90692 1.45285,3.70305 1.61906,4.67341 0.94057,5.49095 -0.70041,0.84394 -0.59283,0.99088 0.7166,0.97877 3.8583,-0.0357 10.9072,-4.80469 14.26984,-9.65435 2.65427,-3.82803 3.55994,-6.07853 5.77904,-14.36019 0.81352,-3.03607 1.85357,-6.39686 2.31122,-7.46841 0.45765,-1.07156 0.95139,-5.03719 1.0972,-8.81251 0.25165,-6.51595 0.37561,-7.02668 2.44308,-10.06612 4.30934,-6.33529 6.57919,-8.59058 11.67391,-11.59902 6.26289,-3.69827 8.66053,-3.8469 8.97861,-0.5566 0.19016,1.96709 0.32028,2.06422 2.27299,1.69678 1.13922,-0.21436 2.50966,-0.73389 3.04543,-1.1545 0.53578,-0.42061 3.17009,-1.85634 5.85402,-3.1905 5.58892,-2.77822 8.9623,-3.5476 9.87274,-2.25172 1.13282,0.14205 0.9986,-0.34828 1.99623,-0.31727 0.39982,0.2471 1.59576,0.54439 2.65765,0.66064 1.06188,0.11625 2.06099,0.34166 2.22023,0.50091 0.68191,0.6819 -0.64328,2.35515 -3.08703,3.89781 -1.4458,0.9127 -2.62996,2.16721 -2.63147,2.78781 1.5072,3.96476 7.10324,4.97057 7.78592,9.28816 -1.29112,1.79213 -0.7317,1.767 -2.60367,2.56235 -2.17811,0.9022 -11.65814,-0.0657 -16.37063,-1.67139 -3.24906,-1.10706 -7.72423,-1.04227 -8.1045,0.11734 -0.13086,0.39904 0.65021,0.90315 1.73572,1.12026 1.57934,0.31587 1.97365,0.72555 1.97365,2.0506 0,1.13672 -0.47464,1.83634 -1.51389,2.23146 -2.18659,0.83134 -13.42338,12.136 -13.42051,13.50156 0.001,0.63374 0.58582,2.1091 1.29886,3.27858 0.71303,1.16949 1.29642,2.54093 1.29642,3.04766 0,0.87386 -1.55432,3.91738 -3.82506,7.48984 -0.56759,0.89296 -1.07996,2.64641 -1.1386,3.89656 -0.12761,2.72052 -2.08,8.74117 -5.22854,16.12343 -1.29862,3.04481 -2.05878,5.6463 -1.73962,5.95352 0.31177,0.30011 4.26539,0.23573 8.78584,-0.14307 4.52045,-0.3788 8.6849,-0.50994 9.25434,-0.29143 2.70982,1.03986 -0.81451,7.0991 -5.45893,9.38531 -2.03239,1.00044 -2.27299,1.39384 -2.27299,3.71658 0,2.27805 -0.19979,2.62535 -1.62357,2.8223 -0.89296,0.12352 -1.91581,0.43389 -2.273,0.6897 -0.35718,0.25581 -1.96451,0.35504 -3.57185,0.22049 -1.60733,-0.13454 -3.92352,-0.24293 -5.14709,-0.24085 -2.61859,0.005 -5.81278,-2.39282 -7.02468,-5.27207 l -0.80679,-1.91681 -2.11563,1.32907 c -5.50956,3.46118 -10.12893,5.94002 -11.06933,5.94002 -0.56967,0 -1.21638,0.29225 -1.43713,0.64943 -0.22075,0.35719 -1.38972,0.64943 -2.59771,0.64943 -1.20798,0 -2.35826,0.26199 -2.55616,0.5822 -0.48162,0.77928 -7.04983,1.83226 -14.82587,2.37678 -3.48798,0.24425 -6.45916,0.63403 -6.60264,0.86616 1.3839,3.30545 3.81273,5.28283 5.476,8.62527 0,2.21271 -10.22691,9.63011 -13.27773,9.63011 -4.52361,-2.41117 -4.82808,-19.59533 -7.04456,-17.60425 -0.39553,0.39553 -1.55263,0.71915 -2.57133,0.71915 -1.43382,0 -1.99546,0.40339 -2.48654,1.78592 -0.65934,1.85622 -7.96194,7.19273 -13.58547,9.92782 -1.60733,0.78176 -3.5069,1.9342 -4.22127,2.56099 -1.8359,1.61082 -12.33912,3.64765 -12.33912,3.17079 z m 4.4161,-21.47197 c 1.10471,-1.1047 0.96586,-3.08643 -0.24891,-3.55258 -0.59873,-0.22975 -1.59366,0.17087 -2.3819,0.95912 -1.13018,1.13017 -1.21534,1.52036 -0.51583,2.36322 1.00367,1.20936 2.08817,1.28871 3.14664,0.23024 z m -10.69488,-4.50818 c 1.36868,-1.79588 2.29655,-3.4572 2.06194,-3.69181 -0.23462,-0.23461 -0.67689,0.009 -0.98283,0.54216 -0.30594,0.53281 -1.02976,1.55322 -1.60848,2.26759 -1.02909,1.27029 -1.04386,1.26315 -0.67158,-0.32472 0.2991,-1.27572 0.10343,-1.13658 -0.91329,0.64943 -1.44722,2.54224 -0.28888,1.15785 -1.19399,3.80829 1.5486,-1.48646 1.6624,-1.09139 3.30823,-3.25094 z m -8.79546,-2.54745 c 1.17457,-1.7961 2.78191,-3.52577 3.57185,-3.84373 l 1.43627,-0.57811 -1.40503,-0.0412 c -0.9355,-0.0274 -2.06696,0.8812 -3.38578,2.7189 -1.08942,1.51804 -1.7966,2.66656 -2.16682,3.09796 -0.79338,0.92449 -1.35211,2.67031 -0.79491,1.80167 0.87673,-0.77769 1.56985,-1.35943 2.74442,-3.15553 z m 7.67077,-2.29612 c -0.23113,-0.6023 -0.56635,-0.94898 -0.74495,-0.77039 -0.17859,0.1786 -0.1356,0.81752 0.0955,1.41982 0.23112,0.6023 0.56635,0.94898 0.74495,0.77039 0.17859,-0.17859 0.1356,-0.81751 -0.0955,-1.41982 z m -7.53336,-3.18219 c 0.44466,-0.53578 0.66235,-0.97414 0.48375,-0.97414 -0.17859,0 -0.68852,0.43836 -1.13317,0.97414 -0.44466,0.53578 -0.66235,0.97414 -0.48376,0.97414 0.1786,0 0.68853,-0.43836 1.13318,-0.97414 z m 53.29962,-16.28527 c 1.32576,-1.4112 1.60621,-2.45337 1.79134,-6.65662 0.19199,-4.35883 0.0289,-5.26837 -1.30131,-7.25646 -1.67355,-2.50129 -6.53136,-5.16491 -10.35488,-5.67775 -3.13248,-0.42015 -8.81878,1.50256 -10.81651,3.65739 -0.86461,0.9326 -2.37034,2.86461 -3.34606,4.29335 -0.97572,1.42874 -2.55464,3.7344 -3.50872,5.12369 -0.95407,1.38929 -1.73467,2.88691 -1.73467,3.32805 0,0.54411 1.72321,0.91178 5.35777,1.14317 3.18915,0.20303 7.32925,1.00799 10.22848,1.98873 2.7714,0.9375 6.43137,1.66532 8.4917,1.68863 3.08052,0.0349 3.85562,-0.20876 5.19286,-1.63218 z m -35.35369,-1.37904 c -0.3672,-0.36721 -4.30796,1.22236 -4.30796,1.73768 0,0.27869 1.01447,0.0469 2.25437,-0.5151 1.23991,-0.562 2.16402,-1.11216 2.05359,-1.22258 z m 54.54636,1.25183 c 2.31349,-1.88102 3.79634,-4.64801 2.9464,-5.49795 -0.55021,-0.55021 -1.17824,-0.33569 -2.47426,0.84512 -0.95529,0.87038 -1.49679,1.14414 -1.20333,0.60836 0.29345,-0.53578 0.28592,-0.749 -0.0168,-0.47384 -0.30267,0.27516 -0.61783,1.00577 -0.70037,1.62357 -0.0825,0.6178 -0.3542,1.78081 -0.6037,2.58447 -0.54,1.73941 0.16349,1.84578 2.05201,0.31027 z m -51.71656,-2.41375 c 0.44139,-0.53184 1.01893,-0.83325 1.28342,-0.66979 0.26447,0.16346 0.8071,-0.41881 1.20583,-1.29392 0.39873,-0.87512 2.67716,-4.21518 5.06318,-7.42236 4.95207,-6.65636 8.05426,-8.6583 13.55989,-8.7506 4.26976,-0.0716 10.41574,2.91716 12.57497,6.11512 1.13046,1.6743 1.41149,1.8667 1.06692,0.73045 -0.36467,-1.2025 -0.2735,-1.42334 0.41358,-1.00182 0.63853,0.39174 0.59898,0.10102 -0.14353,-1.05517 -1.33828,-2.0839 -9.21274,-5.91216 -12.9378,-6.28986 -6.17432,-0.62605 -11.92926,2.9112 -15.23012,9.36109 -1.31395,2.56747 -4.80414,7.2432 -7.30223,9.78264 -0.79058,0.80367 -1.19424,1.46121 -0.89702,1.46121 0.29721,0 0.90153,-0.43514 1.34291,-0.96699 z m 51.96011,-5.32407 c 0,-1.57068 -1.90393,-0.87392 -2.90575,1.06339 -1.5577,3.01226 -1.16578,3.69003 0.95747,1.65582 1.07155,-1.02661 1.94828,-2.25026 1.94828,-2.71921 z m -1.62357,-2.3237 c 0,-0.28853 0.41551,-0.78139 0.92336,-1.09526 1.49629,-0.92476 -3.96478,-2.14919 -6.04986,-1.35644 -1.52061,0.57813 -1.60957,0.79649 -0.93115,2.28545 0.70975,1.55773 0.81503,1.58748 1.958,0.5531 1.78306,-1.61364 2.97807,-0.24835 1.92832,2.20309 l -0.7723,1.80354 1.47182,-1.93444 c 0.80949,-1.06395 1.47181,-2.17051 1.47181,-2.45904 z m 3.57185,2.37572 c 0,-0.49756 0.3166,-0.90466 0.70354,-0.90466 0.38696,0 0.58179,-0.3653 0.43296,-0.81178 -0.52149,-1.56447 -2.06141,-0.79215 -2.47755,1.24258 -0.32268,1.57773 -0.21586,1.97596 0.46044,1.71644 0.48434,-0.18586 0.88061,-0.74501 0.88061,-1.24258 z m 36.5733,-40.7128 c -0.18835,-0.30476 -0.91102,0.0562 -1.60591,0.80204 -0.69489,0.74588 -1.06059,1.68436 -0.81267,2.08551 0.29444,0.47642 0.85137,0.19828 1.60591,-0.80204 0.63532,-0.84227 1.00102,-1.78075 0.81267,-2.08551 z m 12.74881,-11.39981 c -1.06247,-0.35416 -2.14338,0.95483 -1.56338,1.89329 0.36917,0.59734 0.72816,0.48845 1.39462,-0.42299 0.62414,-0.85356 0.67554,-1.30138 0.16876,-1.4703 z M 423.68853,538.7658 c -0.23813,-0.23812 -0.43295,-0.85838 -0.43295,-1.37837 0,-0.76674 0.1841,-0.79262 0.97414,-0.13696 0.53577,0.44466 0.97414,1.06493 0.97414,1.37838 0,0.67249 -0.89858,0.75371 -1.51533,0.13695 z m 11.65471,-12.80843 c 0.25866,-2.68542 1.17127,-4.23923 2.00197,-3.40853 0.26032,0.26032 0.10225,1.06746 -0.35126,1.79365 -0.71998,1.15289 -0.65509,1.36467 0.51165,1.66978 1.96687,0.51434 1.62539,1.95637 -0.53848,2.27395 -1.83298,0.26903 -1.86912,0.2172 -1.62388,-2.32885 z m -7.83865,1.59657 c -0.20551,-0.3325 -0.10725,-0.76918 0.21833,-0.97041 0.32558,-0.20122 0.75954,0.0708 0.96435,0.60455 0.40375,1.05216 -0.57199,1.35399 -1.18268,0.36586 z m 45.32554,-17.29834 c -0.46869,-1.2214 0.68057,-2.55333 1.6736,-1.9396 1.07045,0.66157 0.84649,2.95739 -0.28851,2.95739 -0.54699,0 -1.17028,-0.45801 -1.38509,-1.01779 z m 9.52331,-0.60578 c 0,-0.53577 0.43837,-0.97414 0.97414,-0.97414 0.53578,0 0.97414,0.43837 0.97414,0.97414 0,0.53578 -0.43836,0.97414 -0.97414,0.97414 -0.53577,0 -0.97414,-0.43836 -0.97414,-0.97414 z m -18.54364,-0.3813 c -0.56674,-0.917 0.68495,-2.16869 1.60195,-1.60195 1.03001,0.63657 0.86359,2.30797 -0.2298,2.30797 -0.51469,0 -1.13216,-0.31771 -1.37215,-0.70602 z m 26.66148,0.0566 c -0.54359,-0.87956 0.18991,-1.94828 1.33719,-1.94828 0.51469,0 0.93581,0.58448 0.93581,1.29885 0,1.34452 -1.56675,1.79216 -2.273,0.64943 z m 8.57212,-3.46838 c -0.18376,-0.47888 -0.0811,-1.2801 0.22819,-1.7805 0.75783,-1.22619 2.24516,0.20525 1.69714,1.63338 -0.47857,1.24712 -1.47403,1.32319 -1.92533,0.14712 z m -65.86663,-2.35875 c -2.45918,-1.49942 -3.23397,-3.84213 -2.1423,-6.47764 1.11372,-2.68874 2.72663,-3.93434 5.61617,-4.33716 1.89111,-0.26365 2.27398,-0.17858 1.54176,0.34252 -0.53578,0.3813 -1.76753,0.69775 -2.73722,0.70322 -1.0913,0.006 -2.02793,0.50483 -2.4582,1.30879 -0.38232,0.71437 -0.43313,1.29886 -0.11291,1.29886 0.32023,0 0.43668,0.80366 0.25879,1.78592 -0.17789,0.98226 -0.12086,1.59895 0.12673,1.37042 0.24759,-0.22853 0.52503,-1.11762 0.61652,-1.97576 0.0915,-0.85813 0.38448,-1.91318 0.65107,-2.34455 0.70668,-1.14343 4.33401,-0.95905 5.71472,0.29048 1.07689,0.97458 1.18763,0.97758 1.18763,0.0323 0,-0.57339 -0.51142,-1.34041 -1.13649,-1.70448 -0.6489,-0.37794 -0.78412,-0.67042 -0.31517,-0.68169 1.16284,-0.028 3.39463,3.87023 3.39752,5.93433 0.004,2.61292 -0.61794,3.73894 -2.64173,4.78549 -2.51372,1.29988 -5.07589,1.18781 -7.56689,-0.33103 z m 2.74263,-0.48481 c -2.1377,-0.52078 -3.57184,-2.21432 -3.57184,-4.21787 0,-1.09194 -0.27343,-1.71698 -0.64943,-1.48459 -2.16198,1.33617 0.92496,6.22584 3.84741,6.09422 1.34616,-0.0606 1.41915,-0.13711 0.37386,-0.39176 z m 5.63136,-0.6077 c 0.68593,-0.62077 1.17215,-1.92387 1.15098,-3.08478 l -0.0366,-2.00998 -0.77513,2.25606 c -0.42682,1.24228 -1.50469,2.62415 -2.3987,3.07521 -1.34872,0.68047 -1.41235,0.82076 -0.37585,0.82871 0.68624,0.005 1.78215,-0.47408 2.43535,-1.06522 z m -0.11123,-3.8386 c 0,-0.96311 -1.42801,-2.87656 -1.91989,-2.57256 -0.84343,0.52127 -0.003,2.93997 1.0215,2.93997 0.49411,0 0.89839,-0.16534 0.89839,-0.36741 z m -5.52013,-2.87973 c 0.22076,-0.35718 0.10913,-0.64943 -0.24806,-0.64943 -0.35718,0 -0.83004,0.29225 -1.05079,0.64943 -0.22075,0.35719 -0.10912,0.64943 0.24806,0.64943 0.35719,0 0.83004,-0.29224 1.05079,-0.64943 z m 38.29862,8.41411 c -0.60861,-0.98476 1.041,-2.77976 1.82975,-1.99102 0.72833,0.72834 0.1617,2.66889 -0.77932,2.66889 -0.34731,0 -0.82,-0.30504 -1.05043,-0.67787 z m -8.31673,-1.05394 c -0.89398,-0.89397 -0.38567,-2.16475 0.8659,-2.16475 0.8659,0 1.29886,0.43295 1.29886,1.29885 0,1.25157 -1.27078,1.75988 -2.16476,0.8659 z m 17.75101,-1.1365 c 0,-0.56554 0.46271,-1.02825 1.02825,-1.02825 1.14685,0 0.94712,1.39806 -0.25706,1.79945 -0.42416,0.14139 -0.77119,-0.20565 -0.77119,-0.7712 z m 7.79312,-0.32471 c 0,-0.79771 0.41933,-1.35297 1.02176,-1.35297 0.60477,0 0.93607,0.44185 0.81178,1.08268 -0.31598,1.62926 -1.83354,1.85298 -1.83354,0.27029 z m 12.98012,0.26044 c -0.95388,-1.14934 -0.29173,-2.26284 1.34561,-2.26284 0.80383,0 1.26052,0.44541 1.26052,1.22937 0,1.57162 -1.62478,2.21593 -2.60613,1.03347 z m -6.80401,-2.25224 c -0.47899,-0.77501 0.12895,-1.95888 1.00592,-1.95888 0.79022,0 0.79535,1.75775 0.007,2.24526 -0.33251,0.2055 -0.78812,0.0766 -1.01247,-0.28638 z m 4.21473,-4.16239 c 0,-0.49757 0.3918,-1.05501 0.87067,-1.23877 1.18866,-0.45613 2.64627,0.53204 2.09662,1.42139 -0.64005,1.03562 -2.96729,0.89239 -2.96729,-0.18262 z m 10.09385,-0.34932 c -0.2055,-0.33251 -0.0626,-0.79676 0.31749,-1.03169 0.96113,-0.59401 2.74841,0.18438 2.25532,0.98223 -0.50759,0.82129 -2.07714,0.85147 -2.57281,0.0495 z m -3.81043,-3.0699 c -0.23502,-0.23503 -0.0988,-0.82311 0.30264,-1.30686 0.54832,-0.66067 0.94916,-0.69764 1.61079,-0.14853 0.48445,0.40206 0.72068,0.99015 0.52493,1.30686 -0.4174,0.67538 -1.82573,0.76116 -2.43836,0.14853 z m 11.25111,-3.72447 c 0,-1.10113 1.75632,-1.87961 2.29052,-1.01527 0.21112,0.34159 0.20323,0.91331 -0.0175,1.2705 -0.60011,0.97098 -2.273,0.78313 -2.27299,-0.25523 z m -5.11628,-1.87368 c -0.99311,-0.99312 -0.91609,-2.20616 0.16644,-2.62157 1.0007,-0.384 2.35213,0.70101 2.35213,1.88846 0,1.11004 -1.65879,1.59288 -2.51857,0.73311 z m -38.94223,-3.71594 c 0,-0.89296 0.14741,-1.25826 0.32757,-0.81178 0.18015,0.44648 0.18015,1.17709 0,1.62357 -0.18016,0.44648 -0.32757,0.0812 -0.32757,-0.81179 z m 41.02947,-3.6155 c -0.21481,-0.55979 -0.0906,-1.3178 0.27612,-1.68447 1.0789,-1.07891 3.0606,-0.32627 3.28516,1.24769 0.16932,1.18684 -0.10339,1.45458 -1.48159,1.45458 -0.93456,0 -1.8636,-0.45468 -2.07969,-1.0178 z m 4.56347,-9.04643 c -0.59933,-1.56184 0.81393,-2.75024 2.21765,-1.8648 1.57734,0.99497 1.38952,2.47387 -0.34549,2.72024 -0.89897,0.12765 -1.62162,-0.20254 -1.87216,-0.85544 z m 5.60927,-0.27899 c 0,-0.92939 0.41708,-1.34647 1.34647,-1.34647 1.66425,0 1.47545,2.14949 -0.21743,2.47551 -0.77931,0.15008 -1.12904,-0.19965 -1.12904,-1.12904 z m 0.64942,-6.73672 c 0,-0.93579 1.26884,-2.40288 2.07817,-2.40288 0.28575,0 0.51954,0.73061 0.51954,1.62357 0,1.19061 -0.34636,1.62357 -1.29885,1.62357 -0.71437,0 -1.29886,-0.37992 -1.29886,-0.84426 z m -5.19541,-2.67998 c 0,-1.25695 0.33313,-1.67118 1.34402,-1.67118 1.0208,0 1.29411,0.34981 1.1365,1.45458 -0.30796,2.15853 -2.48052,2.34825 -2.48052,0.2166 z m 9.7414,-8.49016 c 0,-0.53578 0.43837,-0.97414 0.97414,-0.97414 0.53578,0 0.97414,0.43836 0.97414,0.97414 0,0.53577 -0.43836,0.97414 -0.97414,0.97414 -0.53577,0 -0.97414,-0.43837 -0.97414,-0.97414 z m 4.56194,-7.12449 c -0.52626,-0.6341 -0.53081,-0.99987 -0.0164,-1.3178 0.8659,-0.53515 2.59814,0.0542 2.59814,0.88401 0,1.0428 -1.82222,1.34897 -2.58176,0.43379 z m 5.97773,-5.01168 c 0.40139,-1.20418 1.79945,-1.40391 1.79945,-0.25707 0,0.56555 -0.46272,1.02826 -1.02826,1.02826 -0.56555,0 -0.91258,-0.34704 -0.77119,-0.77119 z m 6.45368,-3.12537 c 0.32689,-0.98067 1.37122,-1.08173 1.67768,-0.16236 0.14883,0.44648 -0.21647,0.81179 -0.81178,0.81179 -0.59531,0 -0.98497,-0.29225 -0.8659,-0.64943 z m 3.78832,-1.90995 c 0,-0.37827 0.29224,-0.68776 0.64943,-0.68776 0.35718,0 0.64943,0.12887 0.64943,0.28639 0,0.15751 -0.29225,0.467 -0.64943,0.68775 -0.35719,0.22075 -0.64943,0.0919 -0.64943,-0.28638 z"
       id="path2926-1"
       inkscape:connector-curvature="0"
       sodipodi:nodetypes="csssssccssssssccccssssssscsssssssssssssscsssssssssssssscssssssscssssssssscsssssssssssssscsssssssssssssssssssssssssssssssssscscssssssscssscscssssssssssssssssssssssssccssscccssssscssssscssssssscscssssssccccssssccssssssssssscscscssscccsssssssssssssssssssssscssccsssccsccscsssssssssssssssssssssscssssssssssssssssscssscscssssscssssssssssssssssssssssscssscssscsssssccsccssscccccssccsssssssssssssssssssssssssssssccsscsssscccsccssscsssssssssssssssssssssssssssssssssssssssccsscssssscsssssss" />
    <path
       style="fill:none;stroke:#000000;stroke-width:2.4000001;stroke-linecap:butt;stroke-linejoin:miter;stroke-miterlimit:4;stroke-opacity:1;stroke-dasharray:none"
       d="m -8.6736619,450.63857 c 7.45133,-22.24702 19.1450099,-21.08362 35.4644199,-17.62985 12.57865,4.76338 24.820723,4.24982 38.896673,4.64776 12.47852,1.32063 20.29077,-9.81906 24.05748,-20.23645 6.12713,-13.88294 10.16854,-33.15608 27.106679,-37.40905 4.90082,-0.58793 12.10248,-4.07665 18.11668,-5.25101 6.01421,-1.17436 15.43716,-10.99453 8.5171,6.51381 7.0207,8.79751 -5.31976,8.16517 -12.72604,6.46574 -7.40628,-1.69944 -14.47457,-2.6982 -13.17297,8.54846 -3.95035,12.2843 -9.92097,23.8661 -11.80657,36.75241 -5.36152,19.93912 -26.015449,32.12141 -45.866549,31.9943 -11.60126,3.26146 -27.152533,-2.12173 -34.741283,8.90786 -6.88019,3.8728 -22.5388599,17.43329 -26.5956599,7.15524 9.64182,0.24904 10.27884,-4.90851 24.2437799,-15.83349 -10.50101,-2.08068 -20.8272499,-10.09707 -28.8401999,-13.31168 -1.53285,2.59264 1.12077,-1.74148 -2.65354,-1.31405 z"
       id="path2964"
       inkscape:connector-curvature="0"
       sodipodi:nodetypes="cccccscscccccccc" />
    <path
       style="font-size:medium;font-style:normal;font-variant:normal;font-weight:normal;font-stretch:normal;text-indent:0;text-align:start;text-decoration:none;line-height:normal;letter-spacing:normal;word-spacing:normal;text-transform:none;direction:ltr;block-progression:tb;writing-mode:lr-tb;text-anchor:start;color:#000000;fill:#000000;fill-opacity:1;stroke:none;stroke-width:2.0999999;marker:none;visibility:visible;display:inline;overflow:visible;enable-background:accumulate;font-family:Bitstream Vera Sans;-inkscape-font-specification:Bitstream Vera Sans"
       d="m 62.841661,420.33397 c -0.59293,-0.0512 -1.23614,0.0399 -1.90625,0.1875 l 0,-0.0312 c -3.79602,0.54684 -8.60443,0.11589 -12.34375,3 l -0.15625,0.0937 -0.0937,0.15625 c -2.47696,3.89002 -3.097,8.46434 -5.875003,11.4375 l -0.84375,0.9375 1.0625,0.65625 c 0.27661,0.17505 0.73422,0.45283 1.21875,0.71875 0.48453,0.26592 0.91744,0.51722 1.437503,0.65625 l 0.5625,-2.03125 c -0.0686,-0.0183 -1.444323,0.26762 -1.875003,0.0312 1.157503,-1.21137 4.045363,-8.90681 5.593753,-11.56245 2.92774,-2.16791 7.50095,-1.41041 11.59375,-2 l 0.0625,-0.0312 0.0312,0 c 1.04696,-0.24523 2.24134,-0.62312 2.8125,-0.34375 0.57116,0.27937 0.54739,1.26773 1,1.96875 2.69185,2.37512 4.3337,5.59796 3.18745,9.74995 -0.48426,1.31832 -0.45356,2.48047 -2.15625,2.78125 l -0.75,1.9375 c 2.39912,-0.42381 4.14824,-2.02152 4.875,-4 0.70866,-1.92919 0.42636,-4.20751 -0.90625,-6.125 l 0.0312,0 c -0.022,-0.045 -0.072,-0.11003 -0.0937,-0.15625 -0.70122,-1.48858 -1.27782,-3.56478 -2.40625,-5.3125 -0.58173,-0.90099 -1.34756,-1.74744 -2.375,-2.25 -0.51372,-0.25128 -1.06568,-0.41502 -1.6875,-0.46875 z"
       id="path2969"
       inkscape:connector-curvature="0"
       sodipodi:nodetypes="cccccccccscccccccsccccscccsscc" />
    <path
       style="fill:#000000"
       d="m 38.818568,466.27883 c 0.33661,0.53241 0.73878,2.51763 0.78569,4.30355 3.24365,22.09991 9.936193,6.64878 13.219123,5.11782 -0.7197,-2.63906 -3.2453,-5.91159 -3.85143,-6.51772 -1.14636,-1.14636 0.28909,-3.34016 1.59462,-3.67314 0.82734,-1.62503 0.92943,0.86183 -0.11821,1.42979 1.3839,3.30545 3.81273,5.28283 5.476,8.62527 0,2.21271 -10.22691,9.63011 -13.277733,9.63011 -4.52361,-2.41117 -4.72996,-18.61843 -7.04456,-17.60425 -2.3146,1.01418 2.43199,-1.58518 3.2165,-1.31143 z"
       id="path2926-1-7"
       inkscape:connector-curvature="0"
       sodipodi:nodetypes="cccscccczc" />
    <path
       style="fill:#000000"
       d="m 93.616681,457.62502 c 3.8024,4.72565 12.543739,3.84453 13.595579,1.88257 0.95157,-1.15559 1.42852,-3.64116 1.76426,-5.01783 1.9155,-6.03461 8.80484,-5.72011 6.49989,-9.82039 -4.29973,-0.62288 -12.56036,3.32551 -16.863979,4.15826 -3.02258,1.76614 0.0587,-2.94631 0.1419,-2.45009 0.36532,0.23197 4.226829,-0.61892 8.581149,-1.89087 4.35432,-1.27195 8.40913,-2.23027 9.01069,-2.12961 2.86268,0.47905 0.61639,7.11904 -3.47934,10.28485 -1.79229,1.38535 -1.94968,1.81881 -1.48685,4.09497 0.45393,2.23236 0.32735,2.61251 -1.02864,3.08921 -0.85044,0.29898 -1.61415,0.89533 -1.91321,1.21718 -0.29904,0.32185 -1.50081,1.53486 -3.10273,1.72329 -1.60191,0.18843 -3.89325,0.54374 -5.622199,0.52443 -2.29991,-0.26882 -6.17301,-1.8053 -7.93432,-4.38533 l -1.17256,-1.71761 c -1.10827,-0.84815 -0.95453,-6.00159 3.01036,0.43697 z"
       id="path2926-1-4"
       inkscape:connector-curvature="0"
       sodipodi:nodetypes="ccccccssssssscscc" />
    <path
       style="fill:#000000"
       d="m 8.4936281,450.81454 c -2.45918,-1.49942 -3.23397,-3.84213 -2.1423,-6.47764 1.11372,-2.68874 2.72663,-3.93434 5.6161699,-4.33716 1.89111,-0.26365 2.27398,-0.17858 1.54176,0.34252 -0.53578,0.3813 -1.76753,0.69775 -2.73722,0.70322 -1.0912999,0.006 -2.0279299,0.50483 -2.4581999,1.30879 -0.38232,0.71437 -0.43313,1.29886 -0.11291,1.29886 0.32023,0 0.43668,0.80366 0.25879,1.78592 -0.17789,0.98226 -0.12086,1.59895 0.12673,1.37042 0.24759,-0.22853 0.52503,-1.11762 0.61652,-1.97576 0.0915,-0.85813 0.38448,-1.91318 0.65107,-2.34455 0.7066799,-1.14343 4.3340099,-0.95905 5.7147199,0.29048 1.07689,0.97458 1.18763,0.97758 1.18763,0.0323 0,-0.57339 -0.51142,-1.34041 -1.13649,-1.70448 -0.6489,-0.37794 -0.78412,-0.67042 -0.31517,-0.68169 1.16284,-0.028 3.39463,3.87023 3.39752,5.93433 0.004,2.61292 -0.61794,3.73894 -2.64173,4.78549 -2.51372,1.29988 -5.07589,1.18781 -7.5668899,-0.33103 z m 2.7426299,-0.48481 c -2.1376999,-0.52078 -3.5718399,-2.21432 -3.5718399,-4.21787 0,-1.09194 -0.27343,-1.71698 -0.64943,-1.48459 -2.16198,1.33617 0.92496,6.22584 3.8474099,6.09422 1.34616,-0.0606 1.41915,-0.13711 0.37386,-0.39176 z m 5.63136,-0.6077 c 0.68593,-0.62077 1.17215,-1.92387 1.15098,-3.08478 l -0.0366,-2.00998 -0.77513,2.25606 c -0.42682,1.24228 -1.50469,2.62415 -2.3987,3.07521 -1.34872,0.68047 -1.41235,0.82076 -0.37585,0.82871 0.68624,0.005 1.78215,-0.47408 2.43535,-1.06522 z m -0.11123,-3.8386 c 0,-0.96311 -1.42801,-2.87656 -1.91989,-2.57256 -0.84343,0.52127 -0.003,2.93997 1.0215,2.93997 0.49411,0 0.89839,-0.16534 0.89839,-0.36741 z m -5.52013,-2.87973 c 0.22076,-0.35718 0.10913,-0.64943 -0.24806,-0.64943 -0.35718,0 -0.83004,0.29225 -1.0507899,0.64943 -0.22075,0.35719 -0.10912,0.64943 0.2480599,0.64943 0.35719,0 0.83004,-0.29224 1.05079,-0.64943 z"
       id="path2926-1-0"
       inkscape:connector-curvature="0"
       sodipodi:nodetypes="cssscssscsssssccscccssccsccssccssssssssss" />
    <path
       style="fill:none;stroke:#000000;stroke-width:0.70117414px;stroke-linecap:butt;stroke-linejoin:miter;stroke-opacity:1"
       d="m -9.8884519,451.67741 c 1.47553,2.58869 -0.2752601,6.5477 0.13654,8.86488 1.72787,-2.54452 2.16347,-5.69814 3.08716,-8.57516"
       id="path3062"
       inkscape:connector-curvature="0"
       sodipodi:nodetypes="ccc" />
    <path
       sodipodi:nodetypes="ccc"
       inkscape:connector-curvature="0"
       id="path3853"
       d="m -3.7801119,453.8218 c 1.02005,2.37394 -1.54591,5.38268 -1.56873,7.3666 2.26963,-1.84026 3.3262,-4.38575 4.83194995,-6.62629"
       style="fill:none;stroke:#000000;stroke-width:0.65889281px;stroke-linecap:butt;stroke-linejoin:miter;stroke-opacity:1" />
    <path
       sodipodi:nodetypes="ccc"
       inkscape:connector-curvature="0"
       id="path3853-4"
       d="m 1.9532981,456.34081 c -1.56559005,0.58111 -1.78385005,3.00708 -2.69166005,3.87593 -0.18694,-1.79037 0.50768,-3.35494 0.8556,-4.98416"
       style="fill:none;stroke:#000000;stroke-width:0.41712046px;stroke-linecap:butt;stroke-linejoin:miter;stroke-opacity:1" />
    <path
       sodipodi:nodetypes="ccc"
       inkscape:connector-curvature="0"
       id="path3853-8"
       d="m 1.7252181,455.15112 c 0.79615,2.91512 -1.20656005,6.60978 -1.22437005,9.04597 1.77143005,-2.25979 2.59607005,-5.38557 3.77129005,-8.1369"
       style="fill:none;stroke:#000000;stroke-width:0.65889281px;stroke-linecap:butt;stroke-linejoin:miter;stroke-opacity:1" />
    <path
       sodipodi:nodetypes="ccc"
       inkscape:connector-curvature="0"
       id="path3853-82"
       d="m 0.32808805,480.43563 c -1.94879995,-1.69655 -0.94182,-6.49278 -1.78177995,-8.29026 -1.2468,2.64259 -1.0947,5.39445 -1.4796,8.06637"
       style="fill:none;stroke:#000000;stroke-width:0.65889281px;stroke-linecap:butt;stroke-linejoin:miter;stroke-opacity:1" />
    <path
       sodipodi:nodetypes="ccc"
       inkscape:connector-curvature="0"
       id="path3853-45"
       d="m 5.6251081,478.76951 c -2.1651,-0.80459 -2.50817,-4.26664 -3.77295,-5.49303 -0.22583,2.5607 0.75776,4.78443 1.26527,7.10617"
       style="fill:none;stroke:#000000;stroke-width:0.65889281px;stroke-linecap:butt;stroke-linejoin:miter;stroke-opacity:1" />
    <path
       sodipodi:nodetypes="ccc"
       inkscape:connector-curvature="0"
       id="path3853-45-5"
       d="m 8.0284081,477.95641 c -1.44914,-1.98074 -0.65056,-7.5531 -1.80608,-9.57765 -0.61611,3.7536 -0.28446,7.43601 -0.31982,11.0946"
       style="fill:none;stroke:#000000;stroke-width:0.65889281px;stroke-linecap:butt;stroke-linejoin:miter;stroke-opacity:1" />
    <path
       style="fill:none;stroke:#000000;stroke-width:2.4000001;stroke-linecap:butt;stroke-linejoin:miter;stroke-miterlimit:4;stroke-opacity:1;stroke-dasharray:none"
       d="m 203.60738,452.83211 c 7.45133,-22.24702 19.14501,-21.08362 35.46442,-17.62985 12.57865,4.76338 24.82072,4.24982 38.89667,4.64776 12.47852,1.32063 20.29077,-9.81906 24.05748,-20.23645 6.12713,-13.88294 10.16854,-33.15608 27.10668,-37.40905 4.90082,-0.58793 12.10248,-4.07665 18.11668,-5.25101 6.01421,-1.17436 15.43716,-10.99453 8.5171,6.51381 7.0207,8.79751 -5.31976,8.16517 -12.72604,6.46574 -7.40628,-1.69944 -14.47457,-2.6982 -13.17297,8.54846 -3.95035,12.2843 -9.92097,23.8661 -11.80657,36.75241 -5.36152,19.93912 -26.01545,32.12141 -45.86655,31.9943 -11.60126,3.26146 -27.15253,-2.12173 -34.74128,8.90786 -6.88019,3.8728 -22.53886,17.43329 -26.59566,7.15524 9.64182,0.24904 10.27884,-4.90851 24.24378,-15.83349 -10.50101,-2.08068 -20.82725,-10.09707 -28.8402,-13.31168 -1.53285,2.59264 1.12077,-1.74148 -2.65354,-1.31405 z"
       id="path2964-1"
       inkscape:connector-curvature="0"
       sodipodi:nodetypes="cccccscscccccccc" />
    <path
       style="font-size:medium;font-style:normal;font-variant:normal;font-weight:normal;font-stretch:normal;text-indent:0;text-align:start;text-decoration:none;line-height:normal;letter-spacing:normal;word-spacing:normal;text-transform:none;direction:ltr;block-progression:tb;writing-mode:lr-tb;text-anchor:start;color:#000000;fill:#000000;fill-opacity:1;stroke:none;stroke-width:2.0999999;marker:none;visibility:visible;display:inline;overflow:visible;enable-background:accumulate;font-family:Bitstream Vera Sans;-inkscape-font-specification:Bitstream Vera Sans"
       d="m 275.1227,422.52751 c -0.59293,-0.0512 -1.23614,0.0399 -1.90625,0.1875 l 0,-0.0312 c -3.79602,0.54684 -8.60443,0.11589 -12.34375,3 l -0.15625,0.0937 -0.0937,0.15625 c -2.47696,3.89002 -3.097,8.46434 -5.875,11.4375 l -0.84375,0.9375 1.0625,0.65625 c 0.27661,0.17505 0.73422,0.45283 1.21875,0.71875 0.48453,0.26592 0.91744,0.51722 1.4375,0.65625 l 0.5625,-2.03125 c -0.0686,-0.0183 -1.44432,0.26762 -1.875,0.0312 1.1575,-1.21137 4.04536,-8.90681 5.59375,-11.56245 2.92774,-2.16791 7.50095,-1.41041 11.59375,-2 l 0.0625,-0.0312 0.0312,0 c 1.04696,-0.24523 2.24134,-0.62312 2.8125,-0.34375 0.57116,0.27937 0.54739,1.26773 1,1.96875 2.69185,2.37512 4.3337,5.59796 3.18745,9.74995 -0.48426,1.31832 -0.45356,2.48047 -2.15625,2.78125 l -0.75,1.9375 c 2.39912,-0.42381 4.14824,-2.02152 4.875,-4 0.70866,-1.92919 0.42636,-4.20751 -0.90625,-6.125 l 0.0312,0 c -0.022,-0.045 -0.072,-0.11003 -0.0937,-0.15625 -0.70122,-1.48858 -1.27782,-3.56478 -2.40625,-5.3125 -0.58173,-0.90099 -1.34756,-1.74744 -2.375,-2.25 -0.51372,-0.25128 -1.06568,-0.41502 -1.6875,-0.46875 z"
       id="path2969-7"
       inkscape:connector-curvature="0"
       sodipodi:nodetypes="cccccccccscccccccsccccscccsscc" />
    <path
       style="fill:#000000"
       d="m 251.09961,468.47237 c 0.33661,0.53241 0.73878,2.51763 0.78569,4.30355 3.24365,22.09991 9.93619,6.64878 13.21912,5.11782 -0.7197,-2.63906 -3.2453,-5.91159 -3.85143,-6.51772 -1.14636,-1.14636 0.28909,-3.34016 1.59462,-3.67314 0.82734,-1.62503 0.92943,0.86183 -0.11821,1.42979 1.3839,3.30545 3.81273,5.28283 5.476,8.62527 0,2.21271 -10.22691,9.63011 -13.27773,9.63011 -4.52361,-2.41117 -4.72996,-18.61843 -7.04456,-17.60425 -2.3146,1.01418 2.43199,-1.58518 3.2165,-1.31143 z"
       id="path2926-1-7-1"
       inkscape:connector-curvature="0"
       sodipodi:nodetypes="cccscccczc" />
    <path
       style="fill:#000000"
       d="m 305.89772,459.81856 c 3.8024,4.72565 12.54374,3.84453 13.59558,1.88257 0.95157,-1.15559 1.42852,-3.64116 1.76426,-5.01783 1.9155,-6.03461 8.80484,-5.72011 6.49989,-9.82039 -4.29973,-0.62288 -12.56036,3.32551 -16.86398,4.15826 -3.02258,1.76614 0.0587,-2.94631 0.1419,-2.45009 0.36532,0.23197 4.22683,-0.61892 8.58115,-1.89087 4.35432,-1.27195 8.40913,-2.23027 9.01069,-2.12961 2.86268,0.47905 0.61639,7.11904 -3.47934,10.28485 -1.79229,1.38535 -1.94968,1.81881 -1.48685,4.09497 0.45393,2.23236 0.32735,2.61251 -1.02864,3.08921 -0.85044,0.29898 -1.61415,0.89533 -1.91321,1.21718 -0.29904,0.32185 -1.50081,1.53486 -3.10273,1.72329 -1.60191,0.18843 -3.89325,0.54374 -5.6222,0.52443 -2.29991,-0.26882 -6.17301,-1.8053 -7.93432,-4.38533 l -1.17256,-1.71761 c -1.10827,-0.84815 -0.95453,-6.00159 3.01036,0.43697 z"
       id="path2926-1-4-1"
       inkscape:connector-curvature="0"
       sodipodi:nodetypes="ccccccssssssscscc" />
    <path
       style="fill:#000000"
       d="m 220.77467,453.00808 c -2.45918,-1.49942 -3.23397,-3.84213 -2.1423,-6.47764 1.11372,-2.68874 2.72663,-3.93434 5.61617,-4.33716 1.89111,-0.26365 2.27398,-0.17858 1.54176,0.34252 -0.53578,0.3813 -1.76753,0.69775 -2.73722,0.70322 -1.0913,0.006 -2.02793,0.50483 -2.4582,1.30879 -0.38232,0.71437 -0.43313,1.29886 -0.11291,1.29886 0.32023,0 0.43668,0.80366 0.25879,1.78592 -0.17789,0.98226 -0.12086,1.59895 0.12673,1.37042 0.24759,-0.22853 0.52503,-1.11762 0.61652,-1.97576 0.0915,-0.85813 0.38448,-1.91318 0.65107,-2.34455 0.70668,-1.14343 4.33401,-0.95905 5.71472,0.29048 1.07689,0.97458 1.18763,0.97758 1.18763,0.0323 0,-0.57339 -0.51142,-1.34041 -1.13649,-1.70448 -0.6489,-0.37794 -0.78412,-0.67042 -0.31517,-0.68169 1.16284,-0.028 3.39463,3.87023 3.39752,5.93433 0.004,2.61292 -0.61794,3.73894 -2.64173,4.78549 -2.51372,1.29988 -5.07589,1.18781 -7.56689,-0.33103 z m 2.74263,-0.48481 c -2.1377,-0.52078 -3.57184,-2.21432 -3.57184,-4.21787 0,-1.09194 -0.27343,-1.71698 -0.64943,-1.48459 -2.16198,1.33617 0.92496,6.22584 3.84741,6.09422 1.34616,-0.0606 1.41915,-0.13711 0.37386,-0.39176 z m 5.63136,-0.6077 c 0.68593,-0.62077 1.17215,-1.92387 1.15098,-3.08478 l -0.0366,-2.00998 -0.77513,2.25606 c -0.42682,1.24228 -1.50469,2.62415 -2.3987,3.07521 -1.34872,0.68047 -1.41235,0.82076 -0.37585,0.82871 0.68624,0.005 1.78215,-0.47408 2.43535,-1.06522 z m -0.11123,-3.8386 c 0,-0.96311 -1.42801,-2.87656 -1.91989,-2.57256 -0.84343,0.52127 -0.003,2.93997 1.0215,2.93997 0.49411,0 0.89839,-0.16534 0.89839,-0.36741 z m -5.52013,-2.87973 c 0.22076,-0.35718 0.10913,-0.64943 -0.24806,-0.64943 -0.35718,0 -0.83004,0.29225 -1.05079,0.64943 -0.22075,0.35719 -0.10912,0.64943 0.24806,0.64943 0.35719,0 0.83004,-0.29224 1.05079,-0.64943 z"
       id="path2926-1-0-5"
       inkscape:connector-curvature="0"
       sodipodi:nodetypes="cssscssscsssssccscccssccsccssccssssssssss" />
    <path
       style="fill:none;stroke:#000000;stroke-width:0.70117414px;stroke-linecap:butt;stroke-linejoin:miter;stroke-opacity:1"
       d="m 202.39259,453.87095 c 1.47553,2.58869 -0.27526,6.5477 0.13654,8.86488 1.72787,-2.54452 2.16347,-5.69814 3.08716,-8.57516"
       id="path3062-2"
       inkscape:connector-curvature="0"
       sodipodi:nodetypes="ccc" />
    <path
       sodipodi:nodetypes="ccc"
       inkscape:connector-curvature="0"
       id="path3853-7"
       d="m 208.50093,456.01534 c 1.02005,2.37394 -1.54591,5.38268 -1.56873,7.3666 2.26963,-1.84026 3.3262,-4.38575 4.83195,-6.62629"
       style="fill:none;stroke:#000000;stroke-width:0.65889281px;stroke-linecap:butt;stroke-linejoin:miter;stroke-opacity:1" />
    <path
       sodipodi:nodetypes="ccc"
       inkscape:connector-curvature="0"
       id="path3853-4-6"
       d="m 214.23434,458.53435 c -1.56559,0.58111 -1.78385,3.00708 -2.69166,3.87593 -0.18694,-1.79037 0.50768,-3.35494 0.8556,-4.98416"
       style="fill:none;stroke:#000000;stroke-width:0.41712046px;stroke-linecap:butt;stroke-linejoin:miter;stroke-opacity:1" />
    <path
       sodipodi:nodetypes="ccc"
       inkscape:connector-curvature="0"
       id="path3853-8-1"
       d="m 214.00626,457.34466 c 0.79615,2.91512 -1.20656,6.60978 -1.22437,9.04597 1.77143,-2.25979 2.59607,-5.38557 3.77129,-8.1369"
       style="fill:none;stroke:#000000;stroke-width:0.65889281px;stroke-linecap:butt;stroke-linejoin:miter;stroke-opacity:1" />
    <path
       sodipodi:nodetypes="ccc"
       inkscape:connector-curvature="0"
       id="path3853-82-4"
       d="m 212.60913,482.62917 c -1.9488,-1.69655 -0.94182,-6.49278 -1.78178,-8.29026 -1.2468,2.64259 -1.0947,5.39445 -1.4796,8.06637"
       style="fill:none;stroke:#000000;stroke-width:0.65889281px;stroke-linecap:butt;stroke-linejoin:miter;stroke-opacity:1" />
    <path
       sodipodi:nodetypes="ccc"
       inkscape:connector-curvature="0"
       id="path3853-45-2"
       d="m 217.90615,480.96305 c -2.1651,-0.80459 -2.50817,-4.26664 -3.77295,-5.49303 -0.22583,2.5607 0.75776,4.78443 1.26527,7.10617"
       style="fill:none;stroke:#000000;stroke-width:0.65889281px;stroke-linecap:butt;stroke-linejoin:miter;stroke-opacity:1" />
    <path
       sodipodi:nodetypes="ccc"
       inkscape:connector-curvature="0"
       id="path3853-45-5-3"
       d="m 220.30945,480.14995 c -1.44914,-1.98074 -0.65056,-7.5531 -1.80608,-9.57765 -0.61611,3.7536 -0.28446,7.43601 -0.31982,11.0946"
       style="fill:none;stroke:#000000;stroke-width:0.65889281px;stroke-linecap:butt;stroke-linejoin:miter;stroke-opacity:1" />
    <path
       style="fill:#000000"
       d="m 258.53883,459.75292 c -0.41929,-0.91642 0.67072,-2.02992 1.58733,-1.6215 0.98805,0.44024 0.74652,2.23877 -0.31116,2.31679 -0.50971,0.0376 -1.08399,-0.27528 -1.27617,-0.69529 z m 8.8832,-1.12517 c 0.008,-0.41613 0.42243,-0.78674 0.92171,-0.82356 0.49926,-0.0369 0.9015,0.2735 0.89384,0.68962 -0.008,0.41614 -0.42243,0.78674 -0.92171,0.82357 -0.49926,0.0369 -0.90151,-0.2735 -0.89384,-0.68963 z m -17.2749,0.97862 c -0.51501,-0.67326 0.66931,-1.73148 1.51573,-1.35434 0.95073,0.42361 0.77175,1.7332 -0.24715,1.80836 -0.47963,0.0353 -1.05048,-0.16893 -1.26858,-0.45402 z m 24.84435,-1.78886 c -0.49399,-0.64577 0.20483,-1.52627 1.27395,-1.60513 0.47963,-0.0353 0.8637,0.38963 0.85348,0.94447 -0.0192,1.04426 -1.48564,1.49965 -2.12742,0.6607 z m 8.03774,-3.28313 c -0.16442,-0.3593 -0.0573,-0.98866 0.2381,-1.39858 0.72375,-1.00446 2.08927,0.005 1.55816,1.15196 -0.4638,1.00152 -1.39252,1.12903 -1.79626,0.24662 z m -23.10904,0.34314 c -0.55306,-0.723 1.00985,-2.23056 1.73359,-1.67217 0.66828,0.51562 0.1125,2.06176 -0.7644,2.12646 -0.32367,0.0238 -0.75979,-0.18055 -0.96919,-0.45429 z m -7.73507,-0.24684 c -0.82029,-0.63288 -0.32843,-1.65482 0.83788,-1.74087 0.8069,-0.0595 1.20418,0.24698 1.19179,0.91952 -0.0179,0.97207 -1.20937,1.45423 -2.02967,0.82135 z m 16.55797,-2.10299 c 0.008,-0.43925 0.44589,-0.83044 0.9729,-0.86931 1.06872,-0.0788 0.86262,1.02074 -0.26527,1.41528 -0.39729,0.13898 -0.71572,-0.10672 -0.70763,-0.54597 z m 7.26685,-0.78793 c 0.0114,-0.61957 0.41011,-1.07966 0.9715,-1.12108 0.56358,-0.0416 0.86598,0.27883 0.74099,0.7851 -0.31775,1.28715 -1.73513,1.56522 -1.71249,0.33598 z m 12.09211,-0.69003 c -0.87245,-0.8271 -0.23948,-1.73746 1.2863,-1.85001 0.74908,-0.0553 1.16828,0.25928 1.15708,0.86817 -0.0225,1.22065 -1.54579,1.83278 -2.44338,0.98184 z m -6.30827,-1.28154 c -0.43526,-0.56902 0.14819,-1.53031 0.96541,-1.5906 0.73639,-0.0543 0.71603,1.31055 -0.0256,1.74339 -0.31278,0.1825 -0.73551,0.11369 -0.93939,-0.15282 z m 3.98714,-3.52261 c 0.007,-0.38646 0.38019,-0.84635 0.82906,-1.022 1.11421,-0.43598 2.45839,0.23132 1.93347,0.95985 -0.61126,0.84835 -2.77791,0.89709 -2.76253,0.0622 z m 9.41118,-0.96521 c -0.18674,-0.24412 -0.0469,-0.61454 0.31062,-0.82312 0.90415,-0.52743 2.55854,-0.0457 2.08763,0.60784 -0.48476,0.67277 -1.94781,0.80411 -2.39825,0.21532 z m -3.50693,-2.1224 c -0.21565,-0.16638 -0.0802,-0.63253 0.30071,-1.03583 0.52042,-0.55082 0.89447,-0.60709 1.50318,-0.22609 0.4457,0.27897 0.65742,0.7195 0.47048,0.97893 -0.39861,0.55325 -1.71224,0.7167 -2.27437,0.28299 z m 10.53789,-3.6662 c 0.0158,-0.85523 1.66354,-1.5806 2.149,-0.946 0.19185,0.25079 0.17586,0.6955 -0.0345,0.98798 -0.57312,0.7954 -2.12935,0.76451 -2.11449,-0.042 z m -4.74094,-1.10354 c -0.91124,-0.70307 -0.82213,-1.65052 0.1926,-2.04758 0.93802,-0.36704 2.18187,0.38277 2.16489,1.30505 -0.0159,0.86215 -1.56858,1.3512 -2.35749,0.74253 z m 2.0499,-5.83771 c -0.19216,-0.42002 -0.0656,-1.01729 0.28141,-1.32729 1.02083,-0.91214 2.85675,-0.4638 3.04351,0.74323 0.14078,0.91017 -0.11715,1.13686 -1.40146,1.23161 -0.87089,0.0642 -1.73014,-0.22503 -1.92346,-0.64755 z m 4.38197,-7.33994 c -0.53616,-1.17187 0.79781,-2.19203 2.09324,-1.60082 1.45565,0.66434 1.25947,1.8259 -0.36086,2.13652 -0.83953,0.161 -1.50825,-0.0458 -1.73238,-0.5357 z m 5.23112,-0.6023 c 0.0133,-0.72184 0.40793,-1.07446 1.27399,-1.13835 1.55088,-0.11441 1.34419,1.56805 -0.23801,1.93764 -0.72836,0.17017 -1.04927,-0.0774 -1.03598,-0.79929 z m 0.70153,-5.27695 c 0.0134,-0.72682 1.21677,-1.95351 1.97096,-2.00915 0.26628,-0.0196 0.47369,0.53174 0.46093,1.22529 -0.017,0.92472 -0.34599,1.2848 -1.2336,1.35029 -0.6657,0.0491 -1.20494,-0.20578 -1.19829,-0.56643 z m -4.80315,-1.72436 c 0.018,-0.97625 0.33435,-1.32088 1.27637,-1.39037 0.95125,-0.0702 1.20094,0.18273 1.03827,1.05163 -0.31785,1.69765 -2.34512,1.99436 -2.31464,0.33874 z m 9.1992,-7.26385 c 0.008,-0.41613 0.42243,-0.78674 0.9217,-0.82356 0.49927,-0.0369 0.90151,0.2735 0.89384,0.68964 -0.008,0.41612 -0.42243,0.78673 -0.92171,0.82355 -0.49926,0.0369 -0.9015,-0.2735 -0.89383,-0.68963 z m 4.35305,-5.84709 c -0.48135,-0.45633 -0.48036,-0.7401 0.004,-1.0224 0.81457,-0.47516 2.42036,-0.1365 2.4085,0.50799 -0.0149,0.80994 -1.71738,1.173 -2.41208,0.5144 z m 5.64216,-4.30344 c 0.39126,-0.96286 1.69694,-1.2141 1.68054,-0.32336 -0.008,0.43926 -0.44591,0.83044 -0.97292,0.86932 -0.52703,0.0388 -0.84544,-0.20681 -0.70762,-0.54596 z"
       id="path2926-1-1"
       inkscape:connector-curvature="0"
       sodipodi:nodetypes="sssssssssssssssssssssssssssssssssscsscsscscscsccscccsccssscsssssssssssssssssssssssssssssssscssccssssscsscss"
       inkscape:transform-center-x="-5"
       inkscape:transform-center-y="7" />
    <path
       sodipodi:nodetypes="cccccscscccccccc"
       inkscape:connector-curvature="0"
       id="path3988"
       d="m 198.65763,300.09705 c 7.45133,-22.24702 19.14501,-21.08362 35.46442,-17.62985 12.57865,4.76338 24.82072,4.24982 38.89667,4.64776 12.47852,1.32063 19.7414,-4.90874 27.9238,-12.3759 11.88454,-9.43586 20.30375,-21.35444 37.6154,-23.65555 4.93589,-0.0273 12.48728,-2.67531 18.59596,-3.1588 6.10868,-0.48349 16.58628,-9.16955 7.72193,7.43925 5.97576,9.53817 -6.21296,7.50794 -13.37821,4.97809 -7.16526,-2.52986 -11.99509,-1.90856 -16.07756,8.6515 -9.21385,9.03406 -19.88885,16.50606 -27.55541,27.03394 -14.02562,15.15244 -20.769,18.59279 -40.6201,18.46568 -11.60126,3.26146 -27.15253,-2.12173 -34.74128,8.90786 -6.88019,3.8728 -22.53886,17.43329 -26.59566,7.15524 9.64182,0.24904 10.27884,-4.90851 24.24378,-15.83349 -10.50101,-2.08068 -20.82725,-10.09707 -28.8402,-13.31168 -1.53285,2.59264 1.12077,-1.74148 -2.65354,-1.31405 z"
       style="fill:none;stroke:#000000;stroke-width:2.4000001;stroke-linecap:butt;stroke-linejoin:miter;stroke-miterlimit:4;stroke-opacity:1;stroke-dasharray:none"
       inkscape:export-filename="C:\cygwin\home\karlin\git\pisces_dentata\assets\viper2.png"
       inkscape:export-xdpi="90"
       inkscape:export-ydpi="90" />
    <path
       sodipodi:nodetypes="cssscssscsssssccscccssccsccssccssssssssss"
       inkscape:connector-curvature="0"
       id="path3996"
       d="m 215.82492,300.27302 c -2.45918,-1.49942 -3.23397,-3.84213 -2.1423,-6.47764 1.11372,-2.68874 2.72663,-3.93434 5.61617,-4.33716 1.89111,-0.26365 2.27398,-0.17858 1.54176,0.34252 -0.53578,0.3813 -1.76753,0.69775 -2.73722,0.70322 -1.0913,0.006 -2.02793,0.50483 -2.4582,1.30879 -0.38232,0.71437 -0.43313,1.29886 -0.11291,1.29886 0.32023,0 0.43668,0.80366 0.25879,1.78592 -0.17789,0.98226 -0.12086,1.59895 0.12673,1.37042 0.24759,-0.22853 0.52503,-1.11762 0.61652,-1.97576 0.0915,-0.85813 0.38448,-1.91318 0.65107,-2.34455 0.70668,-1.14343 4.33401,-0.95905 5.71472,0.29048 1.07689,0.97458 1.18763,0.97758 1.18763,0.0323 0,-0.57339 -0.51142,-1.34041 -1.13649,-1.70448 -0.6489,-0.37794 -0.78412,-0.67042 -0.31517,-0.68169 1.16284,-0.028 3.39463,3.87023 3.39752,5.93433 0.004,2.61292 -0.61794,3.73894 -2.64173,4.78549 -2.51372,1.29988 -5.07589,1.18781 -7.56689,-0.33103 z m 2.74263,-0.48481 c -2.1377,-0.52078 -3.57184,-2.21432 -3.57184,-4.21787 0,-1.09194 -0.27343,-1.71698 -0.64943,-1.48459 -2.16198,1.33617 0.92496,6.22584 3.84741,6.09422 1.34616,-0.0606 1.41915,-0.13711 0.37386,-0.39176 z m 5.63136,-0.6077 c 0.68593,-0.62077 1.17215,-1.92387 1.15098,-3.08478 l -0.0366,-2.00998 -0.77513,2.25606 c -0.42682,1.24228 -1.50469,2.62415 -2.3987,3.07521 -1.34872,0.68047 -1.41235,0.82076 -0.37585,0.82871 0.68624,0.005 1.78215,-0.47408 2.43535,-1.06522 z m -0.11123,-3.8386 c 0,-0.96311 -1.42801,-2.87656 -1.91989,-2.57256 -0.84343,0.52127 -0.003,2.93997 1.0215,2.93997 0.49411,0 0.89839,-0.16534 0.89839,-0.36741 z m -5.52013,-2.87973 c 0.22076,-0.35718 0.10913,-0.64943 -0.24806,-0.64943 -0.35718,0 -0.83004,0.29225 -1.05079,0.64943 -0.22075,0.35719 -0.10912,0.64943 0.24806,0.64943 0.35719,0 0.83004,-0.29224 1.05079,-0.64943 z"
       style="fill:#000000"
       inkscape:export-filename="C:\cygwin\home\karlin\git\pisces_dentata\assets\viper2.png"
       inkscape:export-xdpi="90"
       inkscape:export-ydpi="90" />
    <path
       sodipodi:nodetypes="ccc"
       inkscape:connector-curvature="0"
       id="path3998"
       d="m 197.44284,301.13589 c 1.47553,2.58869 -0.27526,6.5477 0.13654,8.86488 1.72787,-2.54452 2.16347,-5.69814 3.08716,-8.57516"
       style="fill:none;stroke:#000000;stroke-width:0.70117414px;stroke-linecap:butt;stroke-linejoin:miter;stroke-opacity:1"
       inkscape:export-filename="C:\cygwin\home\karlin\git\pisces_dentata\assets\viper2.png"
       inkscape:export-xdpi="90"
       inkscape:export-ydpi="90" />
    <path
       style="fill:none;stroke:#000000;stroke-width:0.65889281px;stroke-linecap:butt;stroke-linejoin:miter;stroke-opacity:1"
       d="m 203.55118,303.28028 c 1.02005,2.37394 -1.54591,5.38268 -1.56873,7.3666 2.26963,-1.84026 3.3262,-4.38575 4.83195,-6.62629"
       id="path4000"
       inkscape:connector-curvature="0"
       sodipodi:nodetypes="ccc"
       inkscape:export-filename="C:\cygwin\home\karlin\git\pisces_dentata\assets\viper2.png"
       inkscape:export-xdpi="90"
       inkscape:export-ydpi="90" />
    <path
       style="fill:none;stroke:#000000;stroke-width:0.41712046px;stroke-linecap:butt;stroke-linejoin:miter;stroke-opacity:1"
       d="m 209.28459,305.79929 c -1.56559,0.58111 -1.78385,3.00708 -2.69166,3.87593 -0.18694,-1.79037 0.50768,-3.35494 0.8556,-4.98416"
       id="path4002"
       inkscape:connector-curvature="0"
       sodipodi:nodetypes="ccc"
       inkscape:export-filename="C:\cygwin\home\karlin\git\pisces_dentata\assets\viper2.png"
       inkscape:export-xdpi="90"
       inkscape:export-ydpi="90" />
    <path
       style="fill:none;stroke:#000000;stroke-width:0.65889281px;stroke-linecap:butt;stroke-linejoin:miter;stroke-opacity:1"
       d="m 209.05651,304.6096 c 0.79615,2.91512 -1.20656,6.60978 -1.22437,9.04597 1.77143,-2.25979 2.59607,-5.38557 3.77129,-8.1369"
       id="path4004"
       inkscape:connector-curvature="0"
       sodipodi:nodetypes="ccc"
       inkscape:export-filename="C:\cygwin\home\karlin\git\pisces_dentata\assets\viper2.png"
       inkscape:export-xdpi="90"
       inkscape:export-ydpi="90" />
    <path
       style="fill:none;stroke:#000000;stroke-width:0.65889281px;stroke-linecap:butt;stroke-linejoin:miter;stroke-opacity:1"
       d="m 207.65938,329.89411 c -1.9488,-1.69655 -0.94182,-6.49278 -1.78178,-8.29026 -1.2468,2.64259 -1.0947,5.39445 -1.4796,8.06637"
       id="path4006"
       inkscape:connector-curvature="0"
       sodipodi:nodetypes="ccc"
       inkscape:export-filename="C:\cygwin\home\karlin\git\pisces_dentata\assets\viper2.png"
       inkscape:export-xdpi="90"
       inkscape:export-ydpi="90" />
    <path
       style="fill:none;stroke:#000000;stroke-width:0.65889281px;stroke-linecap:butt;stroke-linejoin:miter;stroke-opacity:1"
       d="m 212.9564,328.22799 c -2.1651,-0.80459 -2.50817,-4.26664 -3.77295,-5.49303 -0.22583,2.5607 0.75776,4.78443 1.26527,7.10617"
       id="path4008"
       inkscape:connector-curvature="0"
       sodipodi:nodetypes="ccc"
       inkscape:export-filename="C:\cygwin\home\karlin\git\pisces_dentata\assets\viper2.png"
       inkscape:export-xdpi="90"
       inkscape:export-ydpi="90" />
    <path
       style="fill:none;stroke:#000000;stroke-width:0.65889281px;stroke-linecap:butt;stroke-linejoin:miter;stroke-opacity:1"
       d="m 215.3597,327.41489 c -1.44914,-1.98074 -0.65056,-7.5531 -1.80608,-9.57765 -0.61611,3.7536 -0.28446,7.43601 -0.31982,11.0946"
       id="path4010"
       inkscape:connector-curvature="0"
       sodipodi:nodetypes="ccc"
       inkscape:export-filename="C:\cygwin\home\karlin\git\pisces_dentata\assets\viper2.png"
       inkscape:export-xdpi="90"
       inkscape:export-ydpi="90" />
    <path
       inkscape:transform-center-y="7"
       inkscape:transform-center-x="-5"
       sodipodi:nodetypes="sssssssssssssssssssssssssssssssssscsscsscscscsccscccsccssscsssssssssssssssssssssssssssssssscssccssssscsscss"
       inkscape:connector-curvature="0"
       id="path4012"
       d="M 329.5 257.4375 C 329.03919 258.66581 330.71744 259.33387 331.6875 259.28125 C 332.60163 258.50853 331.05228 257.66514 330.32074 257.58915 C 330.04471 257.56645 329.78509 257.3197 329.5 257.4375 z M 328.40625 263.375 C 327.30373 263.96274 328.6891 265.0199 329.4406 265.08437 C 330.41517 265.53878 331.19238 264.01024 330.125 263.59375 C 329.56934 263.48386 328.97186 263.34918 328.40625 263.375 z M 324.1875 268.09375 C 322.86955 268.34093 324.08788 270.66051 325.03125 269.6875 C 325.65548 269.16777 324.9973 267.83002 324.1875 268.09375 z M 316.8125 275.3125 C 316.4295 276.17528 315.3926 276.91719 315.71875 277.96875 C 316.95742 277.87845 317.48284 276.25968 316.90625 275.28125 L 316.8125 275.3125 z M 311.84375 278.46875 C 310.45288 278.62823 312.09108 280.84556 312.5625 279.34375 C 312.69909 278.91731 312.34843 278.26467 311.84375 278.46875 z M 313.59375 281.84375 C 312.81719 282.96425 315.30657 282.07569 313.71875 281.8125 L 313.59375 281.84375 z M 307.6875 283.5 C 306.40797 283.42232 306.84064 285.85086 308.03125 285.34375 C 309.10804 285.23411 308.83549 283.12461 307.6875 283.5 z M 298.875 288.0625 C 297.68975 288.04663 297.92192 290.2235 299.09375 289.90625 C 299.9675 289.99821 301.19916 289.15397 300.71875 288.1875 C 300.15356 287.90279 299.47884 287.98935 298.875 288.0625 z M 294.75 291.75 C 293.18365 292.3266 294.96302 294.97601 296.09375 293.78125 C 297.04422 292.93558 295.75895 291.51693 294.75 291.75 z M 301.25 293.125 C 299.91523 293.25822 300.89085 295.62893 301.90625 294.78125 C 302.34224 294.26046 302.1253 292.92636 301.25 293.125 z M 288.875 293.75 C 287.74415 294.23758 289.31328 296.14501 289.96875 295.03125 C 290.21461 294.41048 289.5489 293.55168 288.875 293.75 z M 282.71875 293.96875 C 281.23524 294.32591 282.6185 296.93714 283.75 295.90625 C 284.57191 295.21199 283.82113 293.54162 282.71875 293.96875 z M 277.78125 296.6875 C 276.49662 296.93639 277.75957 299.23455 278.625 298.1875 C 279.14153 297.70472 278.5383 296.31806 277.78125 296.6875 z M 292.5 297.03125 C 291.31171 297.70817 293.93888 298.52507 293.25 297.28125 C 293.08145 297.05048 292.77406 296.94265 292.5 297.03125 z M 271.625 298.3125 C 270.39984 298.7318 271.8516 300.79277 272.65625 299.78125 C 273.0041 299.15151 272.39698 298.08013 271.625 298.3125 z M 284.75 298.71875 C 283.09698 299.08148 284.27579 302.03129 285.71875 301.1875 C 286.84564 300.54686 286.00729 298.42403 284.75 298.71875 z M 264.59375 298.875 C 263.34518 298.77172 264.34749 301.14108 265.125 300.09375 C 265.56496 299.66821 265.34321 298.60872 264.59375 298.875 z M 247.875 300.1875 C 246.70688 300.01796 246.52555 302.18423 247.75 302.15625 C 248.97084 302.78073 249.71403 300.31302 248.34375 300.15625 C 248.18554 300.14881 248.03049 300.15596 247.875 300.1875 z M 255.875 300.4375 C 254.45495 300.46606 255.21532 303.11861 256.4375 302.40625 C 257.22851 301.9055 257.10083 300.08297 255.875 300.4375 z M 279.3125 301.71875 C 277.79788 301.91717 278.70107 304.62792 280.03125 303.90625 C 280.87453 303.3182 280.4998 301.47378 279.3125 301.71875 z M 270.90625 303.5625 C 269.46107 303.54587 270.15923 306.21151 271.40625 305.5625 C 272.47671 305.30558 272.00392 303.28599 270.90625 303.5625 z M 263.1875 305.03125 C 262.03056 305.23847 263.05433 307.30149 263.90625 306.4375 C 264.76175 306.05629 263.87512 304.79641 263.1875 305.03125 z M 254.46875 305.34375 C 253.01008 305.47295 253.48857 308.14576 254.90625 307.6875 C 256.21838 307.43696 255.89956 304.93397 254.46875 305.34375 z M 246.1875 305.4375 C 245.0175 305.22984 244.83081 307.48946 246.09375 307.3125 C 247.42632 307.77185 247.63836 305.04883 246.1875 305.4375 z "
       style="fill:#000000"
       inkscape:export-filename="C:\cygwin\home\karlin\git\pisces_dentata\assets\viper2.png"
       inkscape:export-xdpi="90"
       inkscape:export-ydpi="90" />
    <path
       sodipodi:nodetypes="cccccccccscccccccsccccscccsscc"
       inkscape:connector-curvature="0"
       id="path4014"
       d="m 272.29427,269.08534 c -0.59293,-0.0512 -1.23614,0.0399 -1.90625,0.1875 l 0,-0.0312 c -3.79602,0.54684 -8.60443,0.11589 -12.34375,3 l -0.15625,0.0937 -0.0937,0.15625 c -2.47696,3.89002 -3.097,8.46434 -5.875,11.4375 l -0.84375,0.9375 1.0625,0.65625 c 0.27661,0.17505 0.73422,0.45283 1.21875,0.71875 0.48453,0.26592 0.91744,0.51722 1.4375,0.65625 l 0.5625,-2.03125 c -0.0686,-0.0183 -1.44432,0.26762 -1.875,0.0312 1.1575,-1.21137 4.04536,-8.90681 5.59375,-11.56245 2.92774,-2.16791 7.50095,-1.41041 11.59375,-2 l 0.0625,-0.0312 0.0312,0 c 1.04696,-0.24523 2.24134,-0.62312 2.8125,-0.34375 0.57116,0.27937 0.54739,1.26773 1,1.96875 2.69185,2.37512 4.3337,5.59796 3.18745,9.74995 -0.48426,1.31832 -0.45356,2.48047 -2.15625,2.78125 l -0.75,1.9375 c 2.39912,-0.42381 4.14824,-2.02152 4.875,-4 0.70866,-1.92919 0.42636,-4.20751 -0.90625,-6.125 l 0.0312,0 c -0.022,-0.045 -0.072,-0.11003 -0.0937,-0.15625 -0.70122,-1.48858 -1.27782,-3.56478 -2.40625,-5.3125 -0.58173,-0.90099 -1.34756,-1.74744 -2.375,-2.25 -0.51372,-0.25128 -1.06568,-0.41502 -1.6875,-0.46875 z"
       style="font-size:medium;font-style:normal;font-variant:normal;font-weight:normal;font-stretch:normal;text-indent:0;text-align:start;text-decoration:none;line-height:normal;letter-spacing:normal;word-spacing:normal;text-transform:none;direction:ltr;block-progression:tb;writing-mode:lr-tb;text-anchor:start;color:#000000;fill:#000000;fill-opacity:1;stroke:none;stroke-width:2.0999999;marker:none;visibility:visible;display:inline;overflow:visible;enable-background:accumulate;font-family:Bitstream Vera Sans;-inkscape-font-specification:Bitstream Vera Sans"
       inkscape:export-filename="C:\cygwin\home\karlin\git\pisces_dentata\assets\viper2.png"
       inkscape:export-xdpi="90"
       inkscape:export-ydpi="90" />
    <path
       sodipodi:nodetypes="cccscccczc"
       inkscape:connector-curvature="0"
       id="path4016"
       d="m 247.56407,315.7373 c 0.33661,0.53241 0.73878,2.51763 0.78569,4.30355 3.24365,22.09991 9.93619,6.64878 13.21912,5.11782 -0.7197,-2.63906 -3.2453,-5.91159 -3.85143,-6.51772 -1.14636,-1.14636 0.28909,-3.34016 1.59462,-3.67314 0.82734,-1.62503 0.92943,0.86183 -0.11821,1.42979 1.3839,3.30545 3.81273,5.28283 5.476,8.62527 0,2.21271 -10.22691,9.63011 -13.27773,9.63011 -4.52361,-2.41117 -4.72996,-18.61843 -7.04456,-17.60425 -2.3146,1.01418 2.43199,-1.58518 3.2165,-1.31143 z"
       style="fill:#000000"
       inkscape:export-filename="C:\cygwin\home\karlin\git\pisces_dentata\assets\viper2.png"
       inkscape:export-xdpi="90"
       inkscape:export-ydpi="90" />
    <path
       sodipodi:nodetypes="ccccccssssssscscc"
       inkscape:connector-curvature="0"
       id="path4018"
       d="m 301.65508,306.37639 c 3.8024,4.72565 12.54374,3.84453 13.59558,1.88257 0.95157,-1.15559 1.42852,-3.64116 1.76426,-5.01783 1.9155,-6.03461 8.80484,-5.72011 6.49989,-9.82039 -4.29973,-0.62288 -12.56036,3.32551 -16.86398,4.15826 -3.02258,1.76614 0.0587,-2.94631 0.1419,-2.45009 0.36532,0.23197 4.22683,-0.61892 8.58115,-1.89087 4.35432,-1.27195 8.40913,-2.23027 9.01069,-2.12961 2.86268,0.47905 0.61639,7.11904 -3.47934,10.28485 -1.79229,1.38535 -1.94968,1.81881 -1.48685,4.09497 0.45393,2.23236 0.32735,2.61251 -1.02864,3.08921 -0.85044,0.29898 -1.61415,0.89533 -1.91321,1.21718 -0.29904,0.32185 -1.50081,1.53486 -3.10273,1.72329 -1.60191,0.18843 -3.89325,0.54374 -5.6222,0.52443 -2.29991,-0.26882 -6.17301,-1.8053 -7.93432,-4.38533 l -1.17256,-1.71761 c -1.10827,-0.84815 -0.95453,-6.00159 3.01036,0.43697 z"
       style="fill:#000000"
       inkscape:export-filename="C:\cygwin\home\karlin\git\pisces_dentata\assets\viper2.png"
       inkscape:export-xdpi="90"
       inkscape:export-ydpi="90" />
  </g>
</svg>
