<?xml version="1.0" encoding="UTF-8" standalone="no"?>
<!-- Created with Inkscape (http://www.inkscape.org/) -->

<svg
   xmlns:dc="http://purl.org/dc/elements/1.1/"
   xmlns:cc="http://creativecommons.org/ns#"
   xmlns:rdf="http://www.w3.org/1999/02/22-rdf-syntax-ns#"
   xmlns:svg="http://www.w3.org/2000/svg"
   xmlns="http://www.w3.org/2000/svg"
   xmlns:sodipodi="http://sodipodi.sourceforge.net/DTD/sodipodi-0.dtd"
   xmlns:inkscape="http://www.inkscape.org/namespaces/inkscape"
   width="744.09448819"
   height="1052.3622047"
   id="svg2"
   version="1.1"
   inkscape:version="0.47+devel r9192"
   sodipodi:docname="fishies.svg">
  <defs
     id="defs4" />
  <sodipodi:namedview
     id="base"
     pagecolor="#ffffff"
     bordercolor="#666666"
     borderopacity="1.0"
     inkscape:pageopacity="0.0"
     inkscape:pageshadow="2"
     inkscape:zoom="1.4"
     inkscape:cx="241.74442"
     inkscape:cy="400.55067"
     inkscape:document-units="px"
     inkscape:current-layer="layer1"
     showgrid="false"
     inkscape:window-width="1280"
     inkscape:window-height="780"
     inkscape:window-x="-4"
     inkscape:window-y="-4"
     inkscape:window-maximized="1" />
  <metadata
     id="metadata7">
    <rdf:RDF>
      <cc:Work
         rdf:about="">
        <dc:format>image/svg+xml</dc:format>
        <dc:type
           rdf:resource="http://purl.org/dc/dcmitype/StillImage" />
        <dc:title />
      </cc:Work>
    </rdf:RDF>
  </metadata>
  <g
     inkscape:label="Layer 1"
     inkscape:groupmode="layer"
     id="layer1">
    <path
       style="fill:#000000"
       d="M 198.17245,790.94736 C 195.241,782.71366 193.5,776.78006 193.5,775.02266 c 0,-2.5904 -6.95408,-16.7044 -10.62371,-21.5618 -3.95576,-5.2361 -8.51134,-9.2076 -14.62629,-12.75072 -2.6125,-1.51377 -4.75307,-3.04704 -4.75683,-3.40728 -0.004,-0.36024 -1.54749,-1.70406 -3.43051,-2.98627 -3.04046,-2.07034 -6.11546,-7.28258 -4.97137,-8.42666 0.23539,-0.23539 2.56114,0.1231 5.16834,0.79664 3.27028,0.84484 5.13701,0.90577 6.01934,0.19648 1.23785,-0.99509 12.32923,-0.54672 21.91154,0.88576 l 4.19052,0.62645 -0.58522,-5.67022 c -0.32187,-3.11861 -0.11089,-7.33677 0.46884,-9.37369 0.57973,-2.03691 1.5003,-5.95347 2.04572,-8.70347 3.15868,-15.92612 8.86654,-28.84108 15.93369,-36.05252 4.17783,-4.26314 8.92016,-10.607 30.35368,-21.31668 22.24358,-11.11443 26.5354,-9.33843 34.51504,-10.86754 8.23494,-1.57802 9.23054,-2.01226 10.33513,-4.5077 1.08014,-2.44021 3.55207,-3.26618 13.14992,-12.16528 1.28864,-1.19483 3.36995,-2.48741 4.62512,-2.87239 1.25517,-0.38499 2.73213,-1.04795 3.28213,-1.47324 0.55,-0.42529 8.91285,-4.04329 13.02828,-5.26207 6.76044,-2.0021 16.24373,-3.92723 22.80899,-3.18367 6.56526,0.74356 13.87114,0.21019 20.37714,2.30786 2.05145,0.66143 5.64025,3.16247 5.64025,3.16247 10.87294,6.0964 30.72153,28.26255 37.36765,41.73076 4.11743,8.34388 4.20069,8.7204 4.53345,20.5 0.18644,6.6 0.58876,15.96324 0.89404,20.8072 0.64777,10.27835 -0.15979,17.05485 -2.28579,19.18085 -0.83345,0.83345 -3.2658,1.51195 -5.42019,1.51195 -3.56866,0 -4.08998,-0.35621 -5.99966,-4.0995 -2.98765,-5.85627 -1.97264,-10.24993 4.30095,-18.61751 l 5.08554,-6.78299 0.0529,-11.5 c 0.0505,-10.97042 -0.0945,-11.79933 -3.1487,-18 -5.71244,-11.59738 -28.10377,-37.48512 -35.23509,-40.73705 -1.92769,-0.87904 -3.15645,-2.34889 -5.00977,-2.86377 -4.17628,-1.16023 -8.67292,-0.54719 -13,-0.29464 -4.63444,0.27049 -12.52878,1.40391 -13.79216,1.93317 -1.26338,0.52926 -3.2383,0.96229 -4.38871,0.96229 -1.1504,0 -5.76339,1.76076 -10.25108,3.91281 -6.29058,3.0166 -9.80898,5.58869 -15.3613,11.22969 -3.96102,4.02428 -7.20186,7.82703 -7.20186,8.45055 0,0.62351 2.77944,1.7235 6.17653,2.44441 4.25734,0.90347 8.37444,2.78196 13.25,6.04551 6.14498,4.11326 8.24729,6.41361 16.01591,17.52463 8.92779,12.76894 8.94346,12.80224 9.56798,20.34114 0.41313,4.98697 1.53632,9.54612 3.30757,13.42569 1.4751,3.23094 2.68201,6.75594 2.68201,7.83333 0,2.9297 -2.33735,1.59837 -3.34163,-1.90337 -0.47935,-1.6714 -1.98467,-4.33614 -3.34516,-5.92165 -1.81937,-2.1203 -2.30533,-2.35965 -1.83739,-0.90497 1.89387,5.88736 3.19965,25.59842 1.91719,28.94044 -1.03753,2.70377 -2.58807,1.7464 -1.94124,-1.1986 1.02164,-4.65153 -6.90395,-29.21961 -9.42617,-29.21961 -0.43779,0 -2.20767,0.59357 -3.93307,1.31905 l -3.1371,1.31905 2.51104,3.43095 c 7.22668,9.87415 8.36101,12.13648 9.04647,18.04244 0.38372,3.30617 0.48085,6.22805 0.21585,6.49306 -0.26501,0.265 -1.48085,-1.45011 -2.70188,-3.81136 -2.91226,-5.63182 -4.49967,-7.32984 -10.70838,-11.45448 -5.27208,-3.50241 -11.59644,-5.31609 -12.64142,-3.62527 -0.74651,1.20787 2.35548,11.12492 5.87632,18.78656 1.51648,3.3 2.67541,6.52857 2.57539,7.17459 -0.10003,0.64603 0.28007,1.46009 0.84466,1.80902 0.56459,0.34893 1.02652,4.1937 1.02652,8.54397 0,6.8276 0.21809,7.8259 1.59416,7.2979 1.3459,-0.5165 1.51381,-1.9521 1.07825,-9.2186 -0.28375,-4.73378 -1.02609,-10.85688 -1.64966,-13.60688 -2.29422,-10.11776 -2.38478,-11.57615 -0.67813,-10.92125 1.59296,0.61128 6.01701,8.47565 7.8313,13.92125 0.54972,1.65 1.29753,6.79565 1.66179,11.43478 0.63099,8.0361 0.745,8.3518 2.41229,6.6785 1.14153,-1.1455 1.72328,-3.2091 1.67315,-5.9347 -0.0995,-5.41211 -2.24922,-12.24877 -3.75075,-11.92858 -0.64482,0.1375 -1.1724,-0.65 -1.1724,-1.75 0,-2.61959 1.53721,-2.53248 4.41164,0.25 2.58142,2.49884 4.58836,7.63065 4.58836,11.73258 0,1.4762 0.28417,2.9682 0.63148,3.3155 1.33182,1.3318 4.16892,-1.3933 4.70908,-4.52317 0.31086,-1.80119 1.23756,-6.87491 2.05933,-11.27491 0.82177,-4.4 1.51798,-10.38906 1.54712,-13.30902 0.0327,-3.27285 0.43652,-5.07198 1.05299,-4.69098 0.57784,0.35712 1.00158,5.76462 1.00374,12.80902 l 0.004,12.19098 2.1313,-3.49623 c 3.06238,-5.02357 4.39901,-16.12989 3.09439,-25.71186 -1.17292,-8.61282 -3.52493,-19.33651 -4.63538,-21.13327 -0.41157,-0.66593 -0.12498,-1.15864 0.67395,-1.15864 3.76869,0 7.58855,13.96594 9.40369,34.38121 0.49424,5.55876 0.96856,6.9745 2.46807,7.36663 2.6251,0.68648 2.36151,2.21195 -1.99738,11.55921 -3.19354,6.84823 -5.12055,9.43363 -11.25,15.09343 -6.72663,6.2112 -10.92262,8.7366 -24.39638,14.6832 -5.66766,2.5013 -29.77845,9.9298 -35,10.7834 -3.3,0.5394 -7.67305,1.69 -9.71788,2.5568 -2.27642,0.965 -6.63085,1.5761 -11.23111,1.5761 -10.5566,0 -32.86241,-2.039 -34.00101,-3.108 -0.5225,-0.4906 -1.77496,-0.892 -2.78324,-0.892 -2.44573,0 -11.22727,-4.5063 -14.58067,-7.4821 -1.47735,-1.3111 -4.33536,-3.4994 -6.35113,-4.863 l -3.66505,-2.4793 -1.09457,2.6622 c -1.15619,2.8121 -3.78806,14.6518 -4.90872,22.0822 -0.88076,5.84 -2.60776,6.1779 -4.49417,0.8795 z m 4.26473,-15.6611 c 1.3166,-6.9371 2.90961,-11.1384 4.22334,-11.1384 0.46171,0 0.83948,-1.35 0.83948,-3 0,-3.6031 1.69187,-3.9407 2.96516,-0.5916 0.50361,1.3246 2.11194,3.2371 3.57407,4.25 1.46212,1.0129 4.33733,3.2873 6.38935,5.0542 3.87985,3.3407 11.97867,7.2874 14.95433,7.2874 0.9444,0 2.14459,0.4143 2.66709,0.9206 1.06162,1.0287 23.04278,3.0794 33.00809,3.0794 4.53864,0 7.55461,-0.5925 10.18073,-2 2.05236,-1.1 5.08823,-2.0094 6.74637,-2.021 4.75009,-0.033 27.07097,-7.1331 43.02124,-13.6846 11.83377,-4.8607 26.49357,-17.9508 26.49357,-23.65683 0,-1.72759 -0.77106,-1.31634 -4.75,2.53343 -2.6125,2.5277 -7,5.8203 -9.75,7.317 -2.75,1.4966 -5.45,3.0453 -6,3.4415 -1.62236,1.1686 -9.01285,3.0705 -11.93176,3.0705 -1.48485,0 -3.55406,0.4572 -4.59825,1.0161 -2.94191,1.5744 -25.63451,2.3557 -32.29528,1.1118 -3.31463,-0.619 -7.7048,-2.3563 -10.18616,-4.0309 -2.76912,-1.8689 -5.11417,-2.7462 -6.4247,-2.4035 -1.60508,0.4198 -2.06385,0.069 -2.06385,-1.5769 0,-1.1641 0.4645,-2.1166 1.03222,-2.1166 0.56773,0 1.35523,-0.8168 1.75,-1.815 3.17683,-8.03317 32.55203,-37.94222 44.54119,-45.35067 4.30287,-2.65887 8.43881,-4.83431 9.19098,-4.83431 0.75217,0 1.60596,-0.38572 1.89732,-0.85715 0.29136,-0.47142 3.21083,-1.4261 6.48772,-2.12151 4.18595,-0.88832 6.00252,-1.74871 6.10775,-2.89285 0.90518,-9.84108 1.44226,-8.5937 -11.77249,-27.34152 -7.67669,-10.89096 -18.48735,-17.89591 -27.83665,-18.03725 l -3.32661,-1.13793 -1.07143,-2.80352 c -1.09953,-2.87706 0.70356,-4.57851 3.42952,-7.30447 1.88624,-1.88624 3.79874,-4.00874 4.25,-4.71667 3.00577,-4.71537 11.08495,-11.3336 19.1467,-13.24783 3.44202,-0.8173 20.54618,-5.12665 15.60615,-5.22457 -14.96634,-0.29666 -41.37762,10.21094 -51.73326,23.96516 -1.54049,2.04605 -3.56549,3.72701 -4.5,3.73545 -6.65915,0.0602 -19.49306,1.40004 -41.0224,12.12705 -20.42311,10.17584 -24.17388,15.98425 -29.06306,20.90482 -7.11927,7.16498 -11.98633,18.39104 -15.8041,36.45278 -2.5366,12.00056 -2.63688,14.35437 -0.81483,19.12534 0.9444,2.47289 1.46049,4.75279 1.14684,5.06643 -0.31364,0.31364 -5.28273,-0.1637 -11.04243,-1.06076 -12.17459,-1.89616 -18.21009,-2.0695 -19.14921,-0.54998 -0.37206,0.60201 -1.83833,0.81561 -3.30901,0.48206 L 161,730.11199 l 2.80861,2.52039 c 2.23488,2.00554 3.56266,2.42542 6.5,2.0555 12.94747,-1.63054 14.21831,-1.63342 14.83222,-0.0336 0.92649,2.41441 -0.0266,2.76474 -7.10387,2.61128 -3.59533,-0.078 -6.53696,0.27615 -6.53696,0.78694 0,1.60466 2.2613,1.9006 10.25,1.34141 5.00878,-0.3506 7.75,-0.1776 7.75,0.48911 0,0.56737 0.9,1.26696 2,1.55456 3.17536,0.83038 2.33677,2.03818 -3.15331,4.54158 -4.66879,2.1289 -4.9749,2.4691 -3.52591,3.918 1.44899,1.449 1.92098,1.3551 5.43673,-1.0813 6.83846,-4.739 8.70171,-2.979 2.29596,2.1688 -3.7298,2.9973 -3.88705,3.3421 -2.86336,6.2787 l 1.08317,3.1072 2.29378,-4.7594 c 2.13789,-4.4358 3.87886,-6.4112 5.68294,-6.448 1.30698,-0.027 0.81261,2.4512 -1,5.0122 -2.90732,4.1076 -4.28803,11.0218 -2.77691,13.9059 1.25683,2.3987 1.30212,2.3541 2.01747,-1.9898 0.81796,-4.967 3.92579,-12.4649 5.59394,-13.4958 2.46512,-1.5236 2.56179,1.3816 0.21498,6.4604 -1.65587,3.5835 -2.76632,8.3071 -3.29125,14 -1.15733,12.5513 0.70147,13.9667 2.92895,2.2302 z M 269,706.91174 c -9.60175,-3.45102 -14.5,-9.11374 -14.5,-16.76299 0,-7.55378 3.62356,-18.91011 7.11595,-22.30156 1.58623,-1.54037 2.88405,-3.36825 2.88405,-4.06194 0,-0.69369 1.4625,-2.34708 3.25,-3.67419 4.2845,-3.181 14.42411,-3.91089 21.41643,-1.54164 9.82854,3.33026 17.25494,13.75674 17.62125,24.7398 0.19051,5.71206 -0.13509,6.90844 -3.16914,11.64479 -3.52458,5.5021 -9.09873,9.8967 -15.18954,11.97524 -4.325,1.47594 -15.3013,1.46605 -19.429,-0.0175 z m 16.20502,-6.28508 C 293.06587,697.34219 303.5,686.40121 303.5,681.44298 c 0,-3.77945 -3.67112,-10.87942 -7.59651,-14.69172 -4.31296,-4.18869 -10.74983,-5.38016 -19.91392,-3.68609 -4.82663,0.89226 -6.69675,1.85105 -10.07248,5.16408 -11.01394,10.80937 -7.17808,29.6386 6.70571,32.91655 5.32603,1.25747 8.65935,1.11994 12.58222,-0.51914 z M 330.5,681.14788 c 0,-0.55 0.19844,-1 0.44098,-1 0.24254,0 1.43339,-0.26429 1.77331,0.28571 0.33992,0.55 -0.57281,1.71429 -1.15527,1.71429 -0.58246,0 -1.05902,-0.45 -1.05902,-1 z m 5.19643,-0.81598 c 0,-0.24254 0.45,-1.3441 1,-1.68402 0.55,-0.33992 1.80357,-0.14148 1.80357,0.44098 0,0.58246 -0.45,1.05902 -1,1.05902 -0.55,0 -1.80357,0.42656 -1.80357,0.18402 z m -38.72989,69.56596 c 0.85817,-2.0625 1.28623,-3.75 0.95125,-3.75 -1.76335,0 -6.41779,4.4008 -6.41779,6.0681 0,1.0625 -0.45,1.9319 -1,1.9319 -2.29771,0 -0.66105,-2.9492 4.60746,-8.3024 5.27148,-5.3562 7.39254,-6.76142 7.39254,-4.89757 0,0.44 -0.41579,1.22747 -0.92397,1.74997 -0.95952,0.9865 -5.07464,11.3348 -5.07553,12.7633 -2.7e-4,0.4474 1.462,0.6724 3.2495,0.5 l 3.25,-0.3133 -0.0666,-9.75 c -0.0366,-5.36248 0.27201,-9.74998 0.68583,-9.74998 1.25316,0 6.88074,11.88358 6.88074,14.52988 0,1.3585 0.38026,2.4701 0.84501,2.4701 2.15047,0 4.26842,-4.2561 5.02691,-10.1018 0.4566,-3.51899 0.97898,-6.84818 1.16084,-7.39818 0.41002,-1.23999 -6.28855,-15.1306 -8.8761,-18.40609 -1.33642,-1.69174 -2.44536,-2.1971 -3.73513,-1.70217 -1.66918,0.64052 -1.59108,0.90226 0.86726,2.90609 3.47034,2.82873 8.71556,13.16371 8.69647,17.13519 l -0.0147,3.06698 -1.23526,-2.43503 c -1.04552,-2.061 -10.38007,-9.56481 -14.4875,-11.64613 -1.93623,-0.98113 -6.24777,0.44756 -6.24777,2.07027 0,0.79806 1.35,2.44911 3,3.66901 1.65,1.2199 3,2.58337 3,3.02994 0,0.44657 -2.3625,0.73992 -5.25,0.6519 -3.59846,-0.10969 -4.22762,-0.28691 -2,-0.56336 1.7875,-0.22182 3.25,-0.94156 3.25,-1.59941 0,-1.09385 -3.94203,-4.23576 -4.38688,-3.49648 -0.10567,0.17561 -1.68597,2.0784 -3.51178,4.22841 l -3.31966,3.90913 6.04488,2.83236 c 8.50882,3.98687 8.78131,5.12717 1.01989,4.26787 -3.49055,-0.3864 -7.24645,-1.0956 -8.34645,-1.57587 -1.28773,-0.5623 -0.23788,-0.6574 2.94793,-0.267 4.3022,0.52717 4.78702,0.4124 3.71496,-0.8793 -0.67813,-0.81714 -2.73731,-1.6613 -4.57594,-1.87595 -2.85633,-0.33346 -3.66722,0.0829 -5.57036,2.86035 -3.48593,5.08737 -3.21499,6.86807 0.98341,6.46327 1.925,-0.1856 5.04217,-0.9792 6.92705,-1.7637 5.03726,-2.0963 5.68841,-0.2194 1.10125,3.1743 -2.18956,1.62 -3.99166,3.2625 -4.00466,3.6501 -0.013,0.3875 1.66386,0.9869 3.72636,1.3319 2.0625,0.3449 4.2,0.7614 4.75,0.9254 1.50421,0.4485 3.22829,-1.5343 4.96654,-5.712 z m 12.34659,3.0256 c 0.3327,-2.8766 -2.43878,-9.7756 -3.92707,-9.7756 -1.00714,0 -1.17216,7.3299 -0.24311,10.7984 0.84265,3.146 3.77109,2.4277 4.17018,-1.0228 z m 8.78871,0.8196 c 0.29649,-0.7727 0.39487,-2.8043 0.21862,-4.5147 L 318,746.11856 l -2.19043,4.5146 c -2.14412,4.4193 -2.14874,4.5147 -0.21861,4.5147 1.08449,0 2.21439,-0.6322 2.51088,-1.4048 z m 11.83737,-4.9084 c 1.16296,-4.6953 -0.6793,-14.52779 -3.7492,-20.01034 -2.57037,-4.59042 -3.28069,-3.34323 -1.76682,3.10218 0.60992,2.59676 1.21421,8.44517 1.34287,12.99646 0.19041,6.7351 0.51308,8.2219 1.73394,7.9894 0.825,-0.1572 1.92265,-1.9921 2.43921,-4.0777 z M 285.5,749.17926 c 0,-0.5328 -0.675,-0.7096 -1.5,-0.393 -0.825,0.3165 -1.5,0.7524 -1.5,0.9686 0,0.2161 0.675,0.393 1.5,0.393 0.825,0 1.5,-0.4359 1.5,-0.9686 z m 53,-5.0314 c 0,-2.13507 -0.45,-4.16006 -1,-4.49998 -0.61691,-0.38127 -1,1.34261 -1,4.49998 0,3.1574 0.38309,4.8813 1,4.5 0.55,-0.3399 1,-2.3649 1,-4.5 z m -153.44113,-0.4682 c 1.8639,-1.4098 1.83497,-1.4695 -0.72708,-1.5 -3.46858,-0.041 -5.96622,0.9417 -5.26703,2.073 0.83886,1.3573 3.81863,1.0724 5.99411,-0.573 z m 135.28663,-1.97977 c 0.221,-1.14006 -0.13937,-1.62089 -1,-1.33431 -0.74002,0.24642 -1.50098,1.25011 -1.691,2.23028 -0.221,1.14 0.13937,1.6209 1,1.3343 0.74002,-0.2464 1.50098,-1.2501 1.691,-2.23027 z m 28.86508,-4.43093 c 0.36564,-2.726 0.16966,-4.12108 -0.57891,-4.12108 -0.62242,0 -1.13856,1.2375 -1.14698,2.75 -0.008,1.5125 -0.42873,3.40351 -0.93402,4.20225 -0.50529,0.79876 -0.67261,1.85046 -0.37182,2.33713 0.98051,1.5865 2.46521,-0.94447 3.03173,-5.1683 z m 9.1624,-5.81661 c 2.55468,-3.93124 2.56447,-4.94584 0.22475,-23.30447 -1.05882,-8.30811 -3.10168,-14.30357 -4.13276,-16.08929 -0.2687,-0.46536 0.39606,5.89536 0.98926,7.00369 2.76293,5.16259 1.98984,33.93759 -0.93802,34.91354 -0.55889,0.1863 -1.01617,0.7371 -1.01617,1.22401 0,1.77988 2.56085,-0.1895 4.87298,-3.74748 z m -48.18181,-4.44638 c -1.71549,-4.03984 -6.0607,-8.85809 -7.98843,-8.85809 -2.10366,0 -5.54079,4.17415 -3.90695,4.7447 0.71269,0.24887 3.85829,2.17503 6.99023,4.28034 3.13193,2.10532 5.83769,3.68459 6.01278,3.50949 0.1751,-0.1751 -0.32333,-1.8295 -1.10763,-3.67644 z m 22.52221,-14.19879 c -1.92122,-3.58458 -6.94908,-9.75989 -8.95651,-11.00055 -1.14722,-0.70902 -8.25687,2.97781 -8.25687,4.28174 0,0.40861 1.6875,1.26104 3.75,1.89428 3.48696,1.07058 5.02397,2.06767 12.0876,7.84148 3.32086,2.71447 3.83884,1.5786 1.37578,-3.01695 z m -23.23215,-0.18191 c -0.66431,-0.80045 -1.6376,-1.18976 -2.16286,-0.86514 -0.5303,0.32775 -0.14636,1.37023 0.8633,2.34411 2.06116,1.98809 3.14926,0.74978 1.29956,-1.47897 z m 32.95183,-2.72739 c -0.80674,-7.51731 -2.69419,-14.75 -3.84916,-14.75 -0.46146,0 -1.3471,0.61222 -1.96811,1.36048 -0.86096,1.03739 -0.44204,3.11537 1.76398,8.75 1.59119,4.06424 3.15506,8.17702 3.47527,9.13952 1.07162,3.22115 1.25415,1.80014 0.57802,-4.5 z m 64.1528,1.64654 c 0.82039,-0.9885 1.48861,-5.2128 1.74237,-11.01463 0.36578,-8.36345 0.23127,-9.34197 -1.20831,-8.78955 -0.89096,0.34189 -1.61992,1.06241 -1.61992,1.60115 0,0.53874 -1.34576,2.85347 -2.99058,5.14384 -3.28841,4.57903 -3.86364,7.73384 -2.1721,11.91265 1.25482,3.09992 4.18167,3.63697 6.24854,1.14654 z M 344.5,696.14788 c 0,-0.55 -0.47656,-1 -1.05902,-1 -0.58246,0 -0.7809,0.45 -0.44098,1 0.33992,0.55 4.09948,5.98763 4.34202,5.98763 0.24254,0 -2.84202,-5.43763 -2.84202,-5.98763 z"
       id="path2926"
       inkscape:connector-curvature="0"
       sodipodi:nodetypes="cssscssssscssssssssssssssssssssscsssaasssssssssssssssssscsscsssscsscssssscsssssssscsccscsssssscccscscscssccsssssssssscsssccscsccsscssssssscssssssssssscssscssscssscscssscccscscssssssssssssssssssssssssssssssssssssccccsssssssssccsssssssssscsccscsssccsccssssscsccscsssscsscsssssscsccsccssccsscscscsscssccsssscsssssssscssssssssssssssssssss"
       inkscape:export-filename="C:\cygwin\home\karlin\git\pisces_dentata\assets\female_angler.png"
       inkscape:export-xdpi="90"
       inkscape:export-ydpi="90" />
    <path
       style="fill:#000000"
       d="m 50.315303,1041.3044 c -5.21453,-16.8808 -9.37344,-36.1863 -24.842057,-46.91426 -5.07048,-3.9453 -23.0144701,-12.709 -13.95491,-17.9359 10.05223,-0.3556 24.689767,3.2269 31.837687,-0.6236 1.04526,-10.576 1.64726,-21.1038 5.52145,-31.163 4.77225,-16.9644 15.90344,-32.1922 31.74289,-40.3193 14.62267,-9.32297 31.060447,-16.24521 48.461337,-17.7751 13.51572,-4.50794 20.1907,-19.58917 34.40943,-23.25355 16.15745,-6.56144 34.87676,-8.31732 51.6181,-3.09604 16.59894,7.31629 27.66504,22.65597 38.32153,36.67278 7.31222,10.25871 10.72135,23.05781 8.81555,35.56111 0.006,10.9675 5.80919,24.6766 -3.94049,33.1454 -16.11281,0.885 -8.8376,-22.474 0.23728,-28.3468 1.30452,-12.828 1.78471,-27.3194 -7.58957,-37.4838 -9.93602,-13.54956 -20.31487,-28.58435 -36.0546,-35.63525 -14.09499,-2.40519 -28.9958,1.13287 -41.88421,6.83893 -6.87361,4.10097 -21.97792,14.0739 -18.98698,19.90166 11.80726,3.91111 24.04763,10.01306 30.14469,21.42186 11.03031,10.4614 14.391,26.0495 12.24039,40.6472 0.35296,7.6885 -1.17438,24.6567 3.49612,26.2317 6.13123,-10.3508 5.33715,-23.7006 4.32651,-35.1499 -0.67046,-14.9278 7.54728,5.619 7.05284,10.4265 -0.99895,13.8699 10.48595,28.8088 -0.17599,40.7451 -16.29291,22.25476 -44.41472,29.30766 -69.79914,35.51516 -17.81913,6.1106 -37.04235,3.8397 -55.085127,0.088 -10.86606,0.8555 -18.95907,-18.5058 -27.73197,-9.8427 -3.32095,3.1048 -0.64518,29.784 -8.18076,20.3436 z m 4.26473,-15.6611 c 0.64104,-6.694 6.46233,-22.8575 12.3789,-9.8396 14.97074,14.7788 37.444347,15.4702 57.197037,15.4969 21.7935,-4.2501 43.24578,-10.68 63.67258,-19.3544 7.67026,-4.4147 16.19838,-10.9379 18.02542,-19.88156 -6.16061,-5.7533 -12.41265,-12.9897 -13.74886,-22.2036 -3.69763,-12.7989 3.53037,-25.9845 -1.45464,-38.574 -4.30583,-12.2095 -12.51864,-23.2829 -22.64582,-31.1608 -7.92125,-3.33761 -26.61504,-6.13563 -14.92123,-17.54831 7.48501,-11.87553 21.03121,-16.72658 34.0171,-19.72134 5.37546,-4.05397 -13.13939,0.18147 -16.90276,1.93373 -12.24721,4.21369 -23.51898,11.37488 -32.29487,20.92615 -13.26868,6.32254 -29.00688,5.2841 -41.573997,13.60377 -19.55042,8.9673 -38.69771,23.6069 -44.06173,45.5191 -5.25697,11.7445 -3.64466,25.082 -5.5509,36.5887 -10.0036,1.6453 -20.808197,-4.5042 -31.145157,-0.626 -3.57065,6.5666 18.72538,3.1343 15.34714,5.0936 -13.13067,4.3362 13.989307,-2.4628 9.795237,8.3923 -6.145107,6.12156 -0.34712,7.64176 5.38726,3.7577 2.06575,0.9076 -10.05272,9.44926 0.5177,10.67306 13.21154,-1.2619 -0.53203,22.6762 6.9936,21.3768 0.38789,-1.4696 0.6397,-2.9693 0.96799,-4.4522 z M 188.83929,929.00504 c 5.34026,-0.6254 -3.16153,3.692 0,0 z m 69.88943,32.8965 c 3.96472,-5.1491 2.59407,-26.3274 -4.66337,-12.9469 -3.43083,3.9233 -3.83874,18.376 4.66337,12.9469 z"
       id="path2928"
       inkscape:connector-curvature="0" />
    <path
       style="fill:#000000"
       d="m 209.80567,531.0727 c -15.19156,0.19627 -30.08888,3.62569 -43.35576,11.04181 -10.47948,4.59853 -19.04155,12.38674 -30.14424,15.73944 -12.99011,6.2768 -24.72768,15.08731 -36.03125,23.96875 -3.157696,3.05763 -5.275276,7.33373 -10.343746,7.5625 -9.70421,3.039 -19.149445,7.19322 -28.125005,11.75 -1.86313,3.01535 -3.0159,10.04674 1.875,10.375 2.53676,-0.55732 2.96017,-0.78978 1.65625,1.59375 0.21682,5.11094 7.90528,0.1553 8.03125,4.96875 1.17064,1.80297 3.33764,2.27758 3.125,4.71875 2.993485,5.7898 10.475825,3.8943 15.093755,1.59375 7.97104,-2.3669 14.899676,-7.82391 22.999996,-9.4375 3.65173,1.06241 6.2345,5.72497 10.8125,4.1875 12.11721,-2.3784 24.3065,-5.28221 35.83652,-9.86847 9.80499,-2.43709 20.13531,-5.17537 30.22598,-3.88153 3.73211,2.28704 7.97509,3.95973 12.15625,5.0625 18.01779,9.601 40.22883,4.95984 56.4375,-5.96875 5.07828,-3.54371 14.61568,-7.48783 12.21875,-15.34375 -1.33521,-4.04444 -6.7818,-4.544 -9.71875,-4.09375 3.27112,-2.88014 7.37549,-7.39166 4.1875,-11.875 -4.32477,-9.43801 -7.98055,-19.5794 -14.25,-27.875 -11.79823,-10.24413 -27.0618,-15.16355 -42.6875,-14.21875 z m 0.1875,5.6875 c 12.71605,-0.49425 26.22864,1.49127 35.73304,10.70737 8.26524,6.98038 11.13517,18.25973 16.64196,27.32388 2.7732,6.29716 -10.48356,7.93019 -7.1875,14.28125 2.91856,3.2084 8.88645,0.12872 11.5625,2 -1.38441,5.39348 -8.69663,6.2576 -12.84375,8.96875 -12.88702,7.17144 -29.12006,13.19781 -43.1395,5.85985 -11.37483,-6.18358 -24.50587,-10.2506 -37.45425,-6.92235 -14.01704,2.54809 -27.13798,8.66601 -40.59375,12.59375 -4.44428,0.99178 -9.60355,1.6245 -13.03125,-2 -8.93526,-4.14963 -17.98538,2.8095 -25.656246,6.59375 -2.40467,1.35218 -4.22662,2.30654 -2.9375,-1.0625 0.17158,-8.44863 -9.56947,-12.29029 -16.656255,-13.09375 8.187645,-4.09435 17.104915,-6.35205 25.218755,-10.3125 4.884216,-3.55092 7.333636,-9.75501 13.312956,-12.09851 11.22781,-7.4528 21.71184,-16.2883 34.68704,-20.55774 9.82379,-5.34978 18.99295,-12.08949 29.75,-16 10.2917,-4.75667 21.24356,-6.76 32.59375,-6.28125 z m 34.5625,32.0625 c -6.08117,0.67568 -6.9222,9.46597 -1.71875,12.0625 4.80562,3.12481 9.97363,-2.96068 7.75,-7.75 -0.59779,-2.62795 -3.32674,-4.63945 -6.03125,-4.3125 z"
       id="path2930"
       inkscape:connector-curvature="0"
       inkscape:export-filename="C:\cygwin\home\karlin\git\pisces_dentata\assets\male_angler.png"
       inkscape:export-xdpi="94.045204"
       inkscape:export-ydpi="94.045204" />
  </g>
</svg>
