<?xml version="1.0" encoding="UTF-8" standalone="no"?>
<!-- Created with Inkscape (http://www.inkscape.org/) -->

<svg
   xmlns:dc="http://purl.org/dc/elements/1.1/"
   xmlns:cc="http://creativecommons.org/ns#"
   xmlns:rdf="http://www.w3.org/1999/02/22-rdf-syntax-ns#"
   xmlns:svg="http://www.w3.org/2000/svg"
   xmlns="http://www.w3.org/2000/svg"
   xmlns:sodipodi="http://sodipodi.sourceforge.net/DTD/sodipodi-0.dtd"
   xmlns:inkscape="http://www.inkscape.org/namespaces/inkscape"
   width="744.09448819"
   height="1052.3622047"
   id="svg2"
   version="1.1"
   inkscape:version="0.47+devel r9192"
   sodipodi:docname="fishies.svg">
  <defs
     id="defs4" />
  <sodipodi:namedview
     id="base"
     pagecolor="#ffffff"
     bordercolor="#666666"
     borderopacity="1.0"
     inkscape:pageopacity="0.0"
     inkscape:pageshadow="2"
     inkscape:zoom="1"
     inkscape:cx="489.4952"
     inkscape:cy="325.13706"
     inkscape:document-units="px"
     inkscape:current-layer="layer1"
     showgrid="false"
     inkscape:window-width="1680"
     inkscape:window-height="1030"
     inkscape:window-x="-4"
     inkscape:window-y="-4"
     inkscape:window-maximized="1" />
  <metadata
     id="metadata7">
    <rdf:RDF>
      <cc:Work
         rdf:about="">
        <dc:format>image/svg+xml</dc:format>
        <dc:type
           rdf:resource="http://purl.org/dc/dcmitype/StillImage" />
        <dc:title></dc:title>
      </cc:Work>
    </rdf:RDF>
  </metadata>
  <g
     inkscape:label="Layer 1"
     inkscape:groupmode="layer"
     id="layer1">
    <path
       style="fill:#000000"
       d="m 394.79775,772.21844 c -1.34684,-4.82497 -0.55193,-8.89074 -2.49996,-13.47733 -1.43489,-3.37842 -2.23842,-6.98838 -3.12602,-10.54659 0.62387,-1.81644 3.17606,-2.11044 4.5625,-1 8.78547,2.62481 15.99865,9.33668 20.15625,17.40625 1.1376,0.47225 1.47158,2.42851 1.40625,-2.09375 -0.74962,-8.08503 -4.75894,-15.47975 -9.8125,-21.6875 -0.55807,-1.01424 -1.56472,-1.75398 -1.9375,-2.875 2.32819,-0.89119 4.54254,-2.15649 7.03125,-2.5625 5.44993,9.36468 8.35698,20.05942 9.28125,30.8125 0.20395,1.21032 0.83374,0.92434 1.18905,-1.6383 1.24333,-8.96761 0.7048,-16.91624 -0.8453,-25.7992 -0.70597,-0.58377 -0.27934,-2.16101 0.75,-1.9375 2.57736,2.86779 3.22581,4.29092 5.32395,7.4734 2.80725,3.90074 1.91755,2.78566 1.53125,0.3292 -1.26872,-8.0677 -5.35061,-15.178 -5.7927,-23.4276 -2.06726,-7.89012 -7.34993,-14.31103 -11.9079,-20.88546 -5.45317,-7.48791 -12.43691,-14.23218 -21.16709,-17.68485 -3.43201,-1.43791 -6.95735,-2.63635 -10.45626,-3.89844 -0.57845,-2.14808 1.22961,-3.93226 2.75,-5.15625 7.50178,-8.65527 17.26872,-15.62265 28.3961,-18.66934 9.20571,-2.30058 18.75955,-3.91674 28.2675,-2.99422 2.97552,0.25411 5.89604,1.14296 8.36765,2.85106 4.10658,2.74574 7.45745,6.43002 11.01139,9.82389 9.02675,9.19829 17.18777,19.32148 23.69376,30.46541 3.54684,6.98957 3.95183,15.0096 3.8261,22.70131 -0.0172,5.42616 -1.93924,10.89873 -5.65113,14.89985 -3.07174,4.04806 -5.6066,9.09288 -4.81472,14.31301 0.70506,3.66578 3.79805,7.2301 7.74178,7.21885 4.16736,-0.36829 6.34065,-4.72058 6.6917,-8.76137 1.5475,-17.81278 -0.0831,-27.66915 -1.65939,-41.40955 -1.14332,-8.53587 -5.8277,-16.04215 -10.90709,-22.79624 -7.59769,-10.30153 -16.47482,-19.65891 -26.31141,-27.84298 -6.4006,-4.90726 -14.42909,-7.53877 -22.47057,-7.70324 -4.71912,-0.32751 -9.45462,-0.23867 -14.18167,-0.22144 -12.06385,1.67753 -23.97194,5.34026 -34.4375,11.65625 -4.88605,3.03942 -9.11838,6.97697 -13.28163,10.9144 -3.2342,2.90589 -7.00179,5.53309 -11.41151,6.13495 -6.12065,1.26032 -12.38429,2.04823 -18.2509,4.30568 -12.78715,4.21196 -24.60975,10.87465 -35.7962,18.27692 -8.95943,6.27688 -16.48331,14.79017 -21.00109,24.79631 -4.5732,10.55338 -6.94005,21.90522 -8.71172,33.22263 -0.32114,3.35522 -0.4361,6.72961 -0.35945,10.09911 -0.90881,2.13016 -3.61395,1.81597 -5.31674,2.90004 -5.64111,2.98613 -11.326,5.50489 -16.88459,8.62049 -1.37905,0.95366 -2.83701,1.7833 -4.26433,2.66171 -4.7662,2.93322 -4.16087,2.69516 -2.6875,4.46875 1.01741,2.85439 5.05537,3.57069 7.04248,5.53482 3.1324,3.27003 7.30602,8.63338 9.7515,12.31396 3.17235,5.99693 7.09053,10.51271 8.76524,17.02413 0.52284,2.25462 0.52317,3.22951 2.76759,-0.41323 3.00258,-2.51575 5.7756,-4.42881 8.91045,-6.41541 2.86594,-1.81619 5.72729,-3.36833 7.4159,-6.19526 1.23297,-1.14557 3.06605,-0.53013 4.18471,0.44547 3.05593,2.05913 5.9063,4.41854 9.07673,6.31411 6.37173,4.04293 13.54806,6.95607 21.07837,7.82388 11.20755,1.83456 22.63993,2.31944 33.96023,1.43175 11.7318,-1.53357 22.93177,-5.51897 34.25569,-8.76922 12.38709,-3.75557 24.67147,-8.52712 35.23449,-16.15124 8.75151,-6.43819 15.94161,-15.46251 18.84995,-26.04577 0.7724,-2.64455 -0.94587,-5.01154 -1.98392,-7.29898 -0.99061,-2.22198 -0.89502,-4.73076 -1.36079,-7.08735 -1.28197,-9.83909 -1.7998,-18.82658 -7.01809,-28.3127 -5.44761,-8.04714 -2.46589,-2.2584 -1.22468,1.07883 1.25563,4.973 1.44497,8.53251 2.17611,13.61678 1.29629,8.85624 1.43683,18.08116 -1.15223,26.72472 -0.49673,1.57734 -1.16291,3.09235 -1.82657,4.60472 -1.20453,0.4824 -1.97963,-1.15321 -1.5625,-2.125 0.39375,-6.58324 -0.002,-13.17916 -0.4375,-19.75 -1.15698,-0.25566 -0.53582,2.40657 -0.88645,4.23546 -1.83413,9.56677 -2.27189,17.44014 -5.36355,26.73329 -0.52923,1.00489 -1.51775,1.85842 -2.6875,1.9375 -1.90243,-4.55191 -1.84769,-9.98672 -5.25,-13.84375 -1.02365,-1.28416 -2.38318,-2.21457 -3.65625,-3.25 -3.11352,-2.53231 -0.53762,0.60704 0.3521,2.86015 2.27801,5.76871 3.89469,12.21129 1.55415,17.9836 -0.63978,0.99493 -2.41176,0.15044 -2.09375,-0.96875 -0.75339,-8.68189 -1.89815,-17.6521 -6.30693,-25.33849 -1.03192,-1.77836 -2.26158,-3.4334 -3.50557,-5.06776 -1.23279,-0.20814 -1.69685,1.50121 -1.15625,2.375 1.80307,9.96197 3.97061,20.035 3.1875,30.21875 -0.35249,1.32116 -2.16126,0.6109 -2.15625,-0.75 0.0202,-5.48196 0.26573,-6.44119 -1.19921,-11.68926 m 17.19921,-128.31074 c -0.71663,1.80579 -2.98696,1.58695 -4.48931,2.29644 -8.26206,2.11913 -16.78259,4.66003 -23.40076,10.28978 -5.08322,4.18924 -9.07403,9.48254 -13.07868,14.66378 -1.06321,3.52438 2.20399,7.2864 5.77229,7.22678 9.43545,1.90685 17.74957,7.76552 23.66186,15.2422 5.67374,6.93203 10.98739,14.39583 13.99023,22.91034 1.3973,3.02751 -0.10088,6.75697 -2.84575,8.46161 -1.59644,1.05067 -3.55883,1.24129 -5.2829,2.02743 -4.85484,1.73784 -9.68879,3.7172 -13.88023,6.77476 -10.80353,6.83318 -19.94413,15.88501 -28.71002,25.10131 -7.17878,7.48113 -14.01858,15.34604 -19.70548,24.03682 -0.21808,1.76195 1.79246,2.60244 3.25,2.71875 6.24366,1.89742 11.97623,5.81391 18.6826,5.91505 13.78319,0.72462 27.69661,-0.66922 41.02241,-4.28436 8.71894,-2.76492 15.9706,-8.60434 22.88874,-14.38069 1.02058,-0.54945 2.16857,0.74576 1.44721,1.67871 -0.7817,1.46915 -1.98045,2.66981 -2.92984,4.03069 -6.37424,8.01357 -15.03718,13.99461 -24.44596,17.91276 -13.88369,6.29591 -28.68604,10.15356 -43.30656,14.30611 -7.93721,2.18384 -16.20045,3.62521 -24.45364,2.8838 -7.23074,-0.47808 -14.47379,-1.10255 -21.61038,-2.3824 -10.5217,-2.10557 -20.40674,-7.45381 -27.74061,-15.3132 -1.28624,-1.16811 -2.30497,-2.67923 -3.71022,-3.67897 -1.05987,-0.3347 -1.98355,0.74872 -2.06006,1.73516 -1.42354,4.12362 -4.8166,7.14305 -8.39666,9.4331 -2.55535,1.77909 -6.29493,3.49642 -8.18777,5.77821 -0.73974,0.89174 -1.53657,-0.12945 -1.71347,-1.06723 -0.0676,-0.35853 -1.17909,-0.29203 1.65685,-5.63295 1.14375,-1.8493 13.57722,-10.66986 14.62314,-12.57488 -1.14863,-1.32556 -3.06775,-0.2207 -3.875,0.9375 -3.08063,3.35382 -11.95741,6.8263 -15.18905,10.0362 -0.33298,0.93579 0.0793,2.19054 -0.875,2.84375 -1.064,-0.45314 -2.72615,-2.17455 -2.012,-3.53201 -0.10164,-1.72317 3.95787,-8.25416 5.41137,-9.12262 2.53737,-2.50269 5.10844,1.34155 6.96821,-1.71821 -0.20636,-1.2169 -3.53194,-3.5737 -4.05941,-2.72401 -3.78671,2.88603 -4.77719,3.53522 -9.22556,5.57148 -1.44773,0.72331 -3.41724,1.65416 -4.875,0.46875 -1.04317,-1.61076 0.41979,-3.60953 1.90757,-4.31144 2.838,-1.73332 6.38794,-2.16599 8.81942,-4.56813 1.29888,-1.03128 0.55794,0.47704 0.99392,-1.17891 -0.31328,-1.06349 -1.71035,-2.19545 -2.28841,-1.53892 -4.40811,1.94905 -7.30401,6.9614 -12.26863,6.36777 -1.31195,-0.1289 -3.40101,-2.38491 -2.13674,-2.40245 1.07767,-0.21126 5.0934,-4.12237 6.11103,-4.54098 3.58261,-0.82892 4.66198,-1.14449 7.80398,-3.03239 1.15507,-0.36504 3.14357,-3.24084 1.91689,-2.98495 -1.07372,0.006 -2.10684,-0.7692 -3.12502,-0.3601 -5.34674,1.49745 -11.26332,7.46468 -16.16034,7.83675 -4.25844,0.32355 7.84022,-5.8963 11.08454,-8.47159 0.64283,-0.49276 2.54409,-1.01433 1.82134,-2.01991 -0.66543,-0.71406 -1.80896,-0.34335 -2.26157,0.39261 -4.29198,2.56143 -8.56209,5.187 -13.12423,7.25014 -0.88794,-0.58215 -0.47914,-2.35628 0.65625,-2.28125 7.89523,-5.18978 17.25746,-8.10614 25.98867,-11.81184 1.19929,-0.32844 2.51711,-0.35856 3.57074,-1.08915 0.62921,-3.47052 -1.91388,-6.63688 -1.28125,-10.12031 -0.0845,-7.9607 2.51459,-15.58369 4.33459,-23.24204 2.83183,-10.03309 7.28804,-19.88142 14.6358,-27.43414 8.68279,-9.26238 19.7102,-15.95347 31.13315,-21.29312 8.78118,-4.0862 18.02304,-7.13725 27.45582,-9.30826 4.55164,-1.20749 9.75126,-1.13953 13.51609,-4.34708 3.449,-3.13643 6.58775,-6.65421 10.48826,-9.26321 9.54159,-6.85456 20.64175,-11.33851 32.10314,-13.76271 2.94433,-0.6146 5.91056,-1.13682 8.89565,-1.51038 z m -61.0625,46.5625 c -6.73824,0.52454 -12.63581,5.32664 -15.38185,11.37139 -4.84059,7.25252 -7.32611,16.24438 -6.05565,24.94111 2.10369,6.93475 8.565,11.92235 15.52145,13.35539 10.04613,2.46885 21.44033,-0.16237 28.8575,-7.52466 6.22886,-6.11879 8.32537,-15.88282 5.4397,-24.08274 -3.3909,-10.03562 -13.27046,-17.65422 -23.9124,-17.99799 -1.4902,-0.0105 -2.97616,-0.16791 -4.46875,-0.0625 z m 7.96875,5.28125 c 7.62297,0.64321 14.38454,6.19332 17.18281,13.20468 1.76938,4.60847 0.29106,10.03531 -3.13092,13.48629 -4.74615,6.08943 -11.45437,11.07913 -19.2274,12.25884 -8.57039,1.13342 -17.43536,-4.98604 -19.35375,-13.42872 -2.24244,-8.93586 2.30447,-19.22813 10.71676,-23.17734 4.23451,-2.18304 9.13863,-2.47513 13.8125,-2.34375 z m 52.1875,15.9375 c -1.10745,-0.18787 -1.26655,1.97545 -0.0625,1.78125 0.92585,0.30769 2.01951,-1.17627 1.0625,-1.78125 -0.33426,-0.0344 -0.66564,-0.0329 -1,0 z m -5.40625,1.53125 c -1.40091,-0.0351 -0.95345,2.58831 0.34375,2.09375 1.19967,-0.16919 0.94519,-2.43485 -0.34375,-2.09375 z m 77.28921,10.55454 c 1.84368,3.46783 1.41549,7.31271 1.34585,11.0117 -0.0452,2.402 -1.8621,11.23054 -4.12434,11.70689 -5.81459,1.22434 -7.83968,-1.92607 -7.54993,-4.99188 -0.29172,-6.07817 1.74421,-12.08005 7.41083,-16.61747 0.1381,-0.11058 2.69087,-1.19137 2.91759,-1.10924 z m -53.35171,5.28921 c 3.02772,9.82435 4.3857,20.13714 4.34375,30.40625 -0.32939,3.03157 -1.77013,5.88288 -3.8125,8.125 -0.0656,1.25971 -2.4761,0.56202 -1.6875,-0.5 2.84659,-6.80187 2.36427,-14.31808 2.54773,-21.52596 -0.47227,-6.12751 -1.19338,-12.23255 -2.04773,-18.31779 0.21875,0.60417 0.4375,1.20833 0.65625,1.8125 z m -11.875,-0.46875 c 1.61222,1.23764 3.38696,5.95883 4.36696,7.63026 -1.6602,-1.31158 -4.23117,-5.79585 -4.71071,-7.84901 0.11458,0.0729 0.22917,0.14583 0.34375,0.21875 z m -4.96875,0.0312 c 3.16222,5.58178 3.21645,12.15581 4.09375,18.34375 -0.48234,0.95162 -1.06724,-0.8342 -1.34375,-1.25 -2.27558,-4.53516 -3.46574,-9.49702 -4.875,-14.34375 -0.12444,-1.24664 0.56518,-2.80295 1.96875,-2.875 l 0.14275,0.1142 z m -14.9375,6.625 c 4.74437,3.49846 7.78361,8.71186 10.40625,13.875 0.0676,1.11294 -1.72859,1.33256 -2.125,0.375 -4.70382,-3.93947 -9.75483,-7.76301 -15.71875,-9.53125 -0.75669,-0.78298 -0.12012,-2.23495 0.9375,-2.3125 1.75402,-1.37233 3.86125,-2.26461 6.0625,-2.59375 0.14583,0.0625 0.29167,0.125 0.4375,0.1875 z m -15.9375,9.5938 c 1.4808,0.21808 6.05204,8.88008 4.37089,7.41253 -0.97933,-0.8549 -5.30157,-5.72587 -4.65214,-7.41253 l 0.125,-0.0312 z m -2.5,3.8125 c 3.73291,1.22991 5.70471,4.97672 7.1875,8.34375 1.8317,3.66337 2.84058,6.21988 4.35678,10.02419 1.31997,5.37194 -0.40235,13.07544 -3.60678,18.13206 -0.3491,1.28982 -2.69811,0.89674 -2.5,-0.46875 -1.07668,-5.13342 -7.1806,-15.46576 -6.80847,-13.53032 0.26368,1.37141 -0.0185,0.84099 -0.0393,2.21534 -0.0736,4.8537 -1.04474,9.77413 -0.80843,14.62748 -1.39467,1.42881 -3.54749,1.05671 -5.34375,1 -1.06648,-3.06413 0.75536,-6.03852 1.96875,-8.75 0.89828,-1.95724 2.23881,-3.76792 2.6875,-5.875 0.4966,-2.33206 0.60606,-2.44855 -2.25,-0.0625 -4.04206,3.37688 -8.8539,9.28405 -11.6021,13.82921 -0.35241,1.07236 2.28114,1.00852 2.2698,-0.17358 0.53783,-3.03398 3.62356,-6.76087 6.11355,-8.28063 6.02012,-8.31599 1.15455,2.08202 0.3125,2.78125 -1.06618,2.15291 -1.90665,4.72312 -4.15625,5.9375 -2.90797,0.50542 -5.69029,-0.79613 -8.5,-1.3125 -0.95119,-0.96222 0.0902,-2.41425 1.125,-2.78125 1.69489,-1.34888 3.47351,-2.65461 4.78125,-4.40625 -0.24644,-1.28722 -0.50747,-0.18081 -3.10365,0.0897 -3.57526,0.37255 -6.68473,1.68899 -10.33385,1.31652 -1.24907,-1.81796 0.2328,-3.90125 1.03125,-5.65625 2.31694,-5.09263 6.07592,-4.31028 9.125,-2.53125 1.32321,-0.31713 1.3595,2.29946 0.0312,2 -1.46234,0.0286 -9.17737,-2.15331 -9.08694,-0.37253 3.35427,2.17997 12.2812,1.27372 15.99319,2.18503 1.11756,-0.48666 0.16258,-0.81254 -1.40718,-1.66027 -3.13455,-1.43675 -5.42954,-3.57949 -8.49907,-5.15223 0.0396,-2.83485 2.77863,-4.37959 4.24076,-6.48523 0.66782,-0.86496 1.52631,-2.38034 2.83352,-1.72401 1.14708,0.4667 1.94549,1.45188 2.86322,2.24049 3.46522,2.97768 -6.93954,-0.18214 -7.96782,1.2104 -0.80113,1.08491 7.70162,1.60569 8.68188,1.7271 0.94188,-0.005 1.9378,0.0479 2.78594,-0.4375 -0.75794,-1.64921 -1.66453,-2.90915 -2.84009,-3.98794 -0.8046,-0.65718 -1.59519,-1.35711 -2.12866,-2.26206 1.14666,-3.05881 5.63624,-3.69071 7.84375,-1.4375 4.37795,2.8066 8.4164,6.13832 12.0625,9.84375 1.5928,1.24685 1.92006,1.58323 1.75,0.28125 -1.05567,-6.77254 -4.5793,-12.93735 -9.0625,-18.03125 -1.17111,-0.13405 -1.429,-2.52706 0,-2.40625 z m -2.90625,2.96875 c 3.94555,1.67994 6.09328,5.64918 8.0625,9.21875 1.15083,0.74998 -0.4609,2.70618 -1.40625,1.71875 -3.52927,-1.94687 -6.86687,-4.21385 -10.34375,-6.25 -0.96656,-2.29877 1.38543,-4.80529 3.6875,-4.6875 z m 21.71875,8.03125 c 4.59477,6.53336 6.91193,14.88627 5.375,22.8125 -0.53136,1.09204 -0.66665,2.55973 -1.84375,3.1875 -1.46266,-0.12083 -1.85447,-1.94628 -1.5,-3.125 -0.60242,-7.58673 -1.26591,-15.17059 -2.25,-22.71875 0.0322,-0.079 0.11914,-0.18158 0.21875,-0.15625 z m 24.6875,7.75 c 0.96331,2.57161 -0.16622,5.25763 -0.84375,7.75 -0.56095,0.90002 -2.35486,-0.19661 -1.59375,-1.0625 0.82345,-2.35686 0.97587,-4.93881 2.1875,-7.15625 0.0833,0.15625 0.16667,0.3125 0.25,0.46875 z m -11.03125,5.875 c 1.21473,2.44744 0.75845,5.27385 0.25,7.84375 -0.94932,0.56323 -1.82737,-0.89166 -1.34375,-1.6875 -0.0458,-2.2048 -0.56096,-4.69573 0.8125,-6.625 0.0937,0.15625 0.1875,0.3125 0.28125,0.46875 z m -32,3.5625 c 2.81293,2.89758 4.08225,7.34366 2.75,11.21875 -1.50032,1.31149 -4.13903,-0.54758 -3.5,-2.40625 -0.2402,-2.91749 -0.63654,-6.01152 0.5625,-8.78125 l 0.0937,-0.0312 z m 9.21875,9.21875 c 0.47929,-2.07569 2.89496,-10.9306 3.59715,-14.33168 3.61246,8.41967 1.20253,14.29637 -3.59715,14.33168 z m -30.6875,-4.34375 c 9.5197,-3.39511 0.91002,1.87909 -0.4375,1.96875 -5.09379,0.33893 -0.58743,-2.0961 0.4375,-1.96875 z"
       id="path2926"
       inkscape:connector-curvature="0"
       sodipodi:nodetypes="csssscsscsssscsscssssscsssssssscsccssscssssscssscccsssssssssssccssaasssssssssssssscscsssssscccscscscssccsssssssssscsssccscsccsscssssssscssssssssssscssscssscssscscssssccscscssssssssssssssssssssssssssssssssssssccccsssssssssccsssssssssscsccscsssccsccssscscscsccssscssscsssssscsccsccccccc"
       inkscape:export-filename="C:\cygwin\home\karlin\git\pisces_dentata\assets\female_angler.png"
       inkscape:export-xdpi="90"
       inkscape:export-ydpi="90" />
    <path
       style="fill:#000000"
       d="m 50.315303,1041.3044 c -5.21453,-16.8808 -9.37344,-36.1863 -24.842057,-46.91426 -5.07048,-3.9453 -23.0144701,-12.709 -13.95491,-17.9359 10.05223,-0.3556 24.689767,3.2269 31.837687,-0.6236 1.04526,-10.576 1.64726,-21.1038 5.52145,-31.163 4.77225,-16.9644 15.90344,-32.1922 31.74289,-40.3193 14.62267,-9.32297 31.060447,-16.24521 48.461337,-17.7751 13.51572,-4.50794 20.1907,-19.58917 34.40943,-23.25355 16.15745,-6.56144 34.87676,-8.31732 51.6181,-3.09604 16.59894,7.31629 27.66504,22.65597 38.32153,36.67278 7.31222,10.25871 10.72135,23.05781 8.81555,35.56111 0.006,10.9675 5.80919,24.6766 -3.94049,33.1454 -16.11281,0.885 -8.8376,-22.474 0.23728,-28.3468 1.30452,-12.828 1.78471,-27.3194 -7.58957,-37.4838 -9.93602,-13.54956 -20.31487,-28.58435 -36.0546,-35.63525 -14.09499,-2.40519 -28.9958,1.13287 -41.88421,6.83893 -6.87361,4.10097 -21.97792,14.0739 -18.98698,19.90166 11.80726,3.91111 24.04763,10.01306 30.14469,21.42186 11.03031,10.4614 14.391,26.0495 12.24039,40.6472 0.35296,7.6885 -1.17438,24.6567 3.49612,26.2317 6.13123,-10.3508 5.33715,-23.7006 4.32651,-35.1499 -0.67046,-14.9278 7.54728,5.619 7.05284,10.4265 -0.99895,13.8699 10.48595,28.8088 -0.17599,40.7451 -16.29291,22.25476 -44.41472,29.30766 -69.79914,35.51516 -17.81913,6.1106 -37.04235,3.8397 -55.085127,0.088 -10.86606,0.8555 -18.95907,-18.5058 -27.73197,-9.8427 -3.32095,3.1048 -0.64518,29.784 -8.18076,20.3436 z m 4.26473,-15.6611 c 0.64104,-6.694 6.46233,-22.8575 12.3789,-9.8396 14.97074,14.7788 37.444347,15.4702 57.197037,15.4969 21.7935,-4.2501 43.24578,-10.68 63.67258,-19.3544 7.67026,-4.4147 16.19838,-10.9379 18.02542,-19.88156 -6.16061,-5.7533 -12.41265,-12.9897 -13.74886,-22.2036 -3.69763,-12.7989 3.53037,-25.9845 -1.45464,-38.574 -4.30583,-12.2095 -12.51864,-23.2829 -22.64582,-31.1608 -7.92125,-3.33761 -26.61504,-6.13563 -14.92123,-17.54831 7.48501,-11.87553 21.03121,-16.72658 34.0171,-19.72134 5.37546,-4.05397 -13.13939,0.18147 -16.90276,1.93373 -12.24721,4.21369 -23.51898,11.37488 -32.29487,20.92615 -13.26868,6.32254 -29.00688,5.2841 -41.573997,13.60377 -19.55042,8.9673 -38.69771,23.6069 -44.06173,45.5191 -5.25697,11.7445 -3.64466,25.082 -5.5509,36.5887 -10.0036,1.6453 -20.808197,-4.5042 -31.145157,-0.626 -3.57065,6.5666 18.72538,3.1343 15.34714,5.0936 -13.13067,4.3362 13.989307,-2.4628 9.795237,8.3923 -6.145107,6.12156 -0.34712,7.64176 5.38726,3.7577 2.06575,0.9076 -10.05272,9.44926 0.5177,10.67306 13.21154,-1.2619 -0.53203,22.6762 6.9936,21.3768 0.38789,-1.4696 0.6397,-2.9693 0.96799,-4.4522 z M 188.83929,929.00504 c 5.34026,-0.6254 -3.16153,3.692 0,0 z m 69.88943,32.8965 c 3.96472,-5.1491 2.59407,-26.3274 -4.66337,-12.9469 -3.43083,3.9233 -3.83874,18.376 4.66337,12.9469 z"
       id="path2928"
       inkscape:connector-curvature="0" />
    <path
       style="fill:#000000"
       d="m 209.80567,531.0727 c -15.19156,0.19627 -30.08888,3.62569 -43.35576,11.04181 -10.47948,4.59853 -19.04155,12.38674 -30.14424,15.73944 -12.99011,6.2768 -24.72768,15.08731 -36.03125,23.96875 -3.157696,3.05763 -5.275276,7.33373 -10.343746,7.5625 -9.70421,3.039 -19.149445,7.19322 -28.125005,11.75 -1.86313,3.01535 -3.0159,10.04674 1.875,10.375 2.53676,-0.55732 2.96017,-0.78978 1.65625,1.59375 0.21682,5.11094 7.90528,0.1553 8.03125,4.96875 1.17064,1.80297 3.33764,2.27758 3.125,4.71875 2.993485,5.7898 10.475825,3.8943 15.093755,1.59375 7.97104,-2.3669 14.899676,-7.82391 22.999996,-9.4375 3.65173,1.06241 6.2345,5.72497 10.8125,4.1875 12.11721,-2.3784 24.3065,-5.28221 35.83652,-9.86847 9.80499,-2.43709 20.13531,-5.17537 30.22598,-3.88153 3.73211,2.28704 7.97509,3.95973 12.15625,5.0625 18.01779,9.601 40.22883,4.95984 56.4375,-5.96875 5.07828,-3.54371 14.61568,-7.48783 12.21875,-15.34375 -1.33521,-4.04444 -6.7818,-4.544 -9.71875,-4.09375 3.27112,-2.88014 7.37549,-7.39166 4.1875,-11.875 -4.32477,-9.43801 -7.98055,-19.5794 -14.25,-27.875 -11.79823,-10.24413 -27.0618,-15.16355 -42.6875,-14.21875 z m 0.1875,5.6875 c 12.71605,-0.49425 26.22864,1.49127 35.73304,10.70737 8.26524,6.98038 11.13517,18.25973 16.64196,27.32388 2.7732,6.29716 -10.48356,7.93019 -7.1875,14.28125 2.91856,3.2084 8.88645,0.12872 11.5625,2 -1.38441,5.39348 -8.69663,6.2576 -12.84375,8.96875 -12.88702,7.17144 -29.12006,13.19781 -43.1395,5.85985 -11.37483,-6.18358 -24.50587,-10.2506 -37.45425,-6.92235 -14.01704,2.54809 -27.13798,8.66601 -40.59375,12.59375 -4.44428,0.99178 -9.60355,1.6245 -13.03125,-2 -8.93526,-4.14963 -17.98538,2.8095 -25.656246,6.59375 -2.40467,1.35218 -4.22662,2.30654 -2.9375,-1.0625 0.17158,-8.44863 -9.56947,-12.29029 -16.656255,-13.09375 8.187645,-4.09435 17.104915,-6.35205 25.218755,-10.3125 4.884216,-3.55092 7.333636,-9.75501 13.312956,-12.09851 11.22781,-7.4528 21.71184,-16.2883 34.68704,-20.55774 9.82379,-5.34978 18.99295,-12.08949 29.75,-16 10.2917,-4.75667 21.24356,-6.76 32.59375,-6.28125 z m 34.5625,32.0625 c -6.08117,0.67568 -6.9222,9.46597 -1.71875,12.0625 4.80562,3.12481 9.97363,-2.96068 7.75,-7.75 -0.59779,-2.62795 -3.32674,-4.63945 -6.03125,-4.3125 z"
       id="path2930"
       inkscape:connector-curvature="0"
       inkscape:export-filename="C:\cygwin\home\karlin\git\pisces_dentata\assets\male_angler.png"
       inkscape:export-xdpi="94.045204"
       inkscape:export-ydpi="94.045204" />
    <path
       style="fill:#000000"
       d="m 318.24486,956.4198 c -0.13517,-0.0449 -1.70827,-0.72116 -3.49577,-1.50287 -1.78751,-0.78171 -3.60715,-3.82362 -3.60715,-4.14074 0,-0.31713 1.95968,1.73651 3.60969,2.09886 l 2.74746,0.78518 c 0,0 0.95062,0.0605 0.89629,-1.34881 -0.0219,-0.56688 -1.4395,-3.05993 -1.4395,-3.05993 0,0 -0.46974,0.95333 -0.79383,1.5165 -0.98796,1.71678 -2.42057,3.20462 -2.42057,2.69727 0,-0.50734 1.30933,-3.11566 1.98366,-3.78999 l 1.22605,-1.22605 1.72624,2.27605 1.72624,2.27605 1.64533,-1.63334 1.64533,-1.63333 -1.16085,-2.16907 c -0.63847,-1.19299 -1.0199,-2.89316 -0.84762,-3.77814 0.17228,-0.88499 1.86106,-2.12991 3.75286,-2.76649 1.8918,-0.63658 3.57745,-1.57642 3.7459,-2.08852 0.16844,-0.51211 -1.7169,-1.76319 -4.18964,-2.78017 -2.47274,-1.01698 -4.48158,-2.14198 -4.46409,-2.5 0.0175,-0.35802 0.6925,-1.52445 1.5,-2.59207 0.80751,-1.06762 1.4682,-2.53012 1.4682,-3.25 0,-0.86611 -1.3898,-1.30887 -4.10841,-1.30887 l -4.10841,0 0.62746,-2.5 -0.25642,-2.75254 -1.38517,0.26784 c -1.24799,0.008 -2.849,0.38326 -3.55781,0.83297 l -1.28876,0.81766 1.014,2.66703 1.01401,2.66703 -3.10025,0 -3.10025,0 0.60734,3.25 0.60734,3.25 -1.48234,-1.94113 c -0.81529,-1.06762 -1.47983,-3.09262 -1.47676,-4.5 0.003,-1.40738 0.46021,-4.19565 1.01588,-6.19615 0.60625,-2.18264 2.77285,-5.26194 5.41752,-7.69971 l 4.40722,-4.06243 5.82691,-1.70222 5.8269,-1.70222 13.93411,0.1969 13.93411,0.1969 11.56589,3.0137 c 6.36124,1.65753 15.84089,4.31429 21.06589,5.90392 5.225,1.58962 12.33285,3.42577 15.79523,4.08033 l 6.29521,1.19012 18.70478,-0.5676 c 10.28762,-0.31217 20.50477,-1.07985 22.70477,-1.70594 2.2,-0.6261 8.96997,-3.32333 15.04438,-5.99385 6.07442,-2.67052 17.09942,-6.73486 24.5,-9.03187 l 13.45562,-4.17637 15.5,0.619 c 8.525,0.34046 18.875,1.3499 23,2.24322 4.125,0.89331 11.1,3.13935 15.5,4.9912 4.4,1.85185 11.15,4.93568 15,6.85297 3.85,1.91728 9.28798,5.62465 12.08441,8.2386 2.79642,2.61394 5.93612,6.10263 6.97711,7.75263 1.04099,1.65 3.5905,6.32785 5.66559,10.39521 2.07509,4.06737 3.77121,8.11737 3.76915,9 -0.002,0.88264 -0.93876,0.0298 -2.08158,-1.89521 -1.14281,-1.925 -4.79373,-6.12912 -8.11315,-9.3425 -3.97561,-3.84861 -8.78326,-7.17138 -14.08736,-9.73638 -4.42862,-2.14163 -9.66352,-4.16707 -11.63311,-4.50097 -1.96958,-0.3339 -6.28106,-1.43463 -9.58106,-2.44608 -3.3,-1.01145 -10.38374,-3.21864 -15.74165,-4.90487 -5.35791,-1.68623 -11.88291,-3.14133 -14.5,-3.23355 -2.61709,-0.0922 -7.45835,0.17488 -10.75835,0.59354 -3.3,0.41867 -7.4972,1.38491 -9.3271,2.1472 -1.82991,0.7623 -5.33997,2.74445 -7.80013,4.4048 -2.46017,1.66034 -4.60595,3.01881 -4.76841,3.01881 -0.16245,0 -5.69271,3.05181 -12.28947,6.78181 -6.59675,3.73 -14.87877,7.97648 -18.40449,9.43663 -3.52572,1.46015 -9.3354,3.79178 -12.9104,5.18141 -3.575,1.38963 -11.225,3.44179 -17,4.56035 -5.775,1.11856 -13.07575,2.03511 -16.22388,2.03677 -3.14813,0.002 -9.22313,-0.87466 -13.49999,-1.9474 -4.27687,-1.07274 -10.92612,-2.74447 -14.77612,-3.71496 l -7,-1.76452 -15.5,0.16115 -15.5,0.16115 -7.5,1.95976 c -4.125,1.07786 -10.9894,3.57708 -15.25423,5.5538 -4.26482,1.97673 -7.86482,3.55734 -8,3.51248 z m 95.34135,-6.99198 c 1.42292,0.0404 6.82292,-0.6016 12,-1.42677 5.17708,-0.82518 11.21287,-1.87849 13.41287,-2.34068 2.2,-0.4622 7.375,-2.05802 11.5,-3.54628 4.125,-1.48826 11.55,-4.67924 16.5,-7.09109 4.95,-2.41184 15.05172,-8.03396 22.44828,-12.49359 7.39655,-4.45964 15.27155,-8.51416 17.5,-9.01004 2.22844,-0.49588 7.42672,-1.19641 11.55172,-1.55673 l 7.5,-0.65513 6,1.54488 c 3.3,0.84969 12.975,3.57757 21.5,6.06197 8.525,2.48439 17.075,5.03703 19,5.67252 1.925,0.63549 4.85,2.1613 6.5,3.39068 1.65,1.22938 4.97085,3.23908 7.37967,4.466 l 8.06709,7.7619 -5.82152,-8.5282 c -1.14087,-1.67131 -4.2696,-4.75402 -6.87967,-6.9014 -2.61006,-2.14738 -6.09557,-4.82509 -7.74557,-5.95047 -1.65,-1.12537 -7.275,-3.83951 -12.5,-6.03142 -5.225,-2.19191 -10.4,-4.32471 -11.5,-4.73955 -1.1,-0.41485 -5.51601,-1.60899 -9.81335,-2.65366 l -7.81334,-1.89939 -15.49876,0 -15.49876,0 -5.18789,1.61188 c -2.85335,0.88653 -8.5629,2.73156 -12.6879,4.10005 -4.125,1.3685 -11.775,4.29283 -17,6.49851 -5.225,2.20567 -9.95,4.35731 -10.5,4.7814 -0.55,0.4241 -5.05,1.36983 -10,2.10162 -4.95,0.7318 -16.425,1.32699 -25.5,1.32265 l -16.5,-0.008 -9.49999,-2.67653 c -5.225,-1.47208 -13.55,-3.81513 -18.5,-5.20677 -4.95,-1.39164 -11.925,-3.15592 -15.5,-3.92063 -3.575,-0.76471 -8.975,-1.67858 -12,-2.03083 -3.025,-0.35226 -10.57225,-0.19213 -16.77167,0.35583 -6.95476,0.61472 -12.89107,1.72092 -15.5,2.88832 -2.32558,1.04062 -5.12834,2.91234 -6.22834,4.15939 l -2,2.26735 4.30731,-0.71976 c 2.63997,-0.44114 5.38251,-0.27439 7.08489,0.43075 1.52765,0.63278 4.36816,3.26419 6.31223,5.84758 1.94407,2.58339 3.97999,5.59708 4.52427,6.69708 0.54429,1.1 1.26295,3.44354 1.59703,5.20787 0.3625,1.91437 0.0106,4.63617 -0.87257,6.75 -0.81399,1.94817 -1.13645,3.53869 -0.71657,3.53449 0.41988,-0.004 3.63644,-0.88127 7.14791,-1.94905 l 6.3845,-1.94141 18.1155,-0.61126 18.11551,-0.61126 15.5,3.48676 c 8.52499,1.91772 16.6642,3.51986 18.08712,3.56031 z m -4.58713,-9.60028 c -3.85,0.30066 -7.89999,0.32164 -8.99999,0.0466 -1.1,-0.27502 -4.83809,-1.41661 -8.30687,-2.53687 -3.46878,-1.12026 -7.47199,-3.11663 -8.89603,-4.43638 l -2.58915,-2.39954 1.58932,0 c 0.87413,0 2.28984,-1.00013 3.14603,-2.22251 l 1.5567,-2.2225 0,1.65107 c 0,0.9081 -0.70844,2.35952 -1.5743,3.22538 l -1.5743,1.5743 1.61154,0.61841 c 0.88635,0.34013 2.41772,-0.11116 3.40305,-1.00287 0.98532,-0.8917 2.33609,-1.62128 3.00171,-1.62128 0.68352,0 0.29661,0.9792 -0.88906,2.25 l -2.09926,2.25 3.56809,0.85118 3.56809,0.85118 1.90614,-2.35118 c 1.04838,-1.29315 2.25523,-2.00333 2.68189,-1.57818 0.42666,0.42515 -0.21713,1.46844 -1.43065,2.31842 -1.21352,0.84998 -1.98324,1.90651 -1.71048,2.34784 0.27276,0.44133 1.93555,1.09034 3.6951,1.44225 1.75955,0.35191 8.07195,0.11134 14.02758,-0.53461 l 10.82841,-1.17444 -1.66732,-1.84236 c -0.91702,-1.0133 -1.42137,-2.0883 -1.12078,-2.38889 0.30059,-0.3006 1.4501,0.60216 2.55446,2.00613 1.10435,1.40396 2.69385,2.55266 3.53221,2.55266 0.83836,0 2.27627,-0.28856 3.19536,-0.64125 l 1.67107,-0.64125 -2.83928,-2.26911 c -1.56161,-1.24802 -2.6114,-2.49983 -2.33289,-2.78182 0.27852,-0.28198 2.07564,0.76806 3.99361,2.33343 1.91797,1.56537 3.15331,3.18002 2.7452,3.58813 -0.4081,0.4081 -4.90522,1.06812 -9.9936,1.46669 -5.08838,0.39858 -12.4016,0.97069 -16.2516,1.27135 z m -1.66395,-0.78835 c -0.26278,1.02092 -0.78252,0.82544 -0.84632,0.18293 -0.0638,-0.64252 -0.28096,-3.38148 -0.63691,-4.38896 l -0.64718,-1.83179 1.24096,1.14378 c 0.68253,0.62908 1.15223,3.87312 0.88945,4.89404 z m 8.53889,-0.44301 c -0.23588,0.23588 -0.81605,0.69092 -1.19106,-3.59059 -0.13206,-1.50779 -0.73097,-2.50423 -0.22983,-2.50423 0.50115,0 1.20759,0.93391 1.56987,2.07536 0.36228,1.14145 0.0869,3.78358 -0.14898,4.01946 z m -84.31591,-18.09482 c -0.51754,0 -1.18996,-0.40285 -1.49426,-0.89522 -0.3043,-0.49236 0.11914,-1.15324 0.94098,-1.46861 0.90766,-0.3483 1.49426,0.003 1.49426,0.89521 0,0.80774 -0.42344,1.46862 -0.94098,1.46862 z m -4.92212,26.07927 c 1.0247,-1.26546 1.8631,-2.92599 1.8631,-3.69005 0,-0.76407 -0.25458,-1.38922 -0.56574,-1.38922 -0.31116,0 -1.54866,0.51095 -2.75,1.13545 -1.20134,0.6245 -2.33322,1.26096 -2.51528,1.41436 -0.18206,0.15339 0.21704,1.30296 0.8869,2.55459 l 1.21791,2.2757 z m 1.6131,-10.11931 c 0.1375,0.022 0.25,-0.58511 0.25,-1.34918 0,-0.76407 -0.8384,-2.42459 -1.8631,-3.69005 l -1.86311,-2.30083 -1.15102,2.15071 -1.15103,2.15071 2.76413,1.4993 c 1.52027,0.82462 2.87663,1.51732 3.01413,1.53934 z m -18.85597,-8.95996 c 0.55,0 0.23105,-0.94689 -0.15174,-2.12373 l -0.77291,-2.37627 -0.96937,1.5 c -0.53316,0.825 -0.97627,1.8375 -0.98469,2.25 -0.008,0.4125 1.69738,0.49746 2.24738,0.49746 z m 10.10597,-2 c 1.09885,0.0503 2,-0.15526 2,-0.34501 0,-0.18976 -0.9,-1.1595 -2,-2.15499 l -2.75761,-1.93625 0.12626,2.28126 -0.12626,2.02872 z"
       id="path2959"
       inkscape:connector-curvature="0"
       sodipodi:nodetypes="cssccscssscccccssscscsssccccscccccccscsscccccssscsssscssssssscssssssssssssssscsscccsscccssssssscssssscsssssscccsssssscssssssscsssssccscccsccccsscsscsscsssscccsssssscscssscscsssccssscsscssscssssssssscscscsscccsccscscccssscccs"
       inkscape:export-filename="C:\cygwin\home\karlin\git\pisces_dentata\assets\eel.png"
       inkscape:export-xdpi="90"
       inkscape:export-ydpi="90" />
  </g>
</svg>
